G04 #@! TF.GenerationSoftware,KiCad,Pcbnew,7.0.11-7.0.11~ubuntu20.04.1*
G04 #@! TF.CreationDate,2024-08-17T23:29:04+02:00*
G04 #@! TF.ProjectId,kicad-kria-4x-pmod,6b696361-642d-46b7-9269-612d34782d70,1.0*
G04 #@! TF.SameCoordinates,Original*
G04 #@! TF.FileFunction,Legend,Bot*
G04 #@! TF.FilePolarity,Positive*
%FSLAX46Y46*%
G04 Gerber Fmt 4.6, Leading zero omitted, Abs format (unit mm)*
G04 Created by KiCad (PCBNEW 7.0.11-7.0.11~ubuntu20.04.1) date 2024-08-17 23:29:04*
%MOMM*%
%LPD*%
G01*
G04 APERTURE LIST*
G04 Aperture macros list*
%AMRoundRect*
0 Rectangle with rounded corners*
0 $1 Rounding radius*
0 $2 $3 $4 $5 $6 $7 $8 $9 X,Y pos of 4 corners*
0 Add a 4 corners polygon primitive as box body*
4,1,4,$2,$3,$4,$5,$6,$7,$8,$9,$2,$3,0*
0 Add four circle primitives for the rounded corners*
1,1,$1+$1,$2,$3*
1,1,$1+$1,$4,$5*
1,1,$1+$1,$6,$7*
1,1,$1+$1,$8,$9*
0 Add four rect primitives between the rounded corners*
20,1,$1+$1,$2,$3,$4,$5,0*
20,1,$1+$1,$4,$5,$6,$7,0*
20,1,$1+$1,$6,$7,$8,$9,0*
20,1,$1+$1,$8,$9,$2,$3,0*%
G04 Aperture macros list end*
%ADD10C,0.100000*%
%ADD11C,2.500000*%
%ADD12R,1.700000X1.700000*%
%ADD13O,1.700000X1.700000*%
%ADD14RoundRect,0.250000X-0.600000X0.600000X-0.600000X-0.600000X0.600000X-0.600000X0.600000X0.600000X0*%
%ADD15C,1.700000*%
G04 APERTURE END LIST*
D10*
X170043676Y-81027932D02*
X170043676Y-80646979D01*
X169815104Y-81104122D02*
X170615104Y-80837455D01*
X170615104Y-80837455D02*
X169815104Y-80570789D01*
X169891295Y-79846979D02*
X169853200Y-79885075D01*
X169853200Y-79885075D02*
X169815104Y-79999360D01*
X169815104Y-79999360D02*
X169815104Y-80075551D01*
X169815104Y-80075551D02*
X169853200Y-80189837D01*
X169853200Y-80189837D02*
X169929390Y-80266027D01*
X169929390Y-80266027D02*
X170005580Y-80304122D01*
X170005580Y-80304122D02*
X170157961Y-80342218D01*
X170157961Y-80342218D02*
X170272247Y-80342218D01*
X170272247Y-80342218D02*
X170424628Y-80304122D01*
X170424628Y-80304122D02*
X170500819Y-80266027D01*
X170500819Y-80266027D02*
X170577009Y-80189837D01*
X170577009Y-80189837D02*
X170615104Y-80075551D01*
X170615104Y-80075551D02*
X170615104Y-79999360D01*
X170615104Y-79999360D02*
X170577009Y-79885075D01*
X170577009Y-79885075D02*
X170538914Y-79846979D01*
X169815104Y-79085075D02*
X169815104Y-79542218D01*
X169815104Y-79313646D02*
X170615104Y-79313646D01*
X170615104Y-79313646D02*
X170500819Y-79389837D01*
X170500819Y-79389837D02*
X170424628Y-79466027D01*
X170424628Y-79466027D02*
X170386533Y-79542218D01*
X170538914Y-78780313D02*
X170577009Y-78742217D01*
X170577009Y-78742217D02*
X170615104Y-78666027D01*
X170615104Y-78666027D02*
X170615104Y-78475551D01*
X170615104Y-78475551D02*
X170577009Y-78399360D01*
X170577009Y-78399360D02*
X170538914Y-78361265D01*
X170538914Y-78361265D02*
X170462723Y-78323170D01*
X170462723Y-78323170D02*
X170386533Y-78323170D01*
X170386533Y-78323170D02*
X170272247Y-78361265D01*
X170272247Y-78361265D02*
X169815104Y-78818408D01*
X169815104Y-78818408D02*
X169815104Y-78323170D01*
X167503676Y-81027932D02*
X167503676Y-80646979D01*
X167275104Y-81104122D02*
X168075104Y-80837455D01*
X168075104Y-80837455D02*
X167275104Y-80570789D01*
X167275104Y-80304122D02*
X168075104Y-80304122D01*
X168075104Y-80304122D02*
X168075104Y-80113646D01*
X168075104Y-80113646D02*
X168037009Y-79999360D01*
X168037009Y-79999360D02*
X167960819Y-79923170D01*
X167960819Y-79923170D02*
X167884628Y-79885075D01*
X167884628Y-79885075D02*
X167732247Y-79846979D01*
X167732247Y-79846979D02*
X167617961Y-79846979D01*
X167617961Y-79846979D02*
X167465580Y-79885075D01*
X167465580Y-79885075D02*
X167389390Y-79923170D01*
X167389390Y-79923170D02*
X167313200Y-79999360D01*
X167313200Y-79999360D02*
X167275104Y-80113646D01*
X167275104Y-80113646D02*
X167275104Y-80304122D01*
X167275104Y-79085075D02*
X167275104Y-79542218D01*
X167275104Y-79313646D02*
X168075104Y-79313646D01*
X168075104Y-79313646D02*
X167960819Y-79389837D01*
X167960819Y-79389837D02*
X167884628Y-79466027D01*
X167884628Y-79466027D02*
X167846533Y-79542218D01*
X167998914Y-78780313D02*
X168037009Y-78742217D01*
X168037009Y-78742217D02*
X168075104Y-78666027D01*
X168075104Y-78666027D02*
X168075104Y-78475551D01*
X168075104Y-78475551D02*
X168037009Y-78399360D01*
X168037009Y-78399360D02*
X167998914Y-78361265D01*
X167998914Y-78361265D02*
X167922723Y-78323170D01*
X167922723Y-78323170D02*
X167846533Y-78323170D01*
X167846533Y-78323170D02*
X167732247Y-78361265D01*
X167732247Y-78361265D02*
X167275104Y-78818408D01*
X167275104Y-78818408D02*
X167275104Y-78323170D01*
X164963676Y-80951742D02*
X164963676Y-80570789D01*
X164735104Y-81027932D02*
X165535104Y-80761265D01*
X165535104Y-80761265D02*
X164735104Y-80494599D01*
X165154152Y-80227932D02*
X165154152Y-79961266D01*
X164735104Y-79846980D02*
X164735104Y-80227932D01*
X164735104Y-80227932D02*
X165535104Y-80227932D01*
X165535104Y-80227932D02*
X165535104Y-79846980D01*
X164735104Y-79085075D02*
X164735104Y-79542218D01*
X164735104Y-79313646D02*
X165535104Y-79313646D01*
X165535104Y-79313646D02*
X165420819Y-79389837D01*
X165420819Y-79389837D02*
X165344628Y-79466027D01*
X165344628Y-79466027D02*
X165306533Y-79542218D01*
X165535104Y-78589836D02*
X165535104Y-78513646D01*
X165535104Y-78513646D02*
X165497009Y-78437455D01*
X165497009Y-78437455D02*
X165458914Y-78399360D01*
X165458914Y-78399360D02*
X165382723Y-78361265D01*
X165382723Y-78361265D02*
X165230342Y-78323170D01*
X165230342Y-78323170D02*
X165039866Y-78323170D01*
X165039866Y-78323170D02*
X164887485Y-78361265D01*
X164887485Y-78361265D02*
X164811295Y-78399360D01*
X164811295Y-78399360D02*
X164773200Y-78437455D01*
X164773200Y-78437455D02*
X164735104Y-78513646D01*
X164735104Y-78513646D02*
X164735104Y-78589836D01*
X164735104Y-78589836D02*
X164773200Y-78666027D01*
X164773200Y-78666027D02*
X164811295Y-78704122D01*
X164811295Y-78704122D02*
X164887485Y-78742217D01*
X164887485Y-78742217D02*
X165039866Y-78780313D01*
X165039866Y-78780313D02*
X165230342Y-78780313D01*
X165230342Y-78780313D02*
X165382723Y-78742217D01*
X165382723Y-78742217D02*
X165458914Y-78704122D01*
X165458914Y-78704122D02*
X165497009Y-78666027D01*
X165497009Y-78666027D02*
X165535104Y-78589836D01*
X170043676Y-71536830D02*
X170043676Y-71155877D01*
X169815104Y-71613020D02*
X170615104Y-71346353D01*
X170615104Y-71346353D02*
X169815104Y-71079687D01*
X169815104Y-70813020D02*
X170615104Y-70813020D01*
X170615104Y-70813020D02*
X170615104Y-70622544D01*
X170615104Y-70622544D02*
X170577009Y-70508258D01*
X170577009Y-70508258D02*
X170500819Y-70432068D01*
X170500819Y-70432068D02*
X170424628Y-70393973D01*
X170424628Y-70393973D02*
X170272247Y-70355877D01*
X170272247Y-70355877D02*
X170157961Y-70355877D01*
X170157961Y-70355877D02*
X170005580Y-70393973D01*
X170005580Y-70393973D02*
X169929390Y-70432068D01*
X169929390Y-70432068D02*
X169853200Y-70508258D01*
X169853200Y-70508258D02*
X169815104Y-70622544D01*
X169815104Y-70622544D02*
X169815104Y-70813020D01*
X169815104Y-69593973D02*
X169815104Y-70051116D01*
X169815104Y-69822544D02*
X170615104Y-69822544D01*
X170615104Y-69822544D02*
X170500819Y-69898735D01*
X170500819Y-69898735D02*
X170424628Y-69974925D01*
X170424628Y-69974925D02*
X170386533Y-70051116D01*
X169815104Y-68832068D02*
X169815104Y-69289211D01*
X169815104Y-69060639D02*
X170615104Y-69060639D01*
X170615104Y-69060639D02*
X170500819Y-69136830D01*
X170500819Y-69136830D02*
X170424628Y-69213020D01*
X170424628Y-69213020D02*
X170386533Y-69289211D01*
X167503676Y-71536830D02*
X167503676Y-71155877D01*
X167275104Y-71613020D02*
X168075104Y-71346353D01*
X168075104Y-71346353D02*
X167275104Y-71079687D01*
X167275104Y-70813020D02*
X168075104Y-70813020D01*
X168075104Y-70813020D02*
X168075104Y-70622544D01*
X168075104Y-70622544D02*
X168037009Y-70508258D01*
X168037009Y-70508258D02*
X167960819Y-70432068D01*
X167960819Y-70432068D02*
X167884628Y-70393973D01*
X167884628Y-70393973D02*
X167732247Y-70355877D01*
X167732247Y-70355877D02*
X167617961Y-70355877D01*
X167617961Y-70355877D02*
X167465580Y-70393973D01*
X167465580Y-70393973D02*
X167389390Y-70432068D01*
X167389390Y-70432068D02*
X167313200Y-70508258D01*
X167313200Y-70508258D02*
X167275104Y-70622544D01*
X167275104Y-70622544D02*
X167275104Y-70813020D01*
X167275104Y-69593973D02*
X167275104Y-70051116D01*
X167275104Y-69822544D02*
X168075104Y-69822544D01*
X168075104Y-69822544D02*
X167960819Y-69898735D01*
X167960819Y-69898735D02*
X167884628Y-69974925D01*
X167884628Y-69974925D02*
X167846533Y-70051116D01*
X168075104Y-69098734D02*
X168075104Y-69022544D01*
X168075104Y-69022544D02*
X168037009Y-68946353D01*
X168037009Y-68946353D02*
X167998914Y-68908258D01*
X167998914Y-68908258D02*
X167922723Y-68870163D01*
X167922723Y-68870163D02*
X167770342Y-68832068D01*
X167770342Y-68832068D02*
X167579866Y-68832068D01*
X167579866Y-68832068D02*
X167427485Y-68870163D01*
X167427485Y-68870163D02*
X167351295Y-68908258D01*
X167351295Y-68908258D02*
X167313200Y-68946353D01*
X167313200Y-68946353D02*
X167275104Y-69022544D01*
X167275104Y-69022544D02*
X167275104Y-69098734D01*
X167275104Y-69098734D02*
X167313200Y-69174925D01*
X167313200Y-69174925D02*
X167351295Y-69213020D01*
X167351295Y-69213020D02*
X167427485Y-69251115D01*
X167427485Y-69251115D02*
X167579866Y-69289211D01*
X167579866Y-69289211D02*
X167770342Y-69289211D01*
X167770342Y-69289211D02*
X167922723Y-69251115D01*
X167922723Y-69251115D02*
X167998914Y-69213020D01*
X167998914Y-69213020D02*
X168037009Y-69174925D01*
X168037009Y-69174925D02*
X168075104Y-69098734D01*
X164963676Y-71536830D02*
X164963676Y-71155877D01*
X164735104Y-71613020D02*
X165535104Y-71346353D01*
X165535104Y-71346353D02*
X164735104Y-71079687D01*
X164963676Y-70851116D02*
X164963676Y-70470163D01*
X164735104Y-70927306D02*
X165535104Y-70660639D01*
X165535104Y-70660639D02*
X164735104Y-70393973D01*
X164735104Y-69708259D02*
X164735104Y-70165402D01*
X164735104Y-69936830D02*
X165535104Y-69936830D01*
X165535104Y-69936830D02*
X165420819Y-70013021D01*
X165420819Y-70013021D02*
X165344628Y-70089211D01*
X165344628Y-70089211D02*
X165306533Y-70165402D01*
X164735104Y-68946354D02*
X164735104Y-69403497D01*
X164735104Y-69174925D02*
X165535104Y-69174925D01*
X165535104Y-69174925D02*
X165420819Y-69251116D01*
X165420819Y-69251116D02*
X165344628Y-69327306D01*
X165344628Y-69327306D02*
X165306533Y-69403497D01*
X162423676Y-81066027D02*
X162423676Y-80685074D01*
X162195104Y-81142217D02*
X162995104Y-80875550D01*
X162995104Y-80875550D02*
X162195104Y-80608884D01*
X162195104Y-80342217D02*
X162995104Y-80342217D01*
X162614152Y-80342217D02*
X162614152Y-79885074D01*
X162195104Y-79885074D02*
X162995104Y-79885074D01*
X162195104Y-79085075D02*
X162195104Y-79542218D01*
X162195104Y-79313646D02*
X162995104Y-79313646D01*
X162995104Y-79313646D02*
X162880819Y-79389837D01*
X162880819Y-79389837D02*
X162804628Y-79466027D01*
X162804628Y-79466027D02*
X162766533Y-79542218D01*
X162995104Y-78589836D02*
X162995104Y-78513646D01*
X162995104Y-78513646D02*
X162957009Y-78437455D01*
X162957009Y-78437455D02*
X162918914Y-78399360D01*
X162918914Y-78399360D02*
X162842723Y-78361265D01*
X162842723Y-78361265D02*
X162690342Y-78323170D01*
X162690342Y-78323170D02*
X162499866Y-78323170D01*
X162499866Y-78323170D02*
X162347485Y-78361265D01*
X162347485Y-78361265D02*
X162271295Y-78399360D01*
X162271295Y-78399360D02*
X162233200Y-78437455D01*
X162233200Y-78437455D02*
X162195104Y-78513646D01*
X162195104Y-78513646D02*
X162195104Y-78589836D01*
X162195104Y-78589836D02*
X162233200Y-78666027D01*
X162233200Y-78666027D02*
X162271295Y-78704122D01*
X162271295Y-78704122D02*
X162347485Y-78742217D01*
X162347485Y-78742217D02*
X162499866Y-78780313D01*
X162499866Y-78780313D02*
X162690342Y-78780313D01*
X162690342Y-78780313D02*
X162842723Y-78742217D01*
X162842723Y-78742217D02*
X162918914Y-78704122D01*
X162918914Y-78704122D02*
X162957009Y-78666027D01*
X162957009Y-78666027D02*
X162995104Y-78589836D01*
X160417009Y-79999360D02*
X160455104Y-80075550D01*
X160455104Y-80075550D02*
X160455104Y-80189836D01*
X160455104Y-80189836D02*
X160417009Y-80304122D01*
X160417009Y-80304122D02*
X160340819Y-80380312D01*
X160340819Y-80380312D02*
X160264628Y-80418407D01*
X160264628Y-80418407D02*
X160112247Y-80456503D01*
X160112247Y-80456503D02*
X159997961Y-80456503D01*
X159997961Y-80456503D02*
X159845580Y-80418407D01*
X159845580Y-80418407D02*
X159769390Y-80380312D01*
X159769390Y-80380312D02*
X159693200Y-80304122D01*
X159693200Y-80304122D02*
X159655104Y-80189836D01*
X159655104Y-80189836D02*
X159655104Y-80113645D01*
X159655104Y-80113645D02*
X159693200Y-79999360D01*
X159693200Y-79999360D02*
X159731295Y-79961264D01*
X159731295Y-79961264D02*
X159997961Y-79961264D01*
X159997961Y-79961264D02*
X159997961Y-80113645D01*
X159655104Y-79618407D02*
X160455104Y-79618407D01*
X160455104Y-79618407D02*
X159655104Y-79161264D01*
X159655104Y-79161264D02*
X160455104Y-79161264D01*
X159655104Y-78780312D02*
X160455104Y-78780312D01*
X160455104Y-78780312D02*
X160455104Y-78589836D01*
X160455104Y-78589836D02*
X160417009Y-78475550D01*
X160417009Y-78475550D02*
X160340819Y-78399360D01*
X160340819Y-78399360D02*
X160264628Y-78361265D01*
X160264628Y-78361265D02*
X160112247Y-78323169D01*
X160112247Y-78323169D02*
X159997961Y-78323169D01*
X159997961Y-78323169D02*
X159845580Y-78361265D01*
X159845580Y-78361265D02*
X159769390Y-78399360D01*
X159769390Y-78399360D02*
X159693200Y-78475550D01*
X159693200Y-78475550D02*
X159655104Y-78589836D01*
X159655104Y-78589836D02*
X159655104Y-78780312D01*
X157419866Y-81180312D02*
X157419866Y-80570789D01*
X157115104Y-80875550D02*
X157724628Y-80875550D01*
X157915104Y-80266027D02*
X157915104Y-79770789D01*
X157915104Y-79770789D02*
X157610342Y-80037455D01*
X157610342Y-80037455D02*
X157610342Y-79923170D01*
X157610342Y-79923170D02*
X157572247Y-79846979D01*
X157572247Y-79846979D02*
X157534152Y-79808884D01*
X157534152Y-79808884D02*
X157457961Y-79770789D01*
X157457961Y-79770789D02*
X157267485Y-79770789D01*
X157267485Y-79770789D02*
X157191295Y-79808884D01*
X157191295Y-79808884D02*
X157153200Y-79846979D01*
X157153200Y-79846979D02*
X157115104Y-79923170D01*
X157115104Y-79923170D02*
X157115104Y-80151741D01*
X157115104Y-80151741D02*
X157153200Y-80227932D01*
X157153200Y-80227932D02*
X157191295Y-80266027D01*
X157915104Y-79542217D02*
X157115104Y-79275550D01*
X157115104Y-79275550D02*
X157915104Y-79008884D01*
X157915104Y-78818408D02*
X157915104Y-78323170D01*
X157915104Y-78323170D02*
X157610342Y-78589836D01*
X157610342Y-78589836D02*
X157610342Y-78475551D01*
X157610342Y-78475551D02*
X157572247Y-78399360D01*
X157572247Y-78399360D02*
X157534152Y-78361265D01*
X157534152Y-78361265D02*
X157457961Y-78323170D01*
X157457961Y-78323170D02*
X157267485Y-78323170D01*
X157267485Y-78323170D02*
X157191295Y-78361265D01*
X157191295Y-78361265D02*
X157153200Y-78399360D01*
X157153200Y-78399360D02*
X157115104Y-78475551D01*
X157115104Y-78475551D02*
X157115104Y-78704122D01*
X157115104Y-78704122D02*
X157153200Y-78780313D01*
X157153200Y-78780313D02*
X157191295Y-78818408D01*
X162423676Y-71536830D02*
X162423676Y-71155877D01*
X162195104Y-71613020D02*
X162995104Y-71346353D01*
X162995104Y-71346353D02*
X162195104Y-71079687D01*
X162423676Y-70851116D02*
X162423676Y-70470163D01*
X162195104Y-70927306D02*
X162995104Y-70660639D01*
X162995104Y-70660639D02*
X162195104Y-70393973D01*
X162195104Y-69708259D02*
X162195104Y-70165402D01*
X162195104Y-69936830D02*
X162995104Y-69936830D01*
X162995104Y-69936830D02*
X162880819Y-70013021D01*
X162880819Y-70013021D02*
X162804628Y-70089211D01*
X162804628Y-70089211D02*
X162766533Y-70165402D01*
X162995104Y-69213020D02*
X162995104Y-69136830D01*
X162995104Y-69136830D02*
X162957009Y-69060639D01*
X162957009Y-69060639D02*
X162918914Y-69022544D01*
X162918914Y-69022544D02*
X162842723Y-68984449D01*
X162842723Y-68984449D02*
X162690342Y-68946354D01*
X162690342Y-68946354D02*
X162499866Y-68946354D01*
X162499866Y-68946354D02*
X162347485Y-68984449D01*
X162347485Y-68984449D02*
X162271295Y-69022544D01*
X162271295Y-69022544D02*
X162233200Y-69060639D01*
X162233200Y-69060639D02*
X162195104Y-69136830D01*
X162195104Y-69136830D02*
X162195104Y-69213020D01*
X162195104Y-69213020D02*
X162233200Y-69289211D01*
X162233200Y-69289211D02*
X162271295Y-69327306D01*
X162271295Y-69327306D02*
X162347485Y-69365401D01*
X162347485Y-69365401D02*
X162499866Y-69403497D01*
X162499866Y-69403497D02*
X162690342Y-69403497D01*
X162690342Y-69403497D02*
X162842723Y-69365401D01*
X162842723Y-69365401D02*
X162918914Y-69327306D01*
X162918914Y-69327306D02*
X162957009Y-69289211D01*
X162957009Y-69289211D02*
X162995104Y-69213020D01*
X160417009Y-71079687D02*
X160455104Y-71155877D01*
X160455104Y-71155877D02*
X160455104Y-71270163D01*
X160455104Y-71270163D02*
X160417009Y-71384449D01*
X160417009Y-71384449D02*
X160340819Y-71460639D01*
X160340819Y-71460639D02*
X160264628Y-71498734D01*
X160264628Y-71498734D02*
X160112247Y-71536830D01*
X160112247Y-71536830D02*
X159997961Y-71536830D01*
X159997961Y-71536830D02*
X159845580Y-71498734D01*
X159845580Y-71498734D02*
X159769390Y-71460639D01*
X159769390Y-71460639D02*
X159693200Y-71384449D01*
X159693200Y-71384449D02*
X159655104Y-71270163D01*
X159655104Y-71270163D02*
X159655104Y-71193972D01*
X159655104Y-71193972D02*
X159693200Y-71079687D01*
X159693200Y-71079687D02*
X159731295Y-71041591D01*
X159731295Y-71041591D02*
X159997961Y-71041591D01*
X159997961Y-71041591D02*
X159997961Y-71193972D01*
X159655104Y-70698734D02*
X160455104Y-70698734D01*
X160455104Y-70698734D02*
X159655104Y-70241591D01*
X159655104Y-70241591D02*
X160455104Y-70241591D01*
X159655104Y-69860639D02*
X160455104Y-69860639D01*
X160455104Y-69860639D02*
X160455104Y-69670163D01*
X160455104Y-69670163D02*
X160417009Y-69555877D01*
X160417009Y-69555877D02*
X160340819Y-69479687D01*
X160340819Y-69479687D02*
X160264628Y-69441592D01*
X160264628Y-69441592D02*
X160112247Y-69403496D01*
X160112247Y-69403496D02*
X159997961Y-69403496D01*
X159997961Y-69403496D02*
X159845580Y-69441592D01*
X159845580Y-69441592D02*
X159769390Y-69479687D01*
X159769390Y-69479687D02*
X159693200Y-69555877D01*
X159693200Y-69555877D02*
X159655104Y-69670163D01*
X159655104Y-69670163D02*
X159655104Y-69860639D01*
X157419866Y-71498734D02*
X157419866Y-70889211D01*
X157115104Y-71193972D02*
X157724628Y-71193972D01*
X157915104Y-70584449D02*
X157915104Y-70089211D01*
X157915104Y-70089211D02*
X157610342Y-70355877D01*
X157610342Y-70355877D02*
X157610342Y-70241592D01*
X157610342Y-70241592D02*
X157572247Y-70165401D01*
X157572247Y-70165401D02*
X157534152Y-70127306D01*
X157534152Y-70127306D02*
X157457961Y-70089211D01*
X157457961Y-70089211D02*
X157267485Y-70089211D01*
X157267485Y-70089211D02*
X157191295Y-70127306D01*
X157191295Y-70127306D02*
X157153200Y-70165401D01*
X157153200Y-70165401D02*
X157115104Y-70241592D01*
X157115104Y-70241592D02*
X157115104Y-70470163D01*
X157115104Y-70470163D02*
X157153200Y-70546354D01*
X157153200Y-70546354D02*
X157191295Y-70584449D01*
X157915104Y-69860639D02*
X157115104Y-69593972D01*
X157115104Y-69593972D02*
X157915104Y-69327306D01*
X157915104Y-69136830D02*
X157915104Y-68641592D01*
X157915104Y-68641592D02*
X157610342Y-68908258D01*
X157610342Y-68908258D02*
X157610342Y-68793973D01*
X157610342Y-68793973D02*
X157572247Y-68717782D01*
X157572247Y-68717782D02*
X157534152Y-68679687D01*
X157534152Y-68679687D02*
X157457961Y-68641592D01*
X157457961Y-68641592D02*
X157267485Y-68641592D01*
X157267485Y-68641592D02*
X157191295Y-68679687D01*
X157191295Y-68679687D02*
X157153200Y-68717782D01*
X157153200Y-68717782D02*
X157115104Y-68793973D01*
X157115104Y-68793973D02*
X157115104Y-69022544D01*
X157115104Y-69022544D02*
X157153200Y-69098735D01*
X157153200Y-69098735D02*
X157191295Y-69136830D01*
X147183676Y-80951742D02*
X147183676Y-80570789D01*
X146955104Y-81027932D02*
X147755104Y-80761265D01*
X147755104Y-80761265D02*
X146955104Y-80494599D01*
X147374152Y-80227932D02*
X147374152Y-79961266D01*
X146955104Y-79846980D02*
X146955104Y-80227932D01*
X146955104Y-80227932D02*
X147755104Y-80227932D01*
X147755104Y-80227932D02*
X147755104Y-79846980D01*
X146955104Y-79085075D02*
X146955104Y-79542218D01*
X146955104Y-79313646D02*
X147755104Y-79313646D01*
X147755104Y-79313646D02*
X147640819Y-79389837D01*
X147640819Y-79389837D02*
X147564628Y-79466027D01*
X147564628Y-79466027D02*
X147526533Y-79542218D01*
X147678914Y-78780313D02*
X147717009Y-78742217D01*
X147717009Y-78742217D02*
X147755104Y-78666027D01*
X147755104Y-78666027D02*
X147755104Y-78475551D01*
X147755104Y-78475551D02*
X147717009Y-78399360D01*
X147717009Y-78399360D02*
X147678914Y-78361265D01*
X147678914Y-78361265D02*
X147602723Y-78323170D01*
X147602723Y-78323170D02*
X147526533Y-78323170D01*
X147526533Y-78323170D02*
X147412247Y-78361265D01*
X147412247Y-78361265D02*
X146955104Y-78818408D01*
X146955104Y-78818408D02*
X146955104Y-78323170D01*
X144643676Y-80913646D02*
X144643676Y-80532693D01*
X144415104Y-80989836D02*
X145215104Y-80723169D01*
X145215104Y-80723169D02*
X144415104Y-80456503D01*
X144834152Y-79923170D02*
X144834152Y-80189836D01*
X144415104Y-80189836D02*
X145215104Y-80189836D01*
X145215104Y-80189836D02*
X145215104Y-79808884D01*
X144415104Y-79085075D02*
X144415104Y-79542218D01*
X144415104Y-79313646D02*
X145215104Y-79313646D01*
X145215104Y-79313646D02*
X145100819Y-79389837D01*
X145100819Y-79389837D02*
X145024628Y-79466027D01*
X145024628Y-79466027D02*
X144986533Y-79542218D01*
X145138914Y-78780313D02*
X145177009Y-78742217D01*
X145177009Y-78742217D02*
X145215104Y-78666027D01*
X145215104Y-78666027D02*
X145215104Y-78475551D01*
X145215104Y-78475551D02*
X145177009Y-78399360D01*
X145177009Y-78399360D02*
X145138914Y-78361265D01*
X145138914Y-78361265D02*
X145062723Y-78323170D01*
X145062723Y-78323170D02*
X144986533Y-78323170D01*
X144986533Y-78323170D02*
X144872247Y-78361265D01*
X144872247Y-78361265D02*
X144415104Y-78818408D01*
X144415104Y-78818408D02*
X144415104Y-78323170D01*
X142103676Y-81027932D02*
X142103676Y-80646979D01*
X141875104Y-81104122D02*
X142675104Y-80837455D01*
X142675104Y-80837455D02*
X141875104Y-80570789D01*
X142637009Y-79885075D02*
X142675104Y-79961265D01*
X142675104Y-79961265D02*
X142675104Y-80075551D01*
X142675104Y-80075551D02*
X142637009Y-80189837D01*
X142637009Y-80189837D02*
X142560819Y-80266027D01*
X142560819Y-80266027D02*
X142484628Y-80304122D01*
X142484628Y-80304122D02*
X142332247Y-80342218D01*
X142332247Y-80342218D02*
X142217961Y-80342218D01*
X142217961Y-80342218D02*
X142065580Y-80304122D01*
X142065580Y-80304122D02*
X141989390Y-80266027D01*
X141989390Y-80266027D02*
X141913200Y-80189837D01*
X141913200Y-80189837D02*
X141875104Y-80075551D01*
X141875104Y-80075551D02*
X141875104Y-79999360D01*
X141875104Y-79999360D02*
X141913200Y-79885075D01*
X141913200Y-79885075D02*
X141951295Y-79846979D01*
X141951295Y-79846979D02*
X142217961Y-79846979D01*
X142217961Y-79846979D02*
X142217961Y-79999360D01*
X141875104Y-79085075D02*
X141875104Y-79542218D01*
X141875104Y-79313646D02*
X142675104Y-79313646D01*
X142675104Y-79313646D02*
X142560819Y-79389837D01*
X142560819Y-79389837D02*
X142484628Y-79466027D01*
X142484628Y-79466027D02*
X142446533Y-79542218D01*
X142675104Y-78589836D02*
X142675104Y-78513646D01*
X142675104Y-78513646D02*
X142637009Y-78437455D01*
X142637009Y-78437455D02*
X142598914Y-78399360D01*
X142598914Y-78399360D02*
X142522723Y-78361265D01*
X142522723Y-78361265D02*
X142370342Y-78323170D01*
X142370342Y-78323170D02*
X142179866Y-78323170D01*
X142179866Y-78323170D02*
X142027485Y-78361265D01*
X142027485Y-78361265D02*
X141951295Y-78399360D01*
X141951295Y-78399360D02*
X141913200Y-78437455D01*
X141913200Y-78437455D02*
X141875104Y-78513646D01*
X141875104Y-78513646D02*
X141875104Y-78589836D01*
X141875104Y-78589836D02*
X141913200Y-78666027D01*
X141913200Y-78666027D02*
X141951295Y-78704122D01*
X141951295Y-78704122D02*
X142027485Y-78742217D01*
X142027485Y-78742217D02*
X142179866Y-78780313D01*
X142179866Y-78780313D02*
X142370342Y-78780313D01*
X142370342Y-78780313D02*
X142522723Y-78742217D01*
X142522723Y-78742217D02*
X142598914Y-78704122D01*
X142598914Y-78704122D02*
X142637009Y-78666027D01*
X142637009Y-78666027D02*
X142675104Y-78589836D01*
X139563676Y-81066027D02*
X139563676Y-80685074D01*
X139335104Y-81142217D02*
X140135104Y-80875550D01*
X140135104Y-80875550D02*
X139335104Y-80608884D01*
X139335104Y-80342217D02*
X140135104Y-80342217D01*
X139754152Y-80342217D02*
X139754152Y-79885074D01*
X139335104Y-79885074D02*
X140135104Y-79885074D01*
X139335104Y-79085075D02*
X139335104Y-79542218D01*
X139335104Y-79313646D02*
X140135104Y-79313646D01*
X140135104Y-79313646D02*
X140020819Y-79389837D01*
X140020819Y-79389837D02*
X139944628Y-79466027D01*
X139944628Y-79466027D02*
X139906533Y-79542218D01*
X140135104Y-78589836D02*
X140135104Y-78513646D01*
X140135104Y-78513646D02*
X140097009Y-78437455D01*
X140097009Y-78437455D02*
X140058914Y-78399360D01*
X140058914Y-78399360D02*
X139982723Y-78361265D01*
X139982723Y-78361265D02*
X139830342Y-78323170D01*
X139830342Y-78323170D02*
X139639866Y-78323170D01*
X139639866Y-78323170D02*
X139487485Y-78361265D01*
X139487485Y-78361265D02*
X139411295Y-78399360D01*
X139411295Y-78399360D02*
X139373200Y-78437455D01*
X139373200Y-78437455D02*
X139335104Y-78513646D01*
X139335104Y-78513646D02*
X139335104Y-78589836D01*
X139335104Y-78589836D02*
X139373200Y-78666027D01*
X139373200Y-78666027D02*
X139411295Y-78704122D01*
X139411295Y-78704122D02*
X139487485Y-78742217D01*
X139487485Y-78742217D02*
X139639866Y-78780313D01*
X139639866Y-78780313D02*
X139830342Y-78780313D01*
X139830342Y-78780313D02*
X139982723Y-78742217D01*
X139982723Y-78742217D02*
X140058914Y-78704122D01*
X140058914Y-78704122D02*
X140097009Y-78666027D01*
X140097009Y-78666027D02*
X140135104Y-78589836D01*
X147183676Y-71536830D02*
X147183676Y-71155877D01*
X146955104Y-71613020D02*
X147755104Y-71346353D01*
X147755104Y-71346353D02*
X146955104Y-71079687D01*
X147374152Y-70546354D02*
X147374152Y-70813020D01*
X146955104Y-70813020D02*
X147755104Y-70813020D01*
X147755104Y-70813020D02*
X147755104Y-70432068D01*
X146955104Y-69708259D02*
X146955104Y-70165402D01*
X146955104Y-69936830D02*
X147755104Y-69936830D01*
X147755104Y-69936830D02*
X147640819Y-70013021D01*
X147640819Y-70013021D02*
X147564628Y-70089211D01*
X147564628Y-70089211D02*
X147526533Y-70165402D01*
X146955104Y-68946354D02*
X146955104Y-69403497D01*
X146955104Y-69174925D02*
X147755104Y-69174925D01*
X147755104Y-69174925D02*
X147640819Y-69251116D01*
X147640819Y-69251116D02*
X147564628Y-69327306D01*
X147564628Y-69327306D02*
X147526533Y-69403497D01*
X144643676Y-71536830D02*
X144643676Y-71155877D01*
X144415104Y-71613020D02*
X145215104Y-71346353D01*
X145215104Y-71346353D02*
X144415104Y-71079687D01*
X145177009Y-70393973D02*
X145215104Y-70470163D01*
X145215104Y-70470163D02*
X145215104Y-70584449D01*
X145215104Y-70584449D02*
X145177009Y-70698735D01*
X145177009Y-70698735D02*
X145100819Y-70774925D01*
X145100819Y-70774925D02*
X145024628Y-70813020D01*
X145024628Y-70813020D02*
X144872247Y-70851116D01*
X144872247Y-70851116D02*
X144757961Y-70851116D01*
X144757961Y-70851116D02*
X144605580Y-70813020D01*
X144605580Y-70813020D02*
X144529390Y-70774925D01*
X144529390Y-70774925D02*
X144453200Y-70698735D01*
X144453200Y-70698735D02*
X144415104Y-70584449D01*
X144415104Y-70584449D02*
X144415104Y-70508258D01*
X144415104Y-70508258D02*
X144453200Y-70393973D01*
X144453200Y-70393973D02*
X144491295Y-70355877D01*
X144491295Y-70355877D02*
X144757961Y-70355877D01*
X144757961Y-70355877D02*
X144757961Y-70508258D01*
X144415104Y-69593973D02*
X144415104Y-70051116D01*
X144415104Y-69822544D02*
X145215104Y-69822544D01*
X145215104Y-69822544D02*
X145100819Y-69898735D01*
X145100819Y-69898735D02*
X145024628Y-69974925D01*
X145024628Y-69974925D02*
X144986533Y-70051116D01*
X144415104Y-68832068D02*
X144415104Y-69289211D01*
X144415104Y-69060639D02*
X145215104Y-69060639D01*
X145215104Y-69060639D02*
X145100819Y-69136830D01*
X145100819Y-69136830D02*
X145024628Y-69213020D01*
X145024628Y-69213020D02*
X144986533Y-69289211D01*
X142103676Y-71536830D02*
X142103676Y-71155877D01*
X141875104Y-71613020D02*
X142675104Y-71346353D01*
X142675104Y-71346353D02*
X141875104Y-71079687D01*
X141875104Y-70813020D02*
X142675104Y-70813020D01*
X142294152Y-70813020D02*
X142294152Y-70355877D01*
X141875104Y-70355877D02*
X142675104Y-70355877D01*
X141875104Y-69555878D02*
X141875104Y-70013021D01*
X141875104Y-69784449D02*
X142675104Y-69784449D01*
X142675104Y-69784449D02*
X142560819Y-69860640D01*
X142560819Y-69860640D02*
X142484628Y-69936830D01*
X142484628Y-69936830D02*
X142446533Y-70013021D01*
X142598914Y-69251116D02*
X142637009Y-69213020D01*
X142637009Y-69213020D02*
X142675104Y-69136830D01*
X142675104Y-69136830D02*
X142675104Y-68946354D01*
X142675104Y-68946354D02*
X142637009Y-68870163D01*
X142637009Y-68870163D02*
X142598914Y-68832068D01*
X142598914Y-68832068D02*
X142522723Y-68793973D01*
X142522723Y-68793973D02*
X142446533Y-68793973D01*
X142446533Y-68793973D02*
X142332247Y-68832068D01*
X142332247Y-68832068D02*
X141875104Y-69289211D01*
X141875104Y-69289211D02*
X141875104Y-68793973D01*
X139563676Y-71536830D02*
X139563676Y-71155877D01*
X139335104Y-71613020D02*
X140135104Y-71346353D01*
X140135104Y-71346353D02*
X139335104Y-71079687D01*
X139335104Y-70813020D02*
X140135104Y-70813020D01*
X139754152Y-70813020D02*
X139754152Y-70355877D01*
X139335104Y-70355877D02*
X140135104Y-70355877D01*
X139335104Y-69555878D02*
X139335104Y-70013021D01*
X139335104Y-69784449D02*
X140135104Y-69784449D01*
X140135104Y-69784449D02*
X140020819Y-69860640D01*
X140020819Y-69860640D02*
X139944628Y-69936830D01*
X139944628Y-69936830D02*
X139906533Y-70013021D01*
X139335104Y-68793973D02*
X139335104Y-69251116D01*
X139335104Y-69022544D02*
X140135104Y-69022544D01*
X140135104Y-69022544D02*
X140020819Y-69098735D01*
X140020819Y-69098735D02*
X139944628Y-69174925D01*
X139944628Y-69174925D02*
X139906533Y-69251116D01*
X134559866Y-71498734D02*
X134559866Y-70889211D01*
X134255104Y-71193972D02*
X134864628Y-71193972D01*
X135055104Y-70584449D02*
X135055104Y-70089211D01*
X135055104Y-70089211D02*
X134750342Y-70355877D01*
X134750342Y-70355877D02*
X134750342Y-70241592D01*
X134750342Y-70241592D02*
X134712247Y-70165401D01*
X134712247Y-70165401D02*
X134674152Y-70127306D01*
X134674152Y-70127306D02*
X134597961Y-70089211D01*
X134597961Y-70089211D02*
X134407485Y-70089211D01*
X134407485Y-70089211D02*
X134331295Y-70127306D01*
X134331295Y-70127306D02*
X134293200Y-70165401D01*
X134293200Y-70165401D02*
X134255104Y-70241592D01*
X134255104Y-70241592D02*
X134255104Y-70470163D01*
X134255104Y-70470163D02*
X134293200Y-70546354D01*
X134293200Y-70546354D02*
X134331295Y-70584449D01*
X135055104Y-69860639D02*
X134255104Y-69593972D01*
X134255104Y-69593972D02*
X135055104Y-69327306D01*
X135055104Y-69136830D02*
X135055104Y-68641592D01*
X135055104Y-68641592D02*
X134750342Y-68908258D01*
X134750342Y-68908258D02*
X134750342Y-68793973D01*
X134750342Y-68793973D02*
X134712247Y-68717782D01*
X134712247Y-68717782D02*
X134674152Y-68679687D01*
X134674152Y-68679687D02*
X134597961Y-68641592D01*
X134597961Y-68641592D02*
X134407485Y-68641592D01*
X134407485Y-68641592D02*
X134331295Y-68679687D01*
X134331295Y-68679687D02*
X134293200Y-68717782D01*
X134293200Y-68717782D02*
X134255104Y-68793973D01*
X134255104Y-68793973D02*
X134255104Y-69022544D01*
X134255104Y-69022544D02*
X134293200Y-69098735D01*
X134293200Y-69098735D02*
X134331295Y-69136830D01*
X137557009Y-79999360D02*
X137595104Y-80075550D01*
X137595104Y-80075550D02*
X137595104Y-80189836D01*
X137595104Y-80189836D02*
X137557009Y-80304122D01*
X137557009Y-80304122D02*
X137480819Y-80380312D01*
X137480819Y-80380312D02*
X137404628Y-80418407D01*
X137404628Y-80418407D02*
X137252247Y-80456503D01*
X137252247Y-80456503D02*
X137137961Y-80456503D01*
X137137961Y-80456503D02*
X136985580Y-80418407D01*
X136985580Y-80418407D02*
X136909390Y-80380312D01*
X136909390Y-80380312D02*
X136833200Y-80304122D01*
X136833200Y-80304122D02*
X136795104Y-80189836D01*
X136795104Y-80189836D02*
X136795104Y-80113645D01*
X136795104Y-80113645D02*
X136833200Y-79999360D01*
X136833200Y-79999360D02*
X136871295Y-79961264D01*
X136871295Y-79961264D02*
X137137961Y-79961264D01*
X137137961Y-79961264D02*
X137137961Y-80113645D01*
X136795104Y-79618407D02*
X137595104Y-79618407D01*
X137595104Y-79618407D02*
X136795104Y-79161264D01*
X136795104Y-79161264D02*
X137595104Y-79161264D01*
X136795104Y-78780312D02*
X137595104Y-78780312D01*
X137595104Y-78780312D02*
X137595104Y-78589836D01*
X137595104Y-78589836D02*
X137557009Y-78475550D01*
X137557009Y-78475550D02*
X137480819Y-78399360D01*
X137480819Y-78399360D02*
X137404628Y-78361265D01*
X137404628Y-78361265D02*
X137252247Y-78323169D01*
X137252247Y-78323169D02*
X137137961Y-78323169D01*
X137137961Y-78323169D02*
X136985580Y-78361265D01*
X136985580Y-78361265D02*
X136909390Y-78399360D01*
X136909390Y-78399360D02*
X136833200Y-78475550D01*
X136833200Y-78475550D02*
X136795104Y-78589836D01*
X136795104Y-78589836D02*
X136795104Y-78780312D01*
X134559866Y-81180312D02*
X134559866Y-80570789D01*
X134255104Y-80875550D02*
X134864628Y-80875550D01*
X135055104Y-80266027D02*
X135055104Y-79770789D01*
X135055104Y-79770789D02*
X134750342Y-80037455D01*
X134750342Y-80037455D02*
X134750342Y-79923170D01*
X134750342Y-79923170D02*
X134712247Y-79846979D01*
X134712247Y-79846979D02*
X134674152Y-79808884D01*
X134674152Y-79808884D02*
X134597961Y-79770789D01*
X134597961Y-79770789D02*
X134407485Y-79770789D01*
X134407485Y-79770789D02*
X134331295Y-79808884D01*
X134331295Y-79808884D02*
X134293200Y-79846979D01*
X134293200Y-79846979D02*
X134255104Y-79923170D01*
X134255104Y-79923170D02*
X134255104Y-80151741D01*
X134255104Y-80151741D02*
X134293200Y-80227932D01*
X134293200Y-80227932D02*
X134331295Y-80266027D01*
X135055104Y-79542217D02*
X134255104Y-79275550D01*
X134255104Y-79275550D02*
X135055104Y-79008884D01*
X135055104Y-78818408D02*
X135055104Y-78323170D01*
X135055104Y-78323170D02*
X134750342Y-78589836D01*
X134750342Y-78589836D02*
X134750342Y-78475551D01*
X134750342Y-78475551D02*
X134712247Y-78399360D01*
X134712247Y-78399360D02*
X134674152Y-78361265D01*
X134674152Y-78361265D02*
X134597961Y-78323170D01*
X134597961Y-78323170D02*
X134407485Y-78323170D01*
X134407485Y-78323170D02*
X134331295Y-78361265D01*
X134331295Y-78361265D02*
X134293200Y-78399360D01*
X134293200Y-78399360D02*
X134255104Y-78475551D01*
X134255104Y-78475551D02*
X134255104Y-78704122D01*
X134255104Y-78704122D02*
X134293200Y-78780313D01*
X134293200Y-78780313D02*
X134331295Y-78818408D01*
X137557009Y-71079687D02*
X137595104Y-71155877D01*
X137595104Y-71155877D02*
X137595104Y-71270163D01*
X137595104Y-71270163D02*
X137557009Y-71384449D01*
X137557009Y-71384449D02*
X137480819Y-71460639D01*
X137480819Y-71460639D02*
X137404628Y-71498734D01*
X137404628Y-71498734D02*
X137252247Y-71536830D01*
X137252247Y-71536830D02*
X137137961Y-71536830D01*
X137137961Y-71536830D02*
X136985580Y-71498734D01*
X136985580Y-71498734D02*
X136909390Y-71460639D01*
X136909390Y-71460639D02*
X136833200Y-71384449D01*
X136833200Y-71384449D02*
X136795104Y-71270163D01*
X136795104Y-71270163D02*
X136795104Y-71193972D01*
X136795104Y-71193972D02*
X136833200Y-71079687D01*
X136833200Y-71079687D02*
X136871295Y-71041591D01*
X136871295Y-71041591D02*
X137137961Y-71041591D01*
X137137961Y-71041591D02*
X137137961Y-71193972D01*
X136795104Y-70698734D02*
X137595104Y-70698734D01*
X137595104Y-70698734D02*
X136795104Y-70241591D01*
X136795104Y-70241591D02*
X137595104Y-70241591D01*
X136795104Y-69860639D02*
X137595104Y-69860639D01*
X137595104Y-69860639D02*
X137595104Y-69670163D01*
X137595104Y-69670163D02*
X137557009Y-69555877D01*
X137557009Y-69555877D02*
X137480819Y-69479687D01*
X137480819Y-69479687D02*
X137404628Y-69441592D01*
X137404628Y-69441592D02*
X137252247Y-69403496D01*
X137252247Y-69403496D02*
X137137961Y-69403496D01*
X137137961Y-69403496D02*
X136985580Y-69441592D01*
X136985580Y-69441592D02*
X136909390Y-69479687D01*
X136909390Y-69479687D02*
X136833200Y-69555877D01*
X136833200Y-69555877D02*
X136795104Y-69670163D01*
X136795104Y-69670163D02*
X136795104Y-69860639D01*
X104079866Y-81180312D02*
X104079866Y-80570789D01*
X103775104Y-80875550D02*
X104384628Y-80875550D01*
X104575104Y-80266027D02*
X104575104Y-79770789D01*
X104575104Y-79770789D02*
X104270342Y-80037455D01*
X104270342Y-80037455D02*
X104270342Y-79923170D01*
X104270342Y-79923170D02*
X104232247Y-79846979D01*
X104232247Y-79846979D02*
X104194152Y-79808884D01*
X104194152Y-79808884D02*
X104117961Y-79770789D01*
X104117961Y-79770789D02*
X103927485Y-79770789D01*
X103927485Y-79770789D02*
X103851295Y-79808884D01*
X103851295Y-79808884D02*
X103813200Y-79846979D01*
X103813200Y-79846979D02*
X103775104Y-79923170D01*
X103775104Y-79923170D02*
X103775104Y-80151741D01*
X103775104Y-80151741D02*
X103813200Y-80227932D01*
X103813200Y-80227932D02*
X103851295Y-80266027D01*
X104575104Y-79542217D02*
X103775104Y-79275550D01*
X103775104Y-79275550D02*
X104575104Y-79008884D01*
X104575104Y-78818408D02*
X104575104Y-78323170D01*
X104575104Y-78323170D02*
X104270342Y-78589836D01*
X104270342Y-78589836D02*
X104270342Y-78475551D01*
X104270342Y-78475551D02*
X104232247Y-78399360D01*
X104232247Y-78399360D02*
X104194152Y-78361265D01*
X104194152Y-78361265D02*
X104117961Y-78323170D01*
X104117961Y-78323170D02*
X103927485Y-78323170D01*
X103927485Y-78323170D02*
X103851295Y-78361265D01*
X103851295Y-78361265D02*
X103813200Y-78399360D01*
X103813200Y-78399360D02*
X103775104Y-78475551D01*
X103775104Y-78475551D02*
X103775104Y-78704122D01*
X103775104Y-78704122D02*
X103813200Y-78780313D01*
X103813200Y-78780313D02*
X103851295Y-78818408D01*
X104537009Y-71079687D02*
X104575104Y-71155877D01*
X104575104Y-71155877D02*
X104575104Y-71270163D01*
X104575104Y-71270163D02*
X104537009Y-71384449D01*
X104537009Y-71384449D02*
X104460819Y-71460639D01*
X104460819Y-71460639D02*
X104384628Y-71498734D01*
X104384628Y-71498734D02*
X104232247Y-71536830D01*
X104232247Y-71536830D02*
X104117961Y-71536830D01*
X104117961Y-71536830D02*
X103965580Y-71498734D01*
X103965580Y-71498734D02*
X103889390Y-71460639D01*
X103889390Y-71460639D02*
X103813200Y-71384449D01*
X103813200Y-71384449D02*
X103775104Y-71270163D01*
X103775104Y-71270163D02*
X103775104Y-71193972D01*
X103775104Y-71193972D02*
X103813200Y-71079687D01*
X103813200Y-71079687D02*
X103851295Y-71041591D01*
X103851295Y-71041591D02*
X104117961Y-71041591D01*
X104117961Y-71041591D02*
X104117961Y-71193972D01*
X103775104Y-70698734D02*
X104575104Y-70698734D01*
X104575104Y-70698734D02*
X103775104Y-70241591D01*
X103775104Y-70241591D02*
X104575104Y-70241591D01*
X103775104Y-69860639D02*
X104575104Y-69860639D01*
X104575104Y-69860639D02*
X104575104Y-69670163D01*
X104575104Y-69670163D02*
X104537009Y-69555877D01*
X104537009Y-69555877D02*
X104460819Y-69479687D01*
X104460819Y-69479687D02*
X104384628Y-69441592D01*
X104384628Y-69441592D02*
X104232247Y-69403496D01*
X104232247Y-69403496D02*
X104117961Y-69403496D01*
X104117961Y-69403496D02*
X103965580Y-69441592D01*
X103965580Y-69441592D02*
X103889390Y-69479687D01*
X103889390Y-69479687D02*
X103813200Y-69555877D01*
X103813200Y-69555877D02*
X103775104Y-69670163D01*
X103775104Y-69670163D02*
X103775104Y-69860639D01*
X124095104Y-71498734D02*
X124895104Y-71498734D01*
X124514152Y-71498734D02*
X124514152Y-71041591D01*
X124095104Y-71041591D02*
X124895104Y-71041591D01*
X124095104Y-70241592D02*
X124095104Y-70698735D01*
X124095104Y-70470163D02*
X124895104Y-70470163D01*
X124895104Y-70470163D02*
X124780819Y-70546354D01*
X124780819Y-70546354D02*
X124704628Y-70622544D01*
X124704628Y-70622544D02*
X124666533Y-70698735D01*
X124095104Y-69479687D02*
X124095104Y-69936830D01*
X124095104Y-69708258D02*
X124895104Y-69708258D01*
X124895104Y-69708258D02*
X124780819Y-69784449D01*
X124780819Y-69784449D02*
X124704628Y-69860639D01*
X124704628Y-69860639D02*
X124666533Y-69936830D01*
X122317009Y-71079687D02*
X122355104Y-71155877D01*
X122355104Y-71155877D02*
X122355104Y-71270163D01*
X122355104Y-71270163D02*
X122317009Y-71384449D01*
X122317009Y-71384449D02*
X122240819Y-71460639D01*
X122240819Y-71460639D02*
X122164628Y-71498734D01*
X122164628Y-71498734D02*
X122012247Y-71536830D01*
X122012247Y-71536830D02*
X121897961Y-71536830D01*
X121897961Y-71536830D02*
X121745580Y-71498734D01*
X121745580Y-71498734D02*
X121669390Y-71460639D01*
X121669390Y-71460639D02*
X121593200Y-71384449D01*
X121593200Y-71384449D02*
X121555104Y-71270163D01*
X121555104Y-71270163D02*
X121555104Y-71193972D01*
X121555104Y-71193972D02*
X121593200Y-71079687D01*
X121593200Y-71079687D02*
X121631295Y-71041591D01*
X121631295Y-71041591D02*
X121897961Y-71041591D01*
X121897961Y-71041591D02*
X121897961Y-71193972D01*
X121555104Y-70279687D02*
X121555104Y-70736830D01*
X121555104Y-70508258D02*
X122355104Y-70508258D01*
X122355104Y-70508258D02*
X122240819Y-70584449D01*
X122240819Y-70584449D02*
X122164628Y-70660639D01*
X122164628Y-70660639D02*
X122126533Y-70736830D01*
X122355104Y-69784448D02*
X122355104Y-69708258D01*
X122355104Y-69708258D02*
X122317009Y-69632067D01*
X122317009Y-69632067D02*
X122278914Y-69593972D01*
X122278914Y-69593972D02*
X122202723Y-69555877D01*
X122202723Y-69555877D02*
X122050342Y-69517782D01*
X122050342Y-69517782D02*
X121859866Y-69517782D01*
X121859866Y-69517782D02*
X121707485Y-69555877D01*
X121707485Y-69555877D02*
X121631295Y-69593972D01*
X121631295Y-69593972D02*
X121593200Y-69632067D01*
X121593200Y-69632067D02*
X121555104Y-69708258D01*
X121555104Y-69708258D02*
X121555104Y-69784448D01*
X121555104Y-69784448D02*
X121593200Y-69860639D01*
X121593200Y-69860639D02*
X121631295Y-69898734D01*
X121631295Y-69898734D02*
X121707485Y-69936829D01*
X121707485Y-69936829D02*
X121859866Y-69974925D01*
X121859866Y-69974925D02*
X122050342Y-69974925D01*
X122050342Y-69974925D02*
X122202723Y-69936829D01*
X122202723Y-69936829D02*
X122278914Y-69898734D01*
X122278914Y-69898734D02*
X122317009Y-69860639D01*
X122317009Y-69860639D02*
X122355104Y-69784448D01*
X119434152Y-71232068D02*
X119434152Y-71498734D01*
X119015104Y-71498734D02*
X119815104Y-71498734D01*
X119815104Y-71498734D02*
X119815104Y-71117782D01*
X119015104Y-70393973D02*
X119015104Y-70851116D01*
X119015104Y-70622544D02*
X119815104Y-70622544D01*
X119815104Y-70622544D02*
X119700819Y-70698735D01*
X119700819Y-70698735D02*
X119624628Y-70774925D01*
X119624628Y-70774925D02*
X119586533Y-70851116D01*
X119738914Y-70089211D02*
X119777009Y-70051115D01*
X119777009Y-70051115D02*
X119815104Y-69974925D01*
X119815104Y-69974925D02*
X119815104Y-69784449D01*
X119815104Y-69784449D02*
X119777009Y-69708258D01*
X119777009Y-69708258D02*
X119738914Y-69670163D01*
X119738914Y-69670163D02*
X119662723Y-69632068D01*
X119662723Y-69632068D02*
X119586533Y-69632068D01*
X119586533Y-69632068D02*
X119472247Y-69670163D01*
X119472247Y-69670163D02*
X119015104Y-70127306D01*
X119015104Y-70127306D02*
X119015104Y-69632068D01*
X116894152Y-71232068D02*
X116894152Y-71498734D01*
X116475104Y-71498734D02*
X117275104Y-71498734D01*
X117275104Y-71498734D02*
X117275104Y-71117782D01*
X116475104Y-70393973D02*
X116475104Y-70851116D01*
X116475104Y-70622544D02*
X117275104Y-70622544D01*
X117275104Y-70622544D02*
X117160819Y-70698735D01*
X117160819Y-70698735D02*
X117084628Y-70774925D01*
X117084628Y-70774925D02*
X117046533Y-70851116D01*
X116475104Y-69632068D02*
X116475104Y-70089211D01*
X116475104Y-69860639D02*
X117275104Y-69860639D01*
X117275104Y-69860639D02*
X117160819Y-69936830D01*
X117160819Y-69936830D02*
X117084628Y-70013020D01*
X117084628Y-70013020D02*
X117046533Y-70089211D01*
X114354152Y-71232068D02*
X114316057Y-71117782D01*
X114316057Y-71117782D02*
X114277961Y-71079687D01*
X114277961Y-71079687D02*
X114201771Y-71041591D01*
X114201771Y-71041591D02*
X114087485Y-71041591D01*
X114087485Y-71041591D02*
X114011295Y-71079687D01*
X114011295Y-71079687D02*
X113973200Y-71117782D01*
X113973200Y-71117782D02*
X113935104Y-71193972D01*
X113935104Y-71193972D02*
X113935104Y-71498734D01*
X113935104Y-71498734D02*
X114735104Y-71498734D01*
X114735104Y-71498734D02*
X114735104Y-71232068D01*
X114735104Y-71232068D02*
X114697009Y-71155877D01*
X114697009Y-71155877D02*
X114658914Y-71117782D01*
X114658914Y-71117782D02*
X114582723Y-71079687D01*
X114582723Y-71079687D02*
X114506533Y-71079687D01*
X114506533Y-71079687D02*
X114430342Y-71117782D01*
X114430342Y-71117782D02*
X114392247Y-71155877D01*
X114392247Y-71155877D02*
X114354152Y-71232068D01*
X114354152Y-71232068D02*
X114354152Y-71498734D01*
X113935104Y-70279687D02*
X113935104Y-70736830D01*
X113935104Y-70508258D02*
X114735104Y-70508258D01*
X114735104Y-70508258D02*
X114620819Y-70584449D01*
X114620819Y-70584449D02*
X114544628Y-70660639D01*
X114544628Y-70660639D02*
X114506533Y-70736830D01*
X114735104Y-69784448D02*
X114735104Y-69708258D01*
X114735104Y-69708258D02*
X114697009Y-69632067D01*
X114697009Y-69632067D02*
X114658914Y-69593972D01*
X114658914Y-69593972D02*
X114582723Y-69555877D01*
X114582723Y-69555877D02*
X114430342Y-69517782D01*
X114430342Y-69517782D02*
X114239866Y-69517782D01*
X114239866Y-69517782D02*
X114087485Y-69555877D01*
X114087485Y-69555877D02*
X114011295Y-69593972D01*
X114011295Y-69593972D02*
X113973200Y-69632067D01*
X113973200Y-69632067D02*
X113935104Y-69708258D01*
X113935104Y-69708258D02*
X113935104Y-69784448D01*
X113935104Y-69784448D02*
X113973200Y-69860639D01*
X113973200Y-69860639D02*
X114011295Y-69898734D01*
X114011295Y-69898734D02*
X114087485Y-69936829D01*
X114087485Y-69936829D02*
X114239866Y-69974925D01*
X114239866Y-69974925D02*
X114430342Y-69974925D01*
X114430342Y-69974925D02*
X114582723Y-69936829D01*
X114582723Y-69936829D02*
X114658914Y-69898734D01*
X114658914Y-69898734D02*
X114697009Y-69860639D01*
X114697009Y-69860639D02*
X114735104Y-69784448D01*
X111814152Y-71498734D02*
X111814152Y-71232068D01*
X111395104Y-71117782D02*
X111395104Y-71498734D01*
X111395104Y-71498734D02*
X112195104Y-71498734D01*
X112195104Y-71498734D02*
X112195104Y-71117782D01*
X111395104Y-70355877D02*
X111395104Y-70813020D01*
X111395104Y-70584448D02*
X112195104Y-70584448D01*
X112195104Y-70584448D02*
X112080819Y-70660639D01*
X112080819Y-70660639D02*
X112004628Y-70736829D01*
X112004628Y-70736829D02*
X111966533Y-70813020D01*
X112118914Y-70051115D02*
X112157009Y-70013019D01*
X112157009Y-70013019D02*
X112195104Y-69936829D01*
X112195104Y-69936829D02*
X112195104Y-69746353D01*
X112195104Y-69746353D02*
X112157009Y-69670162D01*
X112157009Y-69670162D02*
X112118914Y-69632067D01*
X112118914Y-69632067D02*
X112042723Y-69593972D01*
X112042723Y-69593972D02*
X111966533Y-69593972D01*
X111966533Y-69593972D02*
X111852247Y-69632067D01*
X111852247Y-69632067D02*
X111395104Y-70089210D01*
X111395104Y-70089210D02*
X111395104Y-69593972D01*
X108855104Y-71498734D02*
X109655104Y-71498734D01*
X109655104Y-71498734D02*
X109655104Y-71308258D01*
X109655104Y-71308258D02*
X109617009Y-71193972D01*
X109617009Y-71193972D02*
X109540819Y-71117782D01*
X109540819Y-71117782D02*
X109464628Y-71079687D01*
X109464628Y-71079687D02*
X109312247Y-71041591D01*
X109312247Y-71041591D02*
X109197961Y-71041591D01*
X109197961Y-71041591D02*
X109045580Y-71079687D01*
X109045580Y-71079687D02*
X108969390Y-71117782D01*
X108969390Y-71117782D02*
X108893200Y-71193972D01*
X108893200Y-71193972D02*
X108855104Y-71308258D01*
X108855104Y-71308258D02*
X108855104Y-71498734D01*
X108855104Y-70279687D02*
X108855104Y-70736830D01*
X108855104Y-70508258D02*
X109655104Y-70508258D01*
X109655104Y-70508258D02*
X109540819Y-70584449D01*
X109540819Y-70584449D02*
X109464628Y-70660639D01*
X109464628Y-70660639D02*
X109426533Y-70736830D01*
X108855104Y-69517782D02*
X108855104Y-69974925D01*
X108855104Y-69746353D02*
X109655104Y-69746353D01*
X109655104Y-69746353D02*
X109540819Y-69822544D01*
X109540819Y-69822544D02*
X109464628Y-69898734D01*
X109464628Y-69898734D02*
X109426533Y-69974925D01*
X124895104Y-79885075D02*
X124323676Y-79885075D01*
X124323676Y-79885075D02*
X124209390Y-79923170D01*
X124209390Y-79923170D02*
X124133200Y-79999361D01*
X124133200Y-79999361D02*
X124095104Y-80113646D01*
X124095104Y-80113646D02*
X124095104Y-80189837D01*
X124095104Y-79085075D02*
X124095104Y-79542218D01*
X124095104Y-79313646D02*
X124895104Y-79313646D01*
X124895104Y-79313646D02*
X124780819Y-79389837D01*
X124780819Y-79389837D02*
X124704628Y-79466027D01*
X124704628Y-79466027D02*
X124666533Y-79542218D01*
X124095104Y-78323170D02*
X124095104Y-78780313D01*
X124095104Y-78551741D02*
X124895104Y-78551741D01*
X124895104Y-78551741D02*
X124780819Y-78627932D01*
X124780819Y-78627932D02*
X124704628Y-78704122D01*
X124704628Y-78704122D02*
X124666533Y-78780313D01*
X122355104Y-79885075D02*
X121783676Y-79885075D01*
X121783676Y-79885075D02*
X121669390Y-79923170D01*
X121669390Y-79923170D02*
X121593200Y-79999361D01*
X121593200Y-79999361D02*
X121555104Y-80113646D01*
X121555104Y-80113646D02*
X121555104Y-80189837D01*
X121555104Y-79085075D02*
X121555104Y-79542218D01*
X121555104Y-79313646D02*
X122355104Y-79313646D01*
X122355104Y-79313646D02*
X122240819Y-79389837D01*
X122240819Y-79389837D02*
X122164628Y-79466027D01*
X122164628Y-79466027D02*
X122126533Y-79542218D01*
X122355104Y-78589836D02*
X122355104Y-78513646D01*
X122355104Y-78513646D02*
X122317009Y-78437455D01*
X122317009Y-78437455D02*
X122278914Y-78399360D01*
X122278914Y-78399360D02*
X122202723Y-78361265D01*
X122202723Y-78361265D02*
X122050342Y-78323170D01*
X122050342Y-78323170D02*
X121859866Y-78323170D01*
X121859866Y-78323170D02*
X121707485Y-78361265D01*
X121707485Y-78361265D02*
X121631295Y-78399360D01*
X121631295Y-78399360D02*
X121593200Y-78437455D01*
X121593200Y-78437455D02*
X121555104Y-78513646D01*
X121555104Y-78513646D02*
X121555104Y-78589836D01*
X121555104Y-78589836D02*
X121593200Y-78666027D01*
X121593200Y-78666027D02*
X121631295Y-78704122D01*
X121631295Y-78704122D02*
X121707485Y-78742217D01*
X121707485Y-78742217D02*
X121859866Y-78780313D01*
X121859866Y-78780313D02*
X122050342Y-78780313D01*
X122050342Y-78780313D02*
X122202723Y-78742217D01*
X122202723Y-78742217D02*
X122278914Y-78704122D01*
X122278914Y-78704122D02*
X122317009Y-78666027D01*
X122317009Y-78666027D02*
X122355104Y-78589836D01*
X119015104Y-80304122D02*
X119815104Y-80304122D01*
X119015104Y-79846979D02*
X119472247Y-80189837D01*
X119815104Y-79846979D02*
X119357961Y-80304122D01*
X119015104Y-79085075D02*
X119015104Y-79542218D01*
X119015104Y-79313646D02*
X119815104Y-79313646D01*
X119815104Y-79313646D02*
X119700819Y-79389837D01*
X119700819Y-79389837D02*
X119624628Y-79466027D01*
X119624628Y-79466027D02*
X119586533Y-79542218D01*
X119815104Y-78818408D02*
X119815104Y-78323170D01*
X119815104Y-78323170D02*
X119510342Y-78589836D01*
X119510342Y-78589836D02*
X119510342Y-78475551D01*
X119510342Y-78475551D02*
X119472247Y-78399360D01*
X119472247Y-78399360D02*
X119434152Y-78361265D01*
X119434152Y-78361265D02*
X119357961Y-78323170D01*
X119357961Y-78323170D02*
X119167485Y-78323170D01*
X119167485Y-78323170D02*
X119091295Y-78361265D01*
X119091295Y-78361265D02*
X119053200Y-78399360D01*
X119053200Y-78399360D02*
X119015104Y-78475551D01*
X119015104Y-78475551D02*
X119015104Y-78704122D01*
X119015104Y-78704122D02*
X119053200Y-78780313D01*
X119053200Y-78780313D02*
X119091295Y-78818408D01*
X116475104Y-80304122D02*
X117275104Y-80304122D01*
X116475104Y-79846979D02*
X116932247Y-80189837D01*
X117275104Y-79846979D02*
X116817961Y-80304122D01*
X116475104Y-79085075D02*
X116475104Y-79542218D01*
X116475104Y-79313646D02*
X117275104Y-79313646D01*
X117275104Y-79313646D02*
X117160819Y-79389837D01*
X117160819Y-79389837D02*
X117084628Y-79466027D01*
X117084628Y-79466027D02*
X117046533Y-79542218D01*
X117198914Y-78780313D02*
X117237009Y-78742217D01*
X117237009Y-78742217D02*
X117275104Y-78666027D01*
X117275104Y-78666027D02*
X117275104Y-78475551D01*
X117275104Y-78475551D02*
X117237009Y-78399360D01*
X117237009Y-78399360D02*
X117198914Y-78361265D01*
X117198914Y-78361265D02*
X117122723Y-78323170D01*
X117122723Y-78323170D02*
X117046533Y-78323170D01*
X117046533Y-78323170D02*
X116932247Y-78361265D01*
X116932247Y-78361265D02*
X116475104Y-78818408D01*
X116475104Y-78818408D02*
X116475104Y-78323170D01*
X113935104Y-80342217D02*
X114735104Y-80342217D01*
X114354152Y-80342217D02*
X114354152Y-79885074D01*
X113935104Y-79885074D02*
X114735104Y-79885074D01*
X113935104Y-79085075D02*
X113935104Y-79542218D01*
X113935104Y-79313646D02*
X114735104Y-79313646D01*
X114735104Y-79313646D02*
X114620819Y-79389837D01*
X114620819Y-79389837D02*
X114544628Y-79466027D01*
X114544628Y-79466027D02*
X114506533Y-79542218D01*
X114658914Y-78780313D02*
X114697009Y-78742217D01*
X114697009Y-78742217D02*
X114735104Y-78666027D01*
X114735104Y-78666027D02*
X114735104Y-78475551D01*
X114735104Y-78475551D02*
X114697009Y-78399360D01*
X114697009Y-78399360D02*
X114658914Y-78361265D01*
X114658914Y-78361265D02*
X114582723Y-78323170D01*
X114582723Y-78323170D02*
X114506533Y-78323170D01*
X114506533Y-78323170D02*
X114392247Y-78361265D01*
X114392247Y-78361265D02*
X113935104Y-78818408D01*
X113935104Y-78818408D02*
X113935104Y-78323170D01*
X111814152Y-80227932D02*
X111814152Y-79961266D01*
X111395104Y-79846980D02*
X111395104Y-80227932D01*
X111395104Y-80227932D02*
X112195104Y-80227932D01*
X112195104Y-80227932D02*
X112195104Y-79846980D01*
X111395104Y-79085075D02*
X111395104Y-79542218D01*
X111395104Y-79313646D02*
X112195104Y-79313646D01*
X112195104Y-79313646D02*
X112080819Y-79389837D01*
X112080819Y-79389837D02*
X112004628Y-79466027D01*
X112004628Y-79466027D02*
X111966533Y-79542218D01*
X112195104Y-78589836D02*
X112195104Y-78513646D01*
X112195104Y-78513646D02*
X112157009Y-78437455D01*
X112157009Y-78437455D02*
X112118914Y-78399360D01*
X112118914Y-78399360D02*
X112042723Y-78361265D01*
X112042723Y-78361265D02*
X111890342Y-78323170D01*
X111890342Y-78323170D02*
X111699866Y-78323170D01*
X111699866Y-78323170D02*
X111547485Y-78361265D01*
X111547485Y-78361265D02*
X111471295Y-78399360D01*
X111471295Y-78399360D02*
X111433200Y-78437455D01*
X111433200Y-78437455D02*
X111395104Y-78513646D01*
X111395104Y-78513646D02*
X111395104Y-78589836D01*
X111395104Y-78589836D02*
X111433200Y-78666027D01*
X111433200Y-78666027D02*
X111471295Y-78704122D01*
X111471295Y-78704122D02*
X111547485Y-78742217D01*
X111547485Y-78742217D02*
X111699866Y-78780313D01*
X111699866Y-78780313D02*
X111890342Y-78780313D01*
X111890342Y-78780313D02*
X112042723Y-78742217D01*
X112042723Y-78742217D02*
X112118914Y-78704122D01*
X112118914Y-78704122D02*
X112157009Y-78666027D01*
X112157009Y-78666027D02*
X112195104Y-78589836D01*
X108855104Y-80304122D02*
X109655104Y-80304122D01*
X109655104Y-80304122D02*
X109655104Y-80113646D01*
X109655104Y-80113646D02*
X109617009Y-79999360D01*
X109617009Y-79999360D02*
X109540819Y-79923170D01*
X109540819Y-79923170D02*
X109464628Y-79885075D01*
X109464628Y-79885075D02*
X109312247Y-79846979D01*
X109312247Y-79846979D02*
X109197961Y-79846979D01*
X109197961Y-79846979D02*
X109045580Y-79885075D01*
X109045580Y-79885075D02*
X108969390Y-79923170D01*
X108969390Y-79923170D02*
X108893200Y-79999360D01*
X108893200Y-79999360D02*
X108855104Y-80113646D01*
X108855104Y-80113646D02*
X108855104Y-80304122D01*
X108855104Y-79085075D02*
X108855104Y-79542218D01*
X108855104Y-79313646D02*
X109655104Y-79313646D01*
X109655104Y-79313646D02*
X109540819Y-79389837D01*
X109540819Y-79389837D02*
X109464628Y-79466027D01*
X109464628Y-79466027D02*
X109426533Y-79542218D01*
X109655104Y-78589836D02*
X109655104Y-78513646D01*
X109655104Y-78513646D02*
X109617009Y-78437455D01*
X109617009Y-78437455D02*
X109578914Y-78399360D01*
X109578914Y-78399360D02*
X109502723Y-78361265D01*
X109502723Y-78361265D02*
X109350342Y-78323170D01*
X109350342Y-78323170D02*
X109159866Y-78323170D01*
X109159866Y-78323170D02*
X109007485Y-78361265D01*
X109007485Y-78361265D02*
X108931295Y-78399360D01*
X108931295Y-78399360D02*
X108893200Y-78437455D01*
X108893200Y-78437455D02*
X108855104Y-78513646D01*
X108855104Y-78513646D02*
X108855104Y-78589836D01*
X108855104Y-78589836D02*
X108893200Y-78666027D01*
X108893200Y-78666027D02*
X108931295Y-78704122D01*
X108931295Y-78704122D02*
X109007485Y-78742217D01*
X109007485Y-78742217D02*
X109159866Y-78780313D01*
X109159866Y-78780313D02*
X109350342Y-78780313D01*
X109350342Y-78780313D02*
X109502723Y-78742217D01*
X109502723Y-78742217D02*
X109578914Y-78704122D01*
X109578914Y-78704122D02*
X109617009Y-78666027D01*
X109617009Y-78666027D02*
X109655104Y-78589836D01*
X106391295Y-79846979D02*
X106353200Y-79885075D01*
X106353200Y-79885075D02*
X106315104Y-79999360D01*
X106315104Y-79999360D02*
X106315104Y-80075551D01*
X106315104Y-80075551D02*
X106353200Y-80189837D01*
X106353200Y-80189837D02*
X106429390Y-80266027D01*
X106429390Y-80266027D02*
X106505580Y-80304122D01*
X106505580Y-80304122D02*
X106657961Y-80342218D01*
X106657961Y-80342218D02*
X106772247Y-80342218D01*
X106772247Y-80342218D02*
X106924628Y-80304122D01*
X106924628Y-80304122D02*
X107000819Y-80266027D01*
X107000819Y-80266027D02*
X107077009Y-80189837D01*
X107077009Y-80189837D02*
X107115104Y-80075551D01*
X107115104Y-80075551D02*
X107115104Y-79999360D01*
X107115104Y-79999360D02*
X107077009Y-79885075D01*
X107077009Y-79885075D02*
X107038914Y-79846979D01*
X106315104Y-79085075D02*
X106315104Y-79542218D01*
X106315104Y-79313646D02*
X107115104Y-79313646D01*
X107115104Y-79313646D02*
X107000819Y-79389837D01*
X107000819Y-79389837D02*
X106924628Y-79466027D01*
X106924628Y-79466027D02*
X106886533Y-79542218D01*
X106315104Y-78323170D02*
X106315104Y-78780313D01*
X106315104Y-78551741D02*
X107115104Y-78551741D01*
X107115104Y-78551741D02*
X107000819Y-78627932D01*
X107000819Y-78627932D02*
X106924628Y-78704122D01*
X106924628Y-78704122D02*
X106886533Y-78780313D01*
X106734152Y-71232068D02*
X106696057Y-71117782D01*
X106696057Y-71117782D02*
X106657961Y-71079687D01*
X106657961Y-71079687D02*
X106581771Y-71041591D01*
X106581771Y-71041591D02*
X106467485Y-71041591D01*
X106467485Y-71041591D02*
X106391295Y-71079687D01*
X106391295Y-71079687D02*
X106353200Y-71117782D01*
X106353200Y-71117782D02*
X106315104Y-71193972D01*
X106315104Y-71193972D02*
X106315104Y-71498734D01*
X106315104Y-71498734D02*
X107115104Y-71498734D01*
X107115104Y-71498734D02*
X107115104Y-71232068D01*
X107115104Y-71232068D02*
X107077009Y-71155877D01*
X107077009Y-71155877D02*
X107038914Y-71117782D01*
X107038914Y-71117782D02*
X106962723Y-71079687D01*
X106962723Y-71079687D02*
X106886533Y-71079687D01*
X106886533Y-71079687D02*
X106810342Y-71117782D01*
X106810342Y-71117782D02*
X106772247Y-71155877D01*
X106772247Y-71155877D02*
X106734152Y-71232068D01*
X106734152Y-71232068D02*
X106734152Y-71498734D01*
X106315104Y-70279687D02*
X106315104Y-70736830D01*
X106315104Y-70508258D02*
X107115104Y-70508258D01*
X107115104Y-70508258D02*
X107000819Y-70584449D01*
X107000819Y-70584449D02*
X106924628Y-70660639D01*
X106924628Y-70660639D02*
X106886533Y-70736830D01*
X106315104Y-69517782D02*
X106315104Y-69974925D01*
X106315104Y-69746353D02*
X107115104Y-69746353D01*
X107115104Y-69746353D02*
X107000819Y-69822544D01*
X107000819Y-69822544D02*
X106924628Y-69898734D01*
X106924628Y-69898734D02*
X106886533Y-69974925D01*
%LPC*%
D11*
X152400000Y-49530000D03*
D12*
X104140000Y-73660000D03*
D13*
X104140000Y-76200000D03*
X106680000Y-73660000D03*
X106680000Y-76200000D03*
X109220000Y-73660000D03*
X109220000Y-76200000D03*
X111760000Y-73660000D03*
X111760000Y-76200000D03*
X114300000Y-73660000D03*
X114300000Y-76200000D03*
X116840000Y-73660000D03*
X116840000Y-76200000D03*
X119380000Y-73660000D03*
X119380000Y-76200000D03*
X121920000Y-73660000D03*
X121920000Y-76200000D03*
X124460000Y-73660000D03*
X124460000Y-76200000D03*
D12*
X134620000Y-73660000D03*
D13*
X134620000Y-76200000D03*
X137160000Y-73660000D03*
X137160000Y-76200000D03*
X139700000Y-73660000D03*
X139700000Y-76200000D03*
X142240000Y-73660000D03*
X142240000Y-76200000D03*
X144780000Y-73660000D03*
X144780000Y-76200000D03*
X147320000Y-73660000D03*
X147320000Y-76200000D03*
D12*
X157480000Y-73660000D03*
D13*
X157480000Y-76200000D03*
X160020000Y-73660000D03*
X160020000Y-76200000D03*
X162560000Y-73660000D03*
X162560000Y-76200000D03*
X165100000Y-73660000D03*
X165100000Y-76200000D03*
X167640000Y-73660000D03*
X167640000Y-76200000D03*
X170180000Y-73660000D03*
X170180000Y-76200000D03*
D14*
X167640000Y-60960000D03*
D15*
X167640000Y-63500000D03*
X165100000Y-60960000D03*
X165100000Y-63500000D03*
X162560000Y-60960000D03*
X162560000Y-63500000D03*
X160020000Y-60960000D03*
X160020000Y-63500000D03*
X157480000Y-60960000D03*
X157480000Y-63500000D03*
X154940000Y-60960000D03*
X154940000Y-63500000D03*
D12*
X170180000Y-50800000D03*
D13*
X170180000Y-48260000D03*
X167640000Y-50800000D03*
X167640000Y-48260000D03*
X165100000Y-50800000D03*
X165100000Y-48260000D03*
X162560000Y-50800000D03*
X162560000Y-48260000D03*
X160020000Y-50800000D03*
X160020000Y-48260000D03*
X157480000Y-50800000D03*
X157480000Y-48260000D03*
D12*
X147320000Y-50800000D03*
D13*
X147320000Y-48260000D03*
X144780000Y-50800000D03*
X144780000Y-48260000D03*
X142240000Y-50800000D03*
X142240000Y-48260000D03*
X139700000Y-50800000D03*
X139700000Y-48260000D03*
X137160000Y-50800000D03*
X137160000Y-48260000D03*
X134620000Y-50800000D03*
X134620000Y-48260000D03*
D12*
X124460000Y-50800000D03*
D13*
X124460000Y-48260000D03*
X121920000Y-50800000D03*
X121920000Y-48260000D03*
X119380000Y-50800000D03*
X119380000Y-48260000D03*
X116840000Y-50800000D03*
X116840000Y-48260000D03*
X114300000Y-50800000D03*
X114300000Y-48260000D03*
X111760000Y-50800000D03*
X111760000Y-48260000D03*
D12*
X101600000Y-50800000D03*
D13*
X101600000Y-48260000D03*
X99060000Y-50800000D03*
X99060000Y-48260000D03*
X96520000Y-50800000D03*
X96520000Y-48260000D03*
X93980000Y-50800000D03*
X93980000Y-48260000D03*
X91440000Y-50800000D03*
X91440000Y-48260000D03*
X88900000Y-50800000D03*
X88900000Y-48260000D03*
D11*
X129540000Y-49530000D03*
X106680000Y-49530000D03*
X152400000Y-81915000D03*
X129540000Y-81915000D03*
X99060000Y-81915000D03*
%LPD*%
M02*
