M48
; DRILL file {KiCad 7.0.11-7.0.11~ubuntu20.04.1} date sob 17 avg 2024 23:29:14
; FORMAT={-:-/ absolute / metric / decimal}
; #@! TF.CreationDate,2024-08-17T23:29:14+02:00
; #@! TF.GenerationSoftware,Kicad,Pcbnew,7.0.11-7.0.11~ubuntu20.04.1
; #@! TF.FileFunction,Plated,1,2,PTH
FMAT,2
METRIC
; #@! TA.AperFunction,Plated,PTH,ComponentDrill
T1C1.000
%
G90
G05
T1
X88.9Y-48.26
X88.9Y-50.8
X91.44Y-48.26
X91.44Y-50.8
X93.98Y-48.26
X93.98Y-50.8
X96.52Y-48.26
X96.52Y-50.8
X99.06Y-48.26
X99.06Y-50.8
X101.6Y-48.26
X101.6Y-50.8
X104.14Y-73.66
X104.14Y-76.2
X106.68Y-73.66
X106.68Y-76.2
X109.22Y-73.66
X109.22Y-76.2
X111.76Y-48.26
X111.76Y-50.8
X111.76Y-73.66
X111.76Y-76.2
X114.3Y-48.26
X114.3Y-50.8
X114.3Y-73.66
X114.3Y-76.2
X116.84Y-48.26
X116.84Y-50.8
X116.84Y-73.66
X116.84Y-76.2
X119.38Y-48.26
X119.38Y-50.8
X119.38Y-73.66
X119.38Y-76.2
X121.92Y-48.26
X121.92Y-50.8
X121.92Y-73.66
X121.92Y-76.2
X124.46Y-48.26
X124.46Y-50.8
X124.46Y-73.66
X124.46Y-76.2
X134.62Y-48.26
X134.62Y-50.8
X134.62Y-73.66
X134.62Y-76.2
X137.16Y-48.26
X137.16Y-50.8
X137.16Y-73.66
X137.16Y-76.2
X139.7Y-48.26
X139.7Y-50.8
X139.7Y-73.66
X139.7Y-76.2
X142.24Y-48.26
X142.24Y-50.8
X142.24Y-73.66
X142.24Y-76.2
X144.78Y-48.26
X144.78Y-50.8
X144.78Y-73.66
X144.78Y-76.2
X147.32Y-48.26
X147.32Y-50.8
X147.32Y-73.66
X147.32Y-76.2
X154.94Y-60.96
X154.94Y-63.5
X157.48Y-48.26
X157.48Y-50.8
X157.48Y-60.96
X157.48Y-63.5
X157.48Y-73.66
X157.48Y-76.2
X160.02Y-48.26
X160.02Y-50.8
X160.02Y-60.96
X160.02Y-63.5
X160.02Y-73.66
X160.02Y-76.2
X162.56Y-48.26
X162.56Y-50.8
X162.56Y-60.96
X162.56Y-63.5
X162.56Y-73.66
X162.56Y-76.2
X165.1Y-48.26
X165.1Y-50.8
X165.1Y-60.96
X165.1Y-63.5
X165.1Y-73.66
X165.1Y-76.2
X167.64Y-48.26
X167.64Y-50.8
X167.64Y-60.96
X167.64Y-63.5
X167.64Y-73.66
X167.64Y-76.2
X170.18Y-48.26
X170.18Y-50.8
X170.18Y-73.66
X170.18Y-76.2
M30
