G04 #@! TF.GenerationSoftware,KiCad,Pcbnew,7.0.11-7.0.11~ubuntu20.04.1*
G04 #@! TF.CreationDate,2024-08-17T23:29:03+02:00*
G04 #@! TF.ProjectId,kicad-kria-4x-pmod,6b696361-642d-46b7-9269-612d34782d70,1.0*
G04 #@! TF.SameCoordinates,Original*
G04 #@! TF.FileFunction,Copper,L1,Top*
G04 #@! TF.FilePolarity,Positive*
%FSLAX46Y46*%
G04 Gerber Fmt 4.6, Leading zero omitted, Abs format (unit mm)*
G04 Created by KiCad (PCBNEW 7.0.11-7.0.11~ubuntu20.04.1) date 2024-08-17 23:29:03*
%MOMM*%
%LPD*%
G01*
G04 APERTURE LIST*
G04 Aperture macros list*
%AMRoundRect*
0 Rectangle with rounded corners*
0 $1 Rounding radius*
0 $2 $3 $4 $5 $6 $7 $8 $9 X,Y pos of 4 corners*
0 Add a 4 corners polygon primitive as box body*
4,1,4,$2,$3,$4,$5,$6,$7,$8,$9,$2,$3,0*
0 Add four circle primitives for the rounded corners*
1,1,$1+$1,$2,$3*
1,1,$1+$1,$4,$5*
1,1,$1+$1,$6,$7*
1,1,$1+$1,$8,$9*
0 Add four rect primitives between the rounded corners*
20,1,$1+$1,$2,$3,$4,$5,0*
20,1,$1+$1,$4,$5,$6,$7,0*
20,1,$1+$1,$6,$7,$8,$9,0*
20,1,$1+$1,$8,$9,$2,$3,0*%
G04 Aperture macros list end*
G04 #@! TA.AperFunction,ComponentPad*
%ADD10R,1.700000X1.700000*%
G04 #@! TD*
G04 #@! TA.AperFunction,ComponentPad*
%ADD11O,1.700000X1.700000*%
G04 #@! TD*
G04 #@! TA.AperFunction,ComponentPad*
%ADD12RoundRect,0.250000X-0.600000X0.600000X-0.600000X-0.600000X0.600000X-0.600000X0.600000X0.600000X0*%
G04 #@! TD*
G04 #@! TA.AperFunction,ComponentPad*
%ADD13C,1.700000*%
G04 #@! TD*
G04 #@! TA.AperFunction,SMDPad,CuDef*
%ADD14RoundRect,0.237500X-0.300000X-0.237500X0.300000X-0.237500X0.300000X0.237500X-0.300000X0.237500X0*%
G04 #@! TD*
G04 #@! TA.AperFunction,SMDPad,CuDef*
%ADD15RoundRect,0.237500X0.237500X-0.300000X0.237500X0.300000X-0.237500X0.300000X-0.237500X-0.300000X0*%
G04 #@! TD*
G04 #@! TA.AperFunction,Conductor*
%ADD16C,0.750000*%
G04 #@! TD*
G04 #@! TA.AperFunction,Conductor*
%ADD17C,0.250000*%
G04 #@! TD*
G04 APERTURE END LIST*
D10*
X104140000Y-73660000D03*
D11*
X104140000Y-76200000D03*
X106680000Y-73660000D03*
X106680000Y-76200000D03*
X109220000Y-73660000D03*
X109220000Y-76200000D03*
X111760000Y-73660000D03*
X111760000Y-76200000D03*
X114300000Y-73660000D03*
X114300000Y-76200000D03*
X116840000Y-73660000D03*
X116840000Y-76200000D03*
X119380000Y-73660000D03*
X119380000Y-76200000D03*
X121920000Y-73660000D03*
X121920000Y-76200000D03*
X124460000Y-73660000D03*
X124460000Y-76200000D03*
D10*
X134620000Y-73660000D03*
D11*
X134620000Y-76200000D03*
X137160000Y-73660000D03*
X137160000Y-76200000D03*
X139700000Y-73660000D03*
X139700000Y-76200000D03*
X142240000Y-73660000D03*
X142240000Y-76200000D03*
X144780000Y-73660000D03*
X144780000Y-76200000D03*
X147320000Y-73660000D03*
X147320000Y-76200000D03*
D10*
X157480000Y-73660000D03*
D11*
X157480000Y-76200000D03*
X160020000Y-73660000D03*
X160020000Y-76200000D03*
X162560000Y-73660000D03*
X162560000Y-76200000D03*
X165100000Y-73660000D03*
X165100000Y-76200000D03*
X167640000Y-73660000D03*
X167640000Y-76200000D03*
X170180000Y-73660000D03*
X170180000Y-76200000D03*
D12*
X167640000Y-60960000D03*
D13*
X167640000Y-63500000D03*
X165100000Y-60960000D03*
X165100000Y-63500000D03*
X162560000Y-60960000D03*
X162560000Y-63500000D03*
X160020000Y-60960000D03*
X160020000Y-63500000D03*
X157480000Y-60960000D03*
X157480000Y-63500000D03*
X154940000Y-60960000D03*
X154940000Y-63500000D03*
D10*
X170180000Y-50800000D03*
D11*
X170180000Y-48260000D03*
X167640000Y-50800000D03*
X167640000Y-48260000D03*
X165100000Y-50800000D03*
X165100000Y-48260000D03*
X162560000Y-50800000D03*
X162560000Y-48260000D03*
X160020000Y-50800000D03*
X160020000Y-48260000D03*
X157480000Y-50800000D03*
X157480000Y-48260000D03*
D10*
X147320000Y-50800000D03*
D11*
X147320000Y-48260000D03*
X144780000Y-50800000D03*
X144780000Y-48260000D03*
X142240000Y-50800000D03*
X142240000Y-48260000D03*
X139700000Y-50800000D03*
X139700000Y-48260000D03*
X137160000Y-50800000D03*
X137160000Y-48260000D03*
X134620000Y-50800000D03*
X134620000Y-48260000D03*
D10*
X124460000Y-50800000D03*
D11*
X124460000Y-48260000D03*
X121920000Y-50800000D03*
X121920000Y-48260000D03*
X119380000Y-50800000D03*
X119380000Y-48260000D03*
X116840000Y-50800000D03*
X116840000Y-48260000D03*
X114300000Y-50800000D03*
X114300000Y-48260000D03*
X111760000Y-50800000D03*
X111760000Y-48260000D03*
D10*
X101600000Y-50800000D03*
D11*
X101600000Y-48260000D03*
X99060000Y-50800000D03*
X99060000Y-48260000D03*
X96520000Y-50800000D03*
X96520000Y-48260000D03*
X93980000Y-50800000D03*
X93980000Y-48260000D03*
X91440000Y-50800000D03*
X91440000Y-48260000D03*
X88900000Y-50800000D03*
X88900000Y-48260000D03*
D14*
X157480000Y-69850000D03*
X159205000Y-69850000D03*
X134620000Y-69850000D03*
X136345000Y-69850000D03*
D15*
X100330000Y-74475000D03*
X100330000Y-76200000D03*
D16*
X90170000Y-45720000D02*
X111760000Y-45720000D01*
X111760000Y-45720000D02*
X134620000Y-45720000D01*
X111760000Y-48260000D02*
X111760000Y-45720000D01*
X134620000Y-45720000D02*
X156845000Y-45720000D01*
X134620000Y-48260000D02*
X134620000Y-45720000D01*
X88900000Y-48260000D02*
X88900000Y-46990000D01*
X157480000Y-46355000D02*
X157480000Y-48260000D01*
X88900000Y-46990000D02*
X90170000Y-45720000D01*
X156845000Y-45720000D02*
X157480000Y-46355000D01*
X134620000Y-50800000D02*
X134620000Y-69850000D01*
X111760000Y-48260000D02*
X111760000Y-50800000D01*
X88900000Y-50800000D02*
X88900000Y-48260000D01*
X100330000Y-76200000D02*
X97155000Y-76200000D01*
X97155000Y-76200000D02*
X88900000Y-67945000D01*
X88900000Y-67945000D02*
X88900000Y-50800000D01*
X104140000Y-76200000D02*
X100330000Y-76200000D01*
X134620000Y-73660000D02*
X134620000Y-69850000D01*
X134620000Y-76200000D02*
X134620000Y-73660000D01*
X134620000Y-48260000D02*
X134620000Y-50800000D01*
X157480000Y-50800000D02*
X157480000Y-53975000D01*
X157480000Y-53975000D02*
X154940000Y-56515000D01*
X154940000Y-56515000D02*
X154940000Y-60960000D01*
X157480000Y-48260000D02*
X157480000Y-50800000D01*
X154940000Y-63500000D02*
X154940000Y-60960000D01*
X157480000Y-69850000D02*
X157480000Y-68580000D01*
X157480000Y-68580000D02*
X154940000Y-66040000D01*
X154940000Y-66040000D02*
X154940000Y-63500000D01*
X157480000Y-69850000D02*
X157480000Y-73660000D01*
X157480000Y-76200000D02*
X157480000Y-73660000D01*
D17*
X160020000Y-67310000D02*
X162560000Y-69850000D01*
X160020000Y-63500000D02*
X160020000Y-67310000D01*
X162560000Y-69850000D02*
X162560000Y-73660000D01*
X160020000Y-60960000D02*
X161290000Y-62230000D01*
X161290000Y-66675000D02*
X163830000Y-69215000D01*
X161290000Y-62230000D02*
X161290000Y-66675000D01*
X163830000Y-69215000D02*
X163830000Y-74930000D01*
X163830000Y-74930000D02*
X162560000Y-76200000D01*
X162560000Y-66040000D02*
X165100000Y-68580000D01*
X162560000Y-63500000D02*
X162560000Y-66040000D01*
X165100000Y-68580000D02*
X165100000Y-73660000D01*
X162560000Y-60960000D02*
X163830000Y-62230000D01*
X163830000Y-62230000D02*
X163830000Y-65405000D01*
X163830000Y-65405000D02*
X166370000Y-67945000D01*
X166370000Y-67945000D02*
X166370000Y-74930000D01*
X166370000Y-74930000D02*
X165100000Y-76200000D01*
X167640000Y-73660000D02*
X167640000Y-67627500D01*
X167640000Y-67627500D02*
X165100000Y-65087500D01*
X165100000Y-65087500D02*
X165100000Y-63500000D01*
X165100000Y-60960000D02*
X166465000Y-62325000D01*
X168910000Y-74930000D02*
X167640000Y-76200000D01*
X166465000Y-62325000D02*
X166465000Y-64230000D01*
X166465000Y-64230000D02*
X168910000Y-66675000D01*
X168910000Y-66675000D02*
X168910000Y-74930000D01*
X171450000Y-74930000D02*
X171450000Y-64770000D01*
X171450000Y-64770000D02*
X167640000Y-60960000D01*
X170180000Y-76200000D02*
X171450000Y-74930000D01*
X170180000Y-73660000D02*
X170180000Y-66040000D01*
X170180000Y-66040000D02*
X167640000Y-63500000D01*
G04 #@! TA.AperFunction,Conductor*
G36*
X137410000Y-75764498D02*
G01*
X137302315Y-75715320D01*
X137195763Y-75700000D01*
X137124237Y-75700000D01*
X137017685Y-75715320D01*
X136910000Y-75764498D01*
X136910000Y-74095501D01*
X137017685Y-74144680D01*
X137124237Y-74160000D01*
X137195763Y-74160000D01*
X137302315Y-74144680D01*
X137410000Y-74095501D01*
X137410000Y-75764498D01*
G37*
G04 #@! TD.AperFunction*
G04 #@! TA.AperFunction,Conductor*
G36*
X160270000Y-75764498D02*
G01*
X160162315Y-75715320D01*
X160055763Y-75700000D01*
X159984237Y-75700000D01*
X159877685Y-75715320D01*
X159770000Y-75764498D01*
X159770000Y-74095501D01*
X159877685Y-74144680D01*
X159984237Y-74160000D01*
X160055763Y-74160000D01*
X160162315Y-74144680D01*
X160270000Y-74095501D01*
X160270000Y-75764498D01*
G37*
G04 #@! TD.AperFunction*
G04 #@! TA.AperFunction,Conductor*
G36*
X157020507Y-63709844D02*
G01*
X157098239Y-63830798D01*
X157206900Y-63924952D01*
X157337685Y-63984680D01*
X157347466Y-63986086D01*
X156718625Y-64614925D01*
X156802421Y-64673599D01*
X157016507Y-64773429D01*
X157016516Y-64773433D01*
X157244673Y-64834567D01*
X157244684Y-64834569D01*
X157479998Y-64855157D01*
X157480002Y-64855157D01*
X157715315Y-64834569D01*
X157715326Y-64834567D01*
X157943483Y-64773433D01*
X157943492Y-64773429D01*
X158157578Y-64673600D01*
X158157582Y-64673598D01*
X158241373Y-64614926D01*
X158241373Y-64614925D01*
X157612533Y-63986086D01*
X157622315Y-63984680D01*
X157753100Y-63924952D01*
X157861761Y-63830798D01*
X157939493Y-63709844D01*
X157963076Y-63629524D01*
X158594925Y-64261373D01*
X158648119Y-64185405D01*
X158702696Y-64141781D01*
X158772195Y-64134588D01*
X158834549Y-64166110D01*
X158851269Y-64185405D01*
X158981505Y-64371401D01*
X159148599Y-64538495D01*
X159341624Y-64673653D01*
X159385248Y-64728228D01*
X159394500Y-64775226D01*
X159394500Y-67227255D01*
X159392775Y-67242872D01*
X159393061Y-67242899D01*
X159392326Y-67250665D01*
X159394439Y-67317872D01*
X159394500Y-67321767D01*
X159394500Y-67349357D01*
X159395003Y-67353335D01*
X159395918Y-67364967D01*
X159397290Y-67408624D01*
X159397291Y-67408627D01*
X159402880Y-67427867D01*
X159406824Y-67446911D01*
X159409336Y-67466792D01*
X159425414Y-67507403D01*
X159429197Y-67518452D01*
X159441381Y-67560388D01*
X159451580Y-67577634D01*
X159460138Y-67595103D01*
X159467514Y-67613732D01*
X159493181Y-67649060D01*
X159499593Y-67658821D01*
X159521828Y-67696417D01*
X159521833Y-67696424D01*
X159535990Y-67710580D01*
X159548628Y-67725376D01*
X159560405Y-67741586D01*
X159560406Y-67741587D01*
X159594057Y-67769425D01*
X159602698Y-67777288D01*
X161898181Y-70072771D01*
X161931666Y-70134094D01*
X161934500Y-70160452D01*
X161934500Y-72384773D01*
X161914815Y-72451812D01*
X161881623Y-72486348D01*
X161688597Y-72621505D01*
X161521508Y-72788594D01*
X161391269Y-72974595D01*
X161336692Y-73018219D01*
X161267193Y-73025412D01*
X161204839Y-72993890D01*
X161188119Y-72974594D01*
X161058113Y-72788926D01*
X161058108Y-72788920D01*
X160891082Y-72621894D01*
X160697578Y-72486399D01*
X160483492Y-72386570D01*
X160483486Y-72386567D01*
X160270000Y-72329364D01*
X160270000Y-73224498D01*
X160162315Y-73175320D01*
X160055763Y-73160000D01*
X159984237Y-73160000D01*
X159877685Y-73175320D01*
X159770000Y-73224498D01*
X159770000Y-72329364D01*
X159769999Y-72329364D01*
X159556513Y-72386567D01*
X159556507Y-72386570D01*
X159342422Y-72486399D01*
X159342420Y-72486400D01*
X159148926Y-72621886D01*
X159026865Y-72743947D01*
X158965542Y-72777431D01*
X158895850Y-72772447D01*
X158839917Y-72730575D01*
X158823002Y-72699598D01*
X158822954Y-72699470D01*
X158773887Y-72567913D01*
X158773797Y-72567671D01*
X158773793Y-72567664D01*
X158687547Y-72452455D01*
X158687544Y-72452452D01*
X158572335Y-72366206D01*
X158572330Y-72366203D01*
X158436166Y-72315417D01*
X158380233Y-72273545D01*
X158355816Y-72208081D01*
X158355500Y-72199235D01*
X158355500Y-70837248D01*
X158375185Y-70770209D01*
X158427989Y-70724454D01*
X158497147Y-70714510D01*
X158544597Y-70731710D01*
X158591188Y-70760448D01*
X158591199Y-70760453D01*
X158754847Y-70814680D01*
X158855851Y-70824999D01*
X158955000Y-70824998D01*
X158955000Y-70100000D01*
X159455000Y-70100000D01*
X159455000Y-70824999D01*
X159554140Y-70824999D01*
X159554154Y-70824998D01*
X159655152Y-70814680D01*
X159818800Y-70760453D01*
X159818811Y-70760448D01*
X159965534Y-70669947D01*
X159965538Y-70669944D01*
X160087444Y-70548038D01*
X160087447Y-70548034D01*
X160177948Y-70401311D01*
X160177953Y-70401300D01*
X160232180Y-70237652D01*
X160242499Y-70136654D01*
X160242500Y-70136641D01*
X160242500Y-70100000D01*
X159455000Y-70100000D01*
X158955000Y-70100000D01*
X158955000Y-68875000D01*
X159455000Y-68875000D01*
X159455000Y-69600000D01*
X160242499Y-69600000D01*
X160242499Y-69563360D01*
X160242498Y-69563345D01*
X160232180Y-69462347D01*
X160177953Y-69298699D01*
X160177948Y-69298688D01*
X160087447Y-69151965D01*
X160087444Y-69151961D01*
X159965538Y-69030055D01*
X159965534Y-69030052D01*
X159818811Y-68939551D01*
X159818800Y-68939546D01*
X159655152Y-68885319D01*
X159554154Y-68875000D01*
X159455000Y-68875000D01*
X158955000Y-68875000D01*
X158955000Y-68874999D01*
X158855860Y-68875000D01*
X158855844Y-68875001D01*
X158754847Y-68885319D01*
X158591199Y-68939546D01*
X158591190Y-68939551D01*
X158544596Y-68968290D01*
X158477203Y-68986730D01*
X158410540Y-68965807D01*
X158365771Y-68912165D01*
X158355500Y-68862751D01*
X158355500Y-68620617D01*
X158355909Y-68610552D01*
X158360339Y-68556152D01*
X158349309Y-68475199D01*
X158348901Y-68471865D01*
X158346824Y-68452765D01*
X158340073Y-68390684D01*
X158340015Y-68390512D01*
X158334655Y-68367641D01*
X158334631Y-68367462D01*
X158306445Y-68290743D01*
X158305352Y-68287638D01*
X158287883Y-68235793D01*
X158279267Y-68210220D01*
X158279168Y-68210055D01*
X158269022Y-68188879D01*
X158268961Y-68188715D01*
X158268960Y-68188712D01*
X158224951Y-68119859D01*
X158223205Y-68117044D01*
X158184744Y-68053120D01*
X158181091Y-68047049D01*
X158181090Y-68047048D01*
X158181089Y-68047046D01*
X158180955Y-68046904D01*
X158166504Y-68028419D01*
X158166400Y-68028256D01*
X158108658Y-67970514D01*
X158106316Y-67968109D01*
X158105939Y-67967711D01*
X158050129Y-67908793D01*
X158049970Y-67908685D01*
X158031877Y-67893733D01*
X155851819Y-65713675D01*
X155818334Y-65652352D01*
X155815500Y-65625994D01*
X155815500Y-64585758D01*
X155835185Y-64518719D01*
X155851819Y-64498077D01*
X155883628Y-64466268D01*
X155978495Y-64371401D01*
X156108732Y-64185403D01*
X156163307Y-64141780D01*
X156232805Y-64134586D01*
X156295160Y-64166109D01*
X156311880Y-64185405D01*
X156365073Y-64261373D01*
X156996923Y-63629523D01*
X157020507Y-63709844D01*
G37*
G04 #@! TD.AperFunction*
G04 #@! TA.AperFunction,Conductor*
G36*
X157020507Y-61169844D02*
G01*
X157098239Y-61290798D01*
X157206900Y-61384952D01*
X157337685Y-61444680D01*
X157347466Y-61446086D01*
X156718625Y-62074925D01*
X156795031Y-62128425D01*
X156838655Y-62183002D01*
X156845848Y-62252501D01*
X156814326Y-62314855D01*
X156795029Y-62331576D01*
X156718625Y-62385072D01*
X157347466Y-63013913D01*
X157337685Y-63015320D01*
X157206900Y-63075048D01*
X157098239Y-63169202D01*
X157020507Y-63290156D01*
X156996923Y-63370475D01*
X156365073Y-62738626D01*
X156311881Y-62814594D01*
X156257304Y-62858219D01*
X156187806Y-62865413D01*
X156125451Y-62833891D01*
X156108730Y-62814594D01*
X155978494Y-62628597D01*
X155851819Y-62501922D01*
X155818334Y-62440599D01*
X155815500Y-62414241D01*
X155815500Y-62045758D01*
X155835185Y-61978719D01*
X155851819Y-61958077D01*
X155978495Y-61831401D01*
X156108732Y-61645403D01*
X156163307Y-61601780D01*
X156232805Y-61594586D01*
X156295160Y-61626109D01*
X156311880Y-61645405D01*
X156365073Y-61721373D01*
X156996923Y-61089523D01*
X157020507Y-61169844D01*
G37*
G04 #@! TD.AperFunction*
G04 #@! TA.AperFunction,Conductor*
G36*
X158594925Y-61721373D02*
G01*
X158648119Y-61645405D01*
X158702696Y-61601781D01*
X158772195Y-61594588D01*
X158834549Y-61626110D01*
X158851269Y-61645405D01*
X158981505Y-61831401D01*
X158981506Y-61831402D01*
X159148597Y-61998493D01*
X159148603Y-61998498D01*
X159334158Y-62128425D01*
X159377783Y-62183002D01*
X159384977Y-62252500D01*
X159353454Y-62314855D01*
X159334158Y-62331575D01*
X159148597Y-62461505D01*
X158981505Y-62628597D01*
X158851269Y-62814595D01*
X158796692Y-62858220D01*
X158727194Y-62865414D01*
X158664839Y-62833891D01*
X158648119Y-62814595D01*
X158594925Y-62738626D01*
X158594925Y-62738625D01*
X157963076Y-63370475D01*
X157939493Y-63290156D01*
X157861761Y-63169202D01*
X157753100Y-63075048D01*
X157622315Y-63015320D01*
X157612533Y-63013913D01*
X158241373Y-62385073D01*
X158164969Y-62331576D01*
X158121344Y-62276999D01*
X158114150Y-62207501D01*
X158145672Y-62145146D01*
X158164968Y-62128425D01*
X158241373Y-62074925D01*
X157612533Y-61446086D01*
X157622315Y-61444680D01*
X157753100Y-61384952D01*
X157861761Y-61290798D01*
X157939493Y-61169844D01*
X157963076Y-61089524D01*
X158594925Y-61721373D01*
G37*
G04 #@! TD.AperFunction*
G04 #@! TA.AperFunction,Conductor*
G36*
X91690000Y-50364498D02*
G01*
X91582315Y-50315320D01*
X91475763Y-50300000D01*
X91404237Y-50300000D01*
X91297685Y-50315320D01*
X91190000Y-50364498D01*
X91190000Y-48695501D01*
X91297685Y-48744680D01*
X91404237Y-48760000D01*
X91475763Y-48760000D01*
X91582315Y-48744680D01*
X91690000Y-48695501D01*
X91690000Y-50364498D01*
G37*
G04 #@! TD.AperFunction*
G04 #@! TA.AperFunction,Conductor*
G36*
X114550000Y-50364498D02*
G01*
X114442315Y-50315320D01*
X114335763Y-50300000D01*
X114264237Y-50300000D01*
X114157685Y-50315320D01*
X114050000Y-50364498D01*
X114050000Y-48695501D01*
X114157685Y-48744680D01*
X114264237Y-48760000D01*
X114335763Y-48760000D01*
X114442315Y-48744680D01*
X114550000Y-48695501D01*
X114550000Y-50364498D01*
G37*
G04 #@! TD.AperFunction*
G04 #@! TA.AperFunction,Conductor*
G36*
X137410000Y-50364498D02*
G01*
X137302315Y-50315320D01*
X137195763Y-50300000D01*
X137124237Y-50300000D01*
X137017685Y-50315320D01*
X136910000Y-50364498D01*
X136910000Y-48695501D01*
X137017685Y-48744680D01*
X137124237Y-48760000D01*
X137195763Y-48760000D01*
X137302315Y-48744680D01*
X137410000Y-48695501D01*
X137410000Y-50364498D01*
G37*
G04 #@! TD.AperFunction*
G04 #@! TA.AperFunction,Conductor*
G36*
X160270000Y-50364498D02*
G01*
X160162315Y-50315320D01*
X160055763Y-50300000D01*
X159984237Y-50300000D01*
X159877685Y-50315320D01*
X159770000Y-50364498D01*
X159770000Y-48695501D01*
X159877685Y-48744680D01*
X159984237Y-48760000D01*
X160055763Y-48760000D01*
X160162315Y-48744680D01*
X160270000Y-48695501D01*
X160270000Y-50364498D01*
G37*
G04 #@! TD.AperFunction*
G04 #@! TA.AperFunction,Conductor*
G36*
X174631912Y-44451278D02*
G01*
X174650299Y-44453350D01*
X174652404Y-44453607D01*
X174763499Y-44468233D01*
X174788249Y-44474126D01*
X174830803Y-44489017D01*
X174837255Y-44491480D01*
X174910533Y-44521833D01*
X174929028Y-44531387D01*
X174971975Y-44558372D01*
X174981481Y-44564985D01*
X175040274Y-44610098D01*
X175052469Y-44620793D01*
X175089205Y-44657529D01*
X175099900Y-44669724D01*
X175145013Y-44728517D01*
X175151630Y-44738029D01*
X175178607Y-44780962D01*
X175188172Y-44799478D01*
X175218510Y-44872722D01*
X175220990Y-44879219D01*
X175235869Y-44921740D01*
X175241767Y-44946510D01*
X175256381Y-45057517D01*
X175256661Y-45059801D01*
X175258720Y-45078085D01*
X175259500Y-45091959D01*
X175259500Y-85718039D01*
X175258721Y-85731915D01*
X175257239Y-85745065D01*
X175256662Y-85750186D01*
X175256381Y-85752481D01*
X175241767Y-85863488D01*
X175235869Y-85888258D01*
X175220990Y-85930779D01*
X175218510Y-85937276D01*
X175188172Y-86010520D01*
X175178604Y-86029042D01*
X175151630Y-86071969D01*
X175145013Y-86081481D01*
X175099900Y-86140274D01*
X175089205Y-86152469D01*
X175052469Y-86189205D01*
X175040274Y-86199900D01*
X174981481Y-86245013D01*
X174971969Y-86251630D01*
X174929042Y-86278604D01*
X174910520Y-86288172D01*
X174837276Y-86318510D01*
X174830779Y-86320990D01*
X174788258Y-86335869D01*
X174763488Y-86341767D01*
X174652481Y-86356381D01*
X174650187Y-86356662D01*
X174647503Y-86356964D01*
X174631914Y-86358720D01*
X174618040Y-86359500D01*
X84461960Y-86359500D01*
X84448083Y-86358720D01*
X84433203Y-86357044D01*
X84429813Y-86356662D01*
X84427517Y-86356381D01*
X84316510Y-86341767D01*
X84291740Y-86335869D01*
X84249219Y-86320990D01*
X84242722Y-86318510D01*
X84192748Y-86297810D01*
X84169475Y-86288170D01*
X84150962Y-86278607D01*
X84108029Y-86251630D01*
X84098517Y-86245013D01*
X84039724Y-86199900D01*
X84027529Y-86189205D01*
X83990793Y-86152469D01*
X83980098Y-86140274D01*
X83934985Y-86081481D01*
X83928368Y-86071969D01*
X83901387Y-86029028D01*
X83891833Y-86010533D01*
X83861480Y-85937255D01*
X83859017Y-85930803D01*
X83844126Y-85888249D01*
X83838233Y-85863499D01*
X83823607Y-85752404D01*
X83823350Y-85750299D01*
X83821278Y-85731912D01*
X83820500Y-85718037D01*
X83820500Y-82039334D01*
X97559500Y-82039334D01*
X97600429Y-82284616D01*
X97681169Y-82519802D01*
X97681172Y-82519811D01*
X97799524Y-82738506D01*
X97799526Y-82738509D01*
X97952262Y-82934744D01*
X98111744Y-83081557D01*
X98135217Y-83103166D01*
X98343393Y-83239173D01*
X98571118Y-83339063D01*
X98812175Y-83400107D01*
X98812179Y-83400108D01*
X98812181Y-83400108D01*
X98812186Y-83400109D01*
X98965589Y-83412819D01*
X98997933Y-83415500D01*
X98997937Y-83415500D01*
X99122063Y-83415500D01*
X99122067Y-83415500D01*
X99184677Y-83410311D01*
X99307813Y-83400109D01*
X99307816Y-83400108D01*
X99307821Y-83400108D01*
X99548881Y-83339063D01*
X99776607Y-83239173D01*
X99984785Y-83103164D01*
X100167738Y-82934744D01*
X100320474Y-82738509D01*
X100438828Y-82519810D01*
X100519571Y-82284614D01*
X100560500Y-82039335D01*
X100560500Y-82039334D01*
X128039500Y-82039334D01*
X128080429Y-82284616D01*
X128161169Y-82519802D01*
X128161172Y-82519811D01*
X128279524Y-82738506D01*
X128279526Y-82738509D01*
X128432262Y-82934744D01*
X128591744Y-83081557D01*
X128615217Y-83103166D01*
X128823393Y-83239173D01*
X129051118Y-83339063D01*
X129292175Y-83400107D01*
X129292179Y-83400108D01*
X129292181Y-83400108D01*
X129292186Y-83400109D01*
X129445589Y-83412819D01*
X129477933Y-83415500D01*
X129477937Y-83415500D01*
X129602063Y-83415500D01*
X129602067Y-83415500D01*
X129664677Y-83410311D01*
X129787813Y-83400109D01*
X129787816Y-83400108D01*
X129787821Y-83400108D01*
X130028881Y-83339063D01*
X130256607Y-83239173D01*
X130464785Y-83103164D01*
X130647738Y-82934744D01*
X130800474Y-82738509D01*
X130918828Y-82519810D01*
X130999571Y-82284614D01*
X131040500Y-82039335D01*
X131040500Y-82039334D01*
X150899500Y-82039334D01*
X150940429Y-82284616D01*
X151021169Y-82519802D01*
X151021172Y-82519811D01*
X151139524Y-82738506D01*
X151139526Y-82738509D01*
X151292262Y-82934744D01*
X151451744Y-83081557D01*
X151475217Y-83103166D01*
X151683393Y-83239173D01*
X151911118Y-83339063D01*
X152152175Y-83400107D01*
X152152179Y-83400108D01*
X152152181Y-83400108D01*
X152152186Y-83400109D01*
X152305589Y-83412819D01*
X152337933Y-83415500D01*
X152337937Y-83415500D01*
X152462063Y-83415500D01*
X152462067Y-83415500D01*
X152524677Y-83410311D01*
X152647813Y-83400109D01*
X152647816Y-83400108D01*
X152647821Y-83400108D01*
X152888881Y-83339063D01*
X153116607Y-83239173D01*
X153324785Y-83103164D01*
X153507738Y-82934744D01*
X153660474Y-82738509D01*
X153778828Y-82519810D01*
X153859571Y-82284614D01*
X153900500Y-82039335D01*
X153900500Y-81790665D01*
X153859571Y-81545386D01*
X153778828Y-81310190D01*
X153660474Y-81091491D01*
X153507738Y-80895256D01*
X153324785Y-80726836D01*
X153324782Y-80726833D01*
X153116606Y-80590826D01*
X152888881Y-80490936D01*
X152647824Y-80429892D01*
X152647813Y-80429890D01*
X152462077Y-80414500D01*
X152462067Y-80414500D01*
X152337933Y-80414500D01*
X152337922Y-80414500D01*
X152152186Y-80429890D01*
X152152175Y-80429892D01*
X151911118Y-80490936D01*
X151683393Y-80590826D01*
X151475217Y-80726833D01*
X151292261Y-80895257D01*
X151139524Y-81091493D01*
X151021172Y-81310188D01*
X151021169Y-81310197D01*
X150940429Y-81545383D01*
X150899500Y-81790665D01*
X150899500Y-82039334D01*
X131040500Y-82039334D01*
X131040500Y-81790665D01*
X130999571Y-81545386D01*
X130918828Y-81310190D01*
X130800474Y-81091491D01*
X130647738Y-80895256D01*
X130464785Y-80726836D01*
X130464782Y-80726833D01*
X130256606Y-80590826D01*
X130028881Y-80490936D01*
X129787824Y-80429892D01*
X129787813Y-80429890D01*
X129602077Y-80414500D01*
X129602067Y-80414500D01*
X129477933Y-80414500D01*
X129477922Y-80414500D01*
X129292186Y-80429890D01*
X129292175Y-80429892D01*
X129051118Y-80490936D01*
X128823393Y-80590826D01*
X128615217Y-80726833D01*
X128432261Y-80895257D01*
X128279524Y-81091493D01*
X128161172Y-81310188D01*
X128161169Y-81310197D01*
X128080429Y-81545383D01*
X128039500Y-81790665D01*
X128039500Y-82039334D01*
X100560500Y-82039334D01*
X100560500Y-81790665D01*
X100519571Y-81545386D01*
X100438828Y-81310190D01*
X100320474Y-81091491D01*
X100167738Y-80895256D01*
X99984785Y-80726836D01*
X99984782Y-80726833D01*
X99776606Y-80590826D01*
X99548881Y-80490936D01*
X99307824Y-80429892D01*
X99307813Y-80429890D01*
X99122077Y-80414500D01*
X99122067Y-80414500D01*
X98997933Y-80414500D01*
X98997922Y-80414500D01*
X98812186Y-80429890D01*
X98812175Y-80429892D01*
X98571118Y-80490936D01*
X98343393Y-80590826D01*
X98135217Y-80726833D01*
X97952261Y-80895257D01*
X97799524Y-81091493D01*
X97681172Y-81310188D01*
X97681169Y-81310197D01*
X97600429Y-81545383D01*
X97559500Y-81790665D01*
X97559500Y-82039334D01*
X83820500Y-82039334D01*
X83820500Y-50800000D01*
X87544341Y-50800000D01*
X87564936Y-51035403D01*
X87564938Y-51035413D01*
X87626094Y-51263655D01*
X87626096Y-51263659D01*
X87626097Y-51263663D01*
X87705801Y-51434588D01*
X87725965Y-51477830D01*
X87725967Y-51477834D01*
X87834281Y-51632521D01*
X87861504Y-51671400D01*
X87861506Y-51671402D01*
X87988181Y-51798077D01*
X88021666Y-51859400D01*
X88024500Y-51885758D01*
X88024500Y-67904378D01*
X88024091Y-67914442D01*
X88019660Y-67968845D01*
X88030688Y-68049790D01*
X88031096Y-68053120D01*
X88039927Y-68134316D01*
X88039929Y-68134327D01*
X88039990Y-68134506D01*
X88045340Y-68157331D01*
X88045366Y-68157525D01*
X88045369Y-68157537D01*
X88073540Y-68234219D01*
X88074655Y-68237385D01*
X88100731Y-68314776D01*
X88100734Y-68314782D01*
X88100832Y-68314945D01*
X88110969Y-68336099D01*
X88111036Y-68336283D01*
X88111040Y-68336290D01*
X88155046Y-68405139D01*
X88156809Y-68407981D01*
X88197253Y-68475199D01*
X88198912Y-68477955D01*
X88199042Y-68478092D01*
X88213492Y-68496575D01*
X88213600Y-68496744D01*
X88271395Y-68554539D01*
X88273702Y-68556910D01*
X88329866Y-68616203D01*
X88329868Y-68616204D01*
X88329871Y-68616207D01*
X88330028Y-68616314D01*
X88348121Y-68631265D01*
X96507199Y-76790343D01*
X96514026Y-76797749D01*
X96549361Y-76839350D01*
X96549368Y-76839355D01*
X96549369Y-76839357D01*
X96614428Y-76888813D01*
X96617012Y-76890832D01*
X96644099Y-76912606D01*
X96680702Y-76942030D01*
X96680872Y-76942114D01*
X96700814Y-76954483D01*
X96700971Y-76954602D01*
X96775143Y-76988917D01*
X96778120Y-76990344D01*
X96851307Y-77026641D01*
X96851481Y-77026684D01*
X96873626Y-77034480D01*
X96873803Y-77034562D01*
X96953579Y-77052121D01*
X96956827Y-77052882D01*
X97036111Y-77072600D01*
X97036284Y-77072604D01*
X97059602Y-77075460D01*
X97059784Y-77075500D01*
X97141463Y-77075500D01*
X97144821Y-77075545D01*
X97226473Y-77077757D01*
X97226655Y-77077721D01*
X97250023Y-77075500D01*
X99584584Y-77075500D01*
X99649679Y-77093960D01*
X99778484Y-77173408D01*
X99942247Y-77227674D01*
X100043323Y-77238000D01*
X100616676Y-77237999D01*
X100616684Y-77237998D01*
X100616687Y-77237998D01*
X100672030Y-77232344D01*
X100717753Y-77227674D01*
X100881516Y-77173408D01*
X101010320Y-77093960D01*
X101075416Y-77075500D01*
X103054242Y-77075500D01*
X103121281Y-77095185D01*
X103141923Y-77111819D01*
X103268599Y-77238495D01*
X103365384Y-77306265D01*
X103462165Y-77374032D01*
X103462167Y-77374033D01*
X103462170Y-77374035D01*
X103676337Y-77473903D01*
X103904592Y-77535063D01*
X104092918Y-77551539D01*
X104139999Y-77555659D01*
X104140000Y-77555659D01*
X104140001Y-77555659D01*
X104179234Y-77552226D01*
X104375408Y-77535063D01*
X104603663Y-77473903D01*
X104817830Y-77374035D01*
X105011401Y-77238495D01*
X105178495Y-77071401D01*
X105292891Y-76908026D01*
X105308425Y-76885842D01*
X105363002Y-76842217D01*
X105432500Y-76835023D01*
X105494855Y-76866546D01*
X105511575Y-76885842D01*
X105641500Y-77071395D01*
X105641505Y-77071401D01*
X105808599Y-77238495D01*
X105905384Y-77306265D01*
X106002165Y-77374032D01*
X106002167Y-77374033D01*
X106002170Y-77374035D01*
X106216337Y-77473903D01*
X106444592Y-77535063D01*
X106632918Y-77551539D01*
X106679999Y-77555659D01*
X106680000Y-77555659D01*
X106680001Y-77555659D01*
X106719234Y-77552226D01*
X106915408Y-77535063D01*
X107143663Y-77473903D01*
X107357830Y-77374035D01*
X107551401Y-77238495D01*
X107718495Y-77071401D01*
X107832891Y-76908026D01*
X107848425Y-76885842D01*
X107903002Y-76842217D01*
X107972500Y-76835023D01*
X108034855Y-76866546D01*
X108051575Y-76885842D01*
X108181500Y-77071395D01*
X108181505Y-77071401D01*
X108348599Y-77238495D01*
X108445384Y-77306265D01*
X108542165Y-77374032D01*
X108542167Y-77374033D01*
X108542170Y-77374035D01*
X108756337Y-77473903D01*
X108984592Y-77535063D01*
X109172918Y-77551539D01*
X109219999Y-77555659D01*
X109220000Y-77555659D01*
X109220001Y-77555659D01*
X109259234Y-77552226D01*
X109455408Y-77535063D01*
X109683663Y-77473903D01*
X109897830Y-77374035D01*
X110091401Y-77238495D01*
X110258495Y-77071401D01*
X110372891Y-76908026D01*
X110388425Y-76885842D01*
X110443002Y-76842217D01*
X110512500Y-76835023D01*
X110574855Y-76866546D01*
X110591575Y-76885842D01*
X110721500Y-77071395D01*
X110721505Y-77071401D01*
X110888599Y-77238495D01*
X110985384Y-77306265D01*
X111082165Y-77374032D01*
X111082167Y-77374033D01*
X111082170Y-77374035D01*
X111296337Y-77473903D01*
X111524592Y-77535063D01*
X111712918Y-77551539D01*
X111759999Y-77555659D01*
X111760000Y-77555659D01*
X111760001Y-77555659D01*
X111799234Y-77552226D01*
X111995408Y-77535063D01*
X112223663Y-77473903D01*
X112437830Y-77374035D01*
X112631401Y-77238495D01*
X112798495Y-77071401D01*
X112912891Y-76908026D01*
X112928425Y-76885842D01*
X112983002Y-76842217D01*
X113052500Y-76835023D01*
X113114855Y-76866546D01*
X113131575Y-76885842D01*
X113261500Y-77071395D01*
X113261505Y-77071401D01*
X113428599Y-77238495D01*
X113525384Y-77306265D01*
X113622165Y-77374032D01*
X113622167Y-77374033D01*
X113622170Y-77374035D01*
X113836337Y-77473903D01*
X114064592Y-77535063D01*
X114252918Y-77551539D01*
X114299999Y-77555659D01*
X114300000Y-77555659D01*
X114300001Y-77555659D01*
X114339234Y-77552226D01*
X114535408Y-77535063D01*
X114763663Y-77473903D01*
X114977830Y-77374035D01*
X115171401Y-77238495D01*
X115338495Y-77071401D01*
X115452891Y-76908026D01*
X115468425Y-76885842D01*
X115523002Y-76842217D01*
X115592500Y-76835023D01*
X115654855Y-76866546D01*
X115671575Y-76885842D01*
X115801500Y-77071395D01*
X115801505Y-77071401D01*
X115968599Y-77238495D01*
X116065384Y-77306265D01*
X116162165Y-77374032D01*
X116162167Y-77374033D01*
X116162170Y-77374035D01*
X116376337Y-77473903D01*
X116604592Y-77535063D01*
X116792918Y-77551539D01*
X116839999Y-77555659D01*
X116840000Y-77555659D01*
X116840001Y-77555659D01*
X116879234Y-77552226D01*
X117075408Y-77535063D01*
X117303663Y-77473903D01*
X117517830Y-77374035D01*
X117711401Y-77238495D01*
X117878495Y-77071401D01*
X117992891Y-76908026D01*
X118008425Y-76885842D01*
X118063002Y-76842217D01*
X118132500Y-76835023D01*
X118194855Y-76866546D01*
X118211575Y-76885842D01*
X118341500Y-77071395D01*
X118341505Y-77071401D01*
X118508599Y-77238495D01*
X118605384Y-77306265D01*
X118702165Y-77374032D01*
X118702167Y-77374033D01*
X118702170Y-77374035D01*
X118916337Y-77473903D01*
X119144592Y-77535063D01*
X119332918Y-77551539D01*
X119379999Y-77555659D01*
X119380000Y-77555659D01*
X119380001Y-77555659D01*
X119419234Y-77552226D01*
X119615408Y-77535063D01*
X119843663Y-77473903D01*
X120057830Y-77374035D01*
X120251401Y-77238495D01*
X120418495Y-77071401D01*
X120532891Y-76908026D01*
X120548425Y-76885842D01*
X120603002Y-76842217D01*
X120672500Y-76835023D01*
X120734855Y-76866546D01*
X120751575Y-76885842D01*
X120881500Y-77071395D01*
X120881505Y-77071401D01*
X121048599Y-77238495D01*
X121145384Y-77306265D01*
X121242165Y-77374032D01*
X121242167Y-77374033D01*
X121242170Y-77374035D01*
X121456337Y-77473903D01*
X121684592Y-77535063D01*
X121872918Y-77551539D01*
X121919999Y-77555659D01*
X121920000Y-77555659D01*
X121920001Y-77555659D01*
X121959234Y-77552226D01*
X122155408Y-77535063D01*
X122383663Y-77473903D01*
X122597830Y-77374035D01*
X122791401Y-77238495D01*
X122958495Y-77071401D01*
X123072891Y-76908026D01*
X123088425Y-76885842D01*
X123143002Y-76842217D01*
X123212500Y-76835023D01*
X123274855Y-76866546D01*
X123291575Y-76885842D01*
X123421500Y-77071395D01*
X123421505Y-77071401D01*
X123588599Y-77238495D01*
X123685384Y-77306265D01*
X123782165Y-77374032D01*
X123782167Y-77374033D01*
X123782170Y-77374035D01*
X123996337Y-77473903D01*
X124224592Y-77535063D01*
X124412918Y-77551539D01*
X124459999Y-77555659D01*
X124460000Y-77555659D01*
X124460001Y-77555659D01*
X124499234Y-77552226D01*
X124695408Y-77535063D01*
X124923663Y-77473903D01*
X125137830Y-77374035D01*
X125331401Y-77238495D01*
X125498495Y-77071401D01*
X125634035Y-76877830D01*
X125733903Y-76663663D01*
X125795063Y-76435408D01*
X125815659Y-76200000D01*
X125795063Y-75964592D01*
X125733903Y-75736337D01*
X125634035Y-75522171D01*
X125628731Y-75514595D01*
X125498494Y-75328597D01*
X125331402Y-75161506D01*
X125331396Y-75161501D01*
X125145842Y-75031575D01*
X125102217Y-74976998D01*
X125095023Y-74907500D01*
X125126546Y-74845145D01*
X125145842Y-74828425D01*
X125168026Y-74812891D01*
X125331401Y-74698495D01*
X125498495Y-74531401D01*
X125634035Y-74337830D01*
X125733903Y-74123663D01*
X125795063Y-73895408D01*
X125815659Y-73660000D01*
X125795063Y-73424592D01*
X125733903Y-73196337D01*
X125634035Y-72982171D01*
X125628731Y-72974595D01*
X125498494Y-72788597D01*
X125331402Y-72621506D01*
X125331395Y-72621501D01*
X125137834Y-72485967D01*
X125137830Y-72485965D01*
X125066727Y-72452809D01*
X124923663Y-72386097D01*
X124923659Y-72386096D01*
X124923655Y-72386094D01*
X124695413Y-72324938D01*
X124695403Y-72324936D01*
X124460001Y-72304341D01*
X124459999Y-72304341D01*
X124224596Y-72324936D01*
X124224586Y-72324938D01*
X123996344Y-72386094D01*
X123996335Y-72386098D01*
X123782171Y-72485964D01*
X123782169Y-72485965D01*
X123588597Y-72621505D01*
X123421505Y-72788597D01*
X123291575Y-72974158D01*
X123236998Y-73017783D01*
X123167500Y-73024977D01*
X123105145Y-72993454D01*
X123088425Y-72974158D01*
X122958494Y-72788597D01*
X122791402Y-72621506D01*
X122791395Y-72621501D01*
X122597834Y-72485967D01*
X122597830Y-72485965D01*
X122526727Y-72452809D01*
X122383663Y-72386097D01*
X122383659Y-72386096D01*
X122383655Y-72386094D01*
X122155413Y-72324938D01*
X122155403Y-72324936D01*
X121920001Y-72304341D01*
X121919999Y-72304341D01*
X121684596Y-72324936D01*
X121684586Y-72324938D01*
X121456344Y-72386094D01*
X121456335Y-72386098D01*
X121242171Y-72485964D01*
X121242169Y-72485965D01*
X121048597Y-72621505D01*
X120881505Y-72788597D01*
X120751575Y-72974158D01*
X120696998Y-73017783D01*
X120627500Y-73024977D01*
X120565145Y-72993454D01*
X120548425Y-72974158D01*
X120418494Y-72788597D01*
X120251402Y-72621506D01*
X120251395Y-72621501D01*
X120057834Y-72485967D01*
X120057830Y-72485965D01*
X119986727Y-72452809D01*
X119843663Y-72386097D01*
X119843659Y-72386096D01*
X119843655Y-72386094D01*
X119615413Y-72324938D01*
X119615403Y-72324936D01*
X119380001Y-72304341D01*
X119379999Y-72304341D01*
X119144596Y-72324936D01*
X119144586Y-72324938D01*
X118916344Y-72386094D01*
X118916335Y-72386098D01*
X118702171Y-72485964D01*
X118702169Y-72485965D01*
X118508597Y-72621505D01*
X118341505Y-72788597D01*
X118211575Y-72974158D01*
X118156998Y-73017783D01*
X118087500Y-73024977D01*
X118025145Y-72993454D01*
X118008425Y-72974158D01*
X117878494Y-72788597D01*
X117711402Y-72621506D01*
X117711395Y-72621501D01*
X117517834Y-72485967D01*
X117517830Y-72485965D01*
X117446727Y-72452809D01*
X117303663Y-72386097D01*
X117303659Y-72386096D01*
X117303655Y-72386094D01*
X117075413Y-72324938D01*
X117075403Y-72324936D01*
X116840001Y-72304341D01*
X116839999Y-72304341D01*
X116604596Y-72324936D01*
X116604586Y-72324938D01*
X116376344Y-72386094D01*
X116376335Y-72386098D01*
X116162171Y-72485964D01*
X116162169Y-72485965D01*
X115968597Y-72621505D01*
X115801505Y-72788597D01*
X115671575Y-72974158D01*
X115616998Y-73017783D01*
X115547500Y-73024977D01*
X115485145Y-72993454D01*
X115468425Y-72974158D01*
X115338494Y-72788597D01*
X115171402Y-72621506D01*
X115171395Y-72621501D01*
X114977834Y-72485967D01*
X114977830Y-72485965D01*
X114906727Y-72452809D01*
X114763663Y-72386097D01*
X114763659Y-72386096D01*
X114763655Y-72386094D01*
X114535413Y-72324938D01*
X114535403Y-72324936D01*
X114300001Y-72304341D01*
X114299999Y-72304341D01*
X114064596Y-72324936D01*
X114064586Y-72324938D01*
X113836344Y-72386094D01*
X113836335Y-72386098D01*
X113622171Y-72485964D01*
X113622169Y-72485965D01*
X113428597Y-72621505D01*
X113261505Y-72788597D01*
X113131575Y-72974158D01*
X113076998Y-73017783D01*
X113007500Y-73024977D01*
X112945145Y-72993454D01*
X112928425Y-72974158D01*
X112798494Y-72788597D01*
X112631402Y-72621506D01*
X112631395Y-72621501D01*
X112437834Y-72485967D01*
X112437830Y-72485965D01*
X112366727Y-72452809D01*
X112223663Y-72386097D01*
X112223659Y-72386096D01*
X112223655Y-72386094D01*
X111995413Y-72324938D01*
X111995403Y-72324936D01*
X111760001Y-72304341D01*
X111759999Y-72304341D01*
X111524596Y-72324936D01*
X111524586Y-72324938D01*
X111296344Y-72386094D01*
X111296335Y-72386098D01*
X111082171Y-72485964D01*
X111082169Y-72485965D01*
X110888597Y-72621505D01*
X110721505Y-72788597D01*
X110591575Y-72974158D01*
X110536998Y-73017783D01*
X110467500Y-73024977D01*
X110405145Y-72993454D01*
X110388425Y-72974158D01*
X110258494Y-72788597D01*
X110091402Y-72621506D01*
X110091395Y-72621501D01*
X109897834Y-72485967D01*
X109897830Y-72485965D01*
X109826727Y-72452809D01*
X109683663Y-72386097D01*
X109683659Y-72386096D01*
X109683655Y-72386094D01*
X109455413Y-72324938D01*
X109455403Y-72324936D01*
X109220001Y-72304341D01*
X109219999Y-72304341D01*
X108984596Y-72324936D01*
X108984586Y-72324938D01*
X108756344Y-72386094D01*
X108756335Y-72386098D01*
X108542171Y-72485964D01*
X108542169Y-72485965D01*
X108348597Y-72621505D01*
X108181505Y-72788597D01*
X108051575Y-72974158D01*
X107996998Y-73017783D01*
X107927500Y-73024977D01*
X107865145Y-72993454D01*
X107848425Y-72974158D01*
X107718494Y-72788597D01*
X107551402Y-72621506D01*
X107551395Y-72621501D01*
X107357834Y-72485967D01*
X107357830Y-72485965D01*
X107286727Y-72452809D01*
X107143663Y-72386097D01*
X107143659Y-72386096D01*
X107143655Y-72386094D01*
X106915413Y-72324938D01*
X106915403Y-72324936D01*
X106680001Y-72304341D01*
X106679999Y-72304341D01*
X106444596Y-72324936D01*
X106444586Y-72324938D01*
X106216344Y-72386094D01*
X106216335Y-72386098D01*
X106002171Y-72485964D01*
X106002169Y-72485965D01*
X105808600Y-72621503D01*
X105686284Y-72743819D01*
X105624961Y-72777303D01*
X105555269Y-72772319D01*
X105499336Y-72730447D01*
X105482421Y-72699470D01*
X105433354Y-72567913D01*
X105433350Y-72567906D01*
X105347190Y-72452812D01*
X105347187Y-72452809D01*
X105232093Y-72366649D01*
X105232086Y-72366645D01*
X105097379Y-72316403D01*
X105097372Y-72316401D01*
X105037844Y-72310000D01*
X104390000Y-72310000D01*
X104390000Y-73224498D01*
X104282315Y-73175320D01*
X104175763Y-73160000D01*
X104104237Y-73160000D01*
X103997685Y-73175320D01*
X103890000Y-73224498D01*
X103890000Y-72310000D01*
X103242155Y-72310000D01*
X103182627Y-72316401D01*
X103182620Y-72316403D01*
X103047913Y-72366645D01*
X103047906Y-72366649D01*
X102932812Y-72452809D01*
X102932809Y-72452812D01*
X102846649Y-72567906D01*
X102846645Y-72567913D01*
X102796403Y-72702620D01*
X102796401Y-72702627D01*
X102790000Y-72762155D01*
X102790000Y-73410000D01*
X103706314Y-73410000D01*
X103680507Y-73450156D01*
X103640000Y-73588111D01*
X103640000Y-73731889D01*
X103680507Y-73869844D01*
X103706314Y-73910000D01*
X102790000Y-73910000D01*
X102790000Y-74557844D01*
X102796401Y-74617372D01*
X102796403Y-74617379D01*
X102846645Y-74752086D01*
X102846649Y-74752093D01*
X102932809Y-74867187D01*
X102932812Y-74867190D01*
X103047906Y-74953350D01*
X103047913Y-74953354D01*
X103179470Y-75002421D01*
X103235403Y-75044292D01*
X103259821Y-75109756D01*
X103244970Y-75178029D01*
X103223819Y-75206283D01*
X103141924Y-75288180D01*
X103080602Y-75321666D01*
X103054242Y-75324500D01*
X101317248Y-75324500D01*
X101250209Y-75304815D01*
X101204454Y-75252011D01*
X101194510Y-75182853D01*
X101211710Y-75135403D01*
X101240448Y-75088811D01*
X101240453Y-75088800D01*
X101294680Y-74925152D01*
X101304999Y-74824154D01*
X101305000Y-74824141D01*
X101305000Y-74725000D01*
X99355001Y-74725000D01*
X99355001Y-74824154D01*
X99365319Y-74925152D01*
X99419546Y-75088800D01*
X99419551Y-75088811D01*
X99448290Y-75135403D01*
X99466731Y-75202795D01*
X99445809Y-75269459D01*
X99392167Y-75314228D01*
X99342752Y-75324500D01*
X97569006Y-75324500D01*
X97501967Y-75304815D01*
X97481325Y-75288181D01*
X96418144Y-74225000D01*
X99355000Y-74225000D01*
X100080000Y-74225000D01*
X100080000Y-73437500D01*
X100580000Y-73437500D01*
X100580000Y-74225000D01*
X101304999Y-74225000D01*
X101304999Y-74125860D01*
X101304998Y-74125845D01*
X101294680Y-74024847D01*
X101240453Y-73861199D01*
X101240448Y-73861188D01*
X101149947Y-73714465D01*
X101149944Y-73714461D01*
X101028038Y-73592555D01*
X101028034Y-73592552D01*
X100881311Y-73502051D01*
X100881300Y-73502046D01*
X100717652Y-73447819D01*
X100616654Y-73437500D01*
X100580000Y-73437500D01*
X100080000Y-73437500D01*
X100043361Y-73437500D01*
X100043343Y-73437501D01*
X99942347Y-73447819D01*
X99778699Y-73502046D01*
X99778688Y-73502051D01*
X99631965Y-73592552D01*
X99631961Y-73592555D01*
X99510055Y-73714461D01*
X99510052Y-73714465D01*
X99419551Y-73861188D01*
X99419546Y-73861199D01*
X99365319Y-74024847D01*
X99355000Y-74125845D01*
X99355000Y-74225000D01*
X96418144Y-74225000D01*
X89811819Y-67618675D01*
X89778334Y-67557352D01*
X89775500Y-67530994D01*
X89775500Y-51885758D01*
X89795185Y-51818719D01*
X89811819Y-51798077D01*
X89852414Y-51757482D01*
X89938495Y-51671401D01*
X90068730Y-51485405D01*
X90123307Y-51441781D01*
X90192805Y-51434587D01*
X90255160Y-51466110D01*
X90271879Y-51485405D01*
X90401890Y-51671078D01*
X90568917Y-51838105D01*
X90762421Y-51973600D01*
X90976507Y-52073429D01*
X90976516Y-52073433D01*
X91190000Y-52130634D01*
X91190000Y-51235501D01*
X91297685Y-51284680D01*
X91404237Y-51300000D01*
X91475763Y-51300000D01*
X91582315Y-51284680D01*
X91690000Y-51235501D01*
X91690000Y-52130634D01*
X91903483Y-52073433D01*
X91903492Y-52073429D01*
X92117578Y-51973600D01*
X92311082Y-51838105D01*
X92478105Y-51671082D01*
X92608119Y-51485405D01*
X92662696Y-51441781D01*
X92732195Y-51434588D01*
X92794549Y-51466110D01*
X92811269Y-51485405D01*
X92941505Y-51671401D01*
X93108599Y-51838495D01*
X93205384Y-51906265D01*
X93302165Y-51974032D01*
X93302167Y-51974033D01*
X93302170Y-51974035D01*
X93516337Y-52073903D01*
X93744592Y-52135063D01*
X93921034Y-52150500D01*
X93979999Y-52155659D01*
X93980000Y-52155659D01*
X93980001Y-52155659D01*
X94038966Y-52150500D01*
X94215408Y-52135063D01*
X94443663Y-52073903D01*
X94657830Y-51974035D01*
X94851401Y-51838495D01*
X95018495Y-51671401D01*
X95148425Y-51485842D01*
X95203002Y-51442217D01*
X95272500Y-51435023D01*
X95334855Y-51466546D01*
X95351575Y-51485842D01*
X95481500Y-51671395D01*
X95481505Y-51671401D01*
X95648599Y-51838495D01*
X95745384Y-51906265D01*
X95842165Y-51974032D01*
X95842167Y-51974033D01*
X95842170Y-51974035D01*
X96056337Y-52073903D01*
X96284592Y-52135063D01*
X96461034Y-52150500D01*
X96519999Y-52155659D01*
X96520000Y-52155659D01*
X96520001Y-52155659D01*
X96578966Y-52150500D01*
X96755408Y-52135063D01*
X96983663Y-52073903D01*
X97197830Y-51974035D01*
X97391401Y-51838495D01*
X97558495Y-51671401D01*
X97688425Y-51485842D01*
X97743002Y-51442217D01*
X97812500Y-51435023D01*
X97874855Y-51466546D01*
X97891575Y-51485842D01*
X98021500Y-51671395D01*
X98021505Y-51671401D01*
X98188599Y-51838495D01*
X98285384Y-51906265D01*
X98382165Y-51974032D01*
X98382167Y-51974033D01*
X98382170Y-51974035D01*
X98596337Y-52073903D01*
X98824592Y-52135063D01*
X99001034Y-52150500D01*
X99059999Y-52155659D01*
X99060000Y-52155659D01*
X99060001Y-52155659D01*
X99118966Y-52150500D01*
X99295408Y-52135063D01*
X99523663Y-52073903D01*
X99737830Y-51974035D01*
X99931401Y-51838495D01*
X100053329Y-51716566D01*
X100114648Y-51683084D01*
X100184340Y-51688068D01*
X100240274Y-51729939D01*
X100257189Y-51760917D01*
X100306202Y-51892328D01*
X100306206Y-51892335D01*
X100392452Y-52007544D01*
X100392455Y-52007547D01*
X100507664Y-52093793D01*
X100507671Y-52093797D01*
X100642517Y-52144091D01*
X100642516Y-52144091D01*
X100649444Y-52144835D01*
X100702127Y-52150500D01*
X102497872Y-52150499D01*
X102557483Y-52144091D01*
X102692331Y-52093796D01*
X102807546Y-52007546D01*
X102893796Y-51892331D01*
X102944091Y-51757483D01*
X102950500Y-51697873D01*
X102950499Y-49902128D01*
X102944091Y-49842517D01*
X102942810Y-49839083D01*
X102893797Y-49707671D01*
X102893793Y-49707664D01*
X102853870Y-49654334D01*
X105179500Y-49654334D01*
X105220429Y-49899616D01*
X105301169Y-50134802D01*
X105301172Y-50134811D01*
X105419524Y-50353506D01*
X105419526Y-50353509D01*
X105572262Y-50549744D01*
X105731744Y-50696557D01*
X105755217Y-50718166D01*
X105963393Y-50854173D01*
X106191118Y-50954063D01*
X106411392Y-51009844D01*
X106432179Y-51015108D01*
X106432181Y-51015108D01*
X106432186Y-51015109D01*
X106585589Y-51027819D01*
X106617933Y-51030500D01*
X106617937Y-51030500D01*
X106742063Y-51030500D01*
X106742067Y-51030500D01*
X106804677Y-51025311D01*
X106927813Y-51015109D01*
X106927816Y-51015108D01*
X106927821Y-51015108D01*
X107168881Y-50954063D01*
X107396607Y-50854173D01*
X107604785Y-50718164D01*
X107787738Y-50549744D01*
X107940474Y-50353509D01*
X108058828Y-50134810D01*
X108139571Y-49899614D01*
X108180500Y-49654335D01*
X108180500Y-49405665D01*
X108139571Y-49160386D01*
X108058828Y-48925190D01*
X108042266Y-48894587D01*
X107954296Y-48732032D01*
X107940474Y-48706491D01*
X107787738Y-48510256D01*
X107604785Y-48341836D01*
X107604782Y-48341833D01*
X107396606Y-48205826D01*
X107168881Y-48105936D01*
X106927824Y-48044892D01*
X106927813Y-48044890D01*
X106742077Y-48029500D01*
X106742067Y-48029500D01*
X106617933Y-48029500D01*
X106617922Y-48029500D01*
X106432186Y-48044890D01*
X106432175Y-48044892D01*
X106191118Y-48105936D01*
X105963393Y-48205826D01*
X105755217Y-48341833D01*
X105572261Y-48510257D01*
X105419524Y-48706493D01*
X105301172Y-48925188D01*
X105301169Y-48925197D01*
X105220429Y-49160383D01*
X105179500Y-49405665D01*
X105179500Y-49654334D01*
X102853870Y-49654334D01*
X102807547Y-49592455D01*
X102807544Y-49592452D01*
X102692335Y-49506206D01*
X102692328Y-49506202D01*
X102560917Y-49457189D01*
X102504983Y-49415318D01*
X102480566Y-49349853D01*
X102495418Y-49281580D01*
X102516563Y-49253332D01*
X102638495Y-49131401D01*
X102774035Y-48937830D01*
X102873903Y-48723663D01*
X102935063Y-48495408D01*
X102955659Y-48260000D01*
X102935063Y-48024592D01*
X102873903Y-47796337D01*
X102774035Y-47582171D01*
X102768731Y-47574595D01*
X102638494Y-47388597D01*
X102471402Y-47221506D01*
X102471395Y-47221501D01*
X102277834Y-47085967D01*
X102277830Y-47085965D01*
X102275810Y-47085023D01*
X102063663Y-46986097D01*
X102063659Y-46986096D01*
X102063655Y-46986094D01*
X101835413Y-46924938D01*
X101835403Y-46924936D01*
X101600001Y-46904341D01*
X101599999Y-46904341D01*
X101364596Y-46924936D01*
X101364586Y-46924938D01*
X101136344Y-46986094D01*
X101136335Y-46986098D01*
X100922171Y-47085964D01*
X100922169Y-47085965D01*
X100728597Y-47221505D01*
X100561505Y-47388597D01*
X100431575Y-47574158D01*
X100376998Y-47617783D01*
X100307500Y-47624977D01*
X100245145Y-47593454D01*
X100228425Y-47574158D01*
X100098494Y-47388597D01*
X99931402Y-47221506D01*
X99931395Y-47221501D01*
X99737834Y-47085967D01*
X99737830Y-47085965D01*
X99735810Y-47085023D01*
X99523663Y-46986097D01*
X99523659Y-46986096D01*
X99523655Y-46986094D01*
X99295413Y-46924938D01*
X99295403Y-46924936D01*
X99060001Y-46904341D01*
X99059999Y-46904341D01*
X98824596Y-46924936D01*
X98824586Y-46924938D01*
X98596344Y-46986094D01*
X98596335Y-46986098D01*
X98382171Y-47085964D01*
X98382169Y-47085965D01*
X98188597Y-47221505D01*
X98021505Y-47388597D01*
X97891575Y-47574158D01*
X97836998Y-47617783D01*
X97767500Y-47624977D01*
X97705145Y-47593454D01*
X97688425Y-47574158D01*
X97558494Y-47388597D01*
X97391402Y-47221506D01*
X97391395Y-47221501D01*
X97197834Y-47085967D01*
X97197830Y-47085965D01*
X97195810Y-47085023D01*
X96983663Y-46986097D01*
X96983659Y-46986096D01*
X96983655Y-46986094D01*
X96755413Y-46924938D01*
X96755403Y-46924936D01*
X96520001Y-46904341D01*
X96519999Y-46904341D01*
X96284596Y-46924936D01*
X96284586Y-46924938D01*
X96056344Y-46986094D01*
X96056335Y-46986098D01*
X95842171Y-47085964D01*
X95842169Y-47085965D01*
X95648597Y-47221505D01*
X95481505Y-47388597D01*
X95351575Y-47574158D01*
X95296998Y-47617783D01*
X95227500Y-47624977D01*
X95165145Y-47593454D01*
X95148425Y-47574158D01*
X95018494Y-47388597D01*
X94851402Y-47221506D01*
X94851395Y-47221501D01*
X94657834Y-47085967D01*
X94657830Y-47085965D01*
X94655810Y-47085023D01*
X94443663Y-46986097D01*
X94443659Y-46986096D01*
X94443655Y-46986094D01*
X94215413Y-46924938D01*
X94215403Y-46924936D01*
X93980001Y-46904341D01*
X93979999Y-46904341D01*
X93744596Y-46924936D01*
X93744586Y-46924938D01*
X93516344Y-46986094D01*
X93516335Y-46986098D01*
X93302171Y-47085964D01*
X93302169Y-47085965D01*
X93108597Y-47221505D01*
X92941508Y-47388594D01*
X92811269Y-47574595D01*
X92756692Y-47618219D01*
X92687193Y-47625412D01*
X92624839Y-47593890D01*
X92608119Y-47574594D01*
X92478113Y-47388926D01*
X92478108Y-47388920D01*
X92311082Y-47221894D01*
X92117578Y-47086399D01*
X91903492Y-46986570D01*
X91903486Y-46986567D01*
X91690000Y-46929364D01*
X91690000Y-47824498D01*
X91582315Y-47775320D01*
X91475763Y-47760000D01*
X91404237Y-47760000D01*
X91297685Y-47775320D01*
X91190000Y-47824498D01*
X91190000Y-46929364D01*
X91189999Y-46929364D01*
X90976513Y-46986567D01*
X90976507Y-46986570D01*
X90762422Y-47086399D01*
X90762420Y-47086400D01*
X90568926Y-47221886D01*
X90568920Y-47221891D01*
X90401891Y-47388920D01*
X90401890Y-47388922D01*
X90271880Y-47574595D01*
X90217303Y-47618219D01*
X90147804Y-47625412D01*
X90085450Y-47593890D01*
X90068730Y-47574594D01*
X89938494Y-47388597D01*
X89926701Y-47376804D01*
X89893216Y-47315481D01*
X89898200Y-47245789D01*
X89926699Y-47201444D01*
X90496325Y-46631819D01*
X90557648Y-46598334D01*
X90584006Y-46595500D01*
X110760500Y-46595500D01*
X110827539Y-46615185D01*
X110873294Y-46667989D01*
X110884500Y-46719500D01*
X110884500Y-47174241D01*
X110864815Y-47241280D01*
X110848181Y-47261922D01*
X110721505Y-47388597D01*
X110585965Y-47582169D01*
X110585964Y-47582171D01*
X110486098Y-47796335D01*
X110486094Y-47796344D01*
X110424938Y-48024586D01*
X110424936Y-48024596D01*
X110404341Y-48259999D01*
X110404341Y-48260000D01*
X110424936Y-48495403D01*
X110424938Y-48495413D01*
X110486094Y-48723655D01*
X110486096Y-48723659D01*
X110486097Y-48723663D01*
X110565801Y-48894588D01*
X110585965Y-48937830D01*
X110585967Y-48937834D01*
X110694281Y-49092521D01*
X110721504Y-49131400D01*
X110721506Y-49131402D01*
X110848181Y-49258077D01*
X110881666Y-49319400D01*
X110884500Y-49345758D01*
X110884500Y-49714241D01*
X110864815Y-49781280D01*
X110848181Y-49801922D01*
X110721505Y-49928597D01*
X110585965Y-50122169D01*
X110585964Y-50122171D01*
X110486098Y-50336335D01*
X110486094Y-50336344D01*
X110424938Y-50564586D01*
X110424936Y-50564596D01*
X110404341Y-50799999D01*
X110404341Y-50800000D01*
X110424936Y-51035403D01*
X110424938Y-51035413D01*
X110486094Y-51263655D01*
X110486096Y-51263659D01*
X110486097Y-51263663D01*
X110565801Y-51434588D01*
X110585965Y-51477830D01*
X110585967Y-51477834D01*
X110694281Y-51632521D01*
X110721505Y-51671401D01*
X110888599Y-51838495D01*
X110985384Y-51906265D01*
X111082165Y-51974032D01*
X111082167Y-51974033D01*
X111082170Y-51974035D01*
X111296337Y-52073903D01*
X111524592Y-52135063D01*
X111701034Y-52150500D01*
X111759999Y-52155659D01*
X111760000Y-52155659D01*
X111760001Y-52155659D01*
X111818966Y-52150500D01*
X111995408Y-52135063D01*
X112223663Y-52073903D01*
X112437830Y-51974035D01*
X112631401Y-51838495D01*
X112798495Y-51671401D01*
X112928730Y-51485405D01*
X112983307Y-51441781D01*
X113052805Y-51434587D01*
X113115160Y-51466110D01*
X113131879Y-51485405D01*
X113261890Y-51671078D01*
X113428917Y-51838105D01*
X113622421Y-51973600D01*
X113836507Y-52073429D01*
X113836516Y-52073433D01*
X114050000Y-52130634D01*
X114050000Y-51235501D01*
X114157685Y-51284680D01*
X114264237Y-51300000D01*
X114335763Y-51300000D01*
X114442315Y-51284680D01*
X114550000Y-51235501D01*
X114550000Y-52130634D01*
X114763483Y-52073433D01*
X114763492Y-52073429D01*
X114977578Y-51973600D01*
X115171082Y-51838105D01*
X115338105Y-51671082D01*
X115468119Y-51485405D01*
X115522696Y-51441781D01*
X115592195Y-51434588D01*
X115654549Y-51466110D01*
X115671269Y-51485405D01*
X115801505Y-51671401D01*
X115968599Y-51838495D01*
X116065384Y-51906265D01*
X116162165Y-51974032D01*
X116162167Y-51974033D01*
X116162170Y-51974035D01*
X116376337Y-52073903D01*
X116604592Y-52135063D01*
X116781034Y-52150500D01*
X116839999Y-52155659D01*
X116840000Y-52155659D01*
X116840001Y-52155659D01*
X116898966Y-52150500D01*
X117075408Y-52135063D01*
X117303663Y-52073903D01*
X117517830Y-51974035D01*
X117711401Y-51838495D01*
X117878495Y-51671401D01*
X118008425Y-51485842D01*
X118063002Y-51442217D01*
X118132500Y-51435023D01*
X118194855Y-51466546D01*
X118211575Y-51485842D01*
X118341500Y-51671395D01*
X118341505Y-51671401D01*
X118508599Y-51838495D01*
X118605384Y-51906265D01*
X118702165Y-51974032D01*
X118702167Y-51974033D01*
X118702170Y-51974035D01*
X118916337Y-52073903D01*
X119144592Y-52135063D01*
X119321034Y-52150500D01*
X119379999Y-52155659D01*
X119380000Y-52155659D01*
X119380001Y-52155659D01*
X119438966Y-52150500D01*
X119615408Y-52135063D01*
X119843663Y-52073903D01*
X120057830Y-51974035D01*
X120251401Y-51838495D01*
X120418495Y-51671401D01*
X120548425Y-51485842D01*
X120603002Y-51442217D01*
X120672500Y-51435023D01*
X120734855Y-51466546D01*
X120751575Y-51485842D01*
X120881500Y-51671395D01*
X120881505Y-51671401D01*
X121048599Y-51838495D01*
X121145384Y-51906265D01*
X121242165Y-51974032D01*
X121242167Y-51974033D01*
X121242170Y-51974035D01*
X121456337Y-52073903D01*
X121684592Y-52135063D01*
X121861034Y-52150500D01*
X121919999Y-52155659D01*
X121920000Y-52155659D01*
X121920001Y-52155659D01*
X121978966Y-52150500D01*
X122155408Y-52135063D01*
X122383663Y-52073903D01*
X122597830Y-51974035D01*
X122791401Y-51838495D01*
X122913329Y-51716566D01*
X122974648Y-51683084D01*
X123044340Y-51688068D01*
X123100274Y-51729939D01*
X123117189Y-51760917D01*
X123166202Y-51892328D01*
X123166206Y-51892335D01*
X123252452Y-52007544D01*
X123252455Y-52007547D01*
X123367664Y-52093793D01*
X123367671Y-52093797D01*
X123502517Y-52144091D01*
X123502516Y-52144091D01*
X123509444Y-52144835D01*
X123562127Y-52150500D01*
X125357872Y-52150499D01*
X125417483Y-52144091D01*
X125552331Y-52093796D01*
X125667546Y-52007546D01*
X125753796Y-51892331D01*
X125804091Y-51757483D01*
X125810500Y-51697873D01*
X125810499Y-49902128D01*
X125804091Y-49842517D01*
X125802810Y-49839083D01*
X125753797Y-49707671D01*
X125753793Y-49707664D01*
X125713870Y-49654334D01*
X128039500Y-49654334D01*
X128080429Y-49899616D01*
X128161169Y-50134802D01*
X128161172Y-50134811D01*
X128279524Y-50353506D01*
X128279526Y-50353509D01*
X128432262Y-50549744D01*
X128591744Y-50696557D01*
X128615217Y-50718166D01*
X128823393Y-50854173D01*
X129051118Y-50954063D01*
X129271392Y-51009844D01*
X129292179Y-51015108D01*
X129292181Y-51015108D01*
X129292186Y-51015109D01*
X129445589Y-51027819D01*
X129477933Y-51030500D01*
X129477937Y-51030500D01*
X129602063Y-51030500D01*
X129602067Y-51030500D01*
X129664677Y-51025311D01*
X129787813Y-51015109D01*
X129787816Y-51015108D01*
X129787821Y-51015108D01*
X130028881Y-50954063D01*
X130256607Y-50854173D01*
X130464785Y-50718164D01*
X130647738Y-50549744D01*
X130800474Y-50353509D01*
X130918828Y-50134810D01*
X130999571Y-49899614D01*
X131040500Y-49654335D01*
X131040500Y-49405665D01*
X130999571Y-49160386D01*
X130918828Y-48925190D01*
X130902266Y-48894587D01*
X130814296Y-48732032D01*
X130800474Y-48706491D01*
X130647738Y-48510256D01*
X130464785Y-48341836D01*
X130464782Y-48341833D01*
X130256606Y-48205826D01*
X130028881Y-48105936D01*
X129787824Y-48044892D01*
X129787813Y-48044890D01*
X129602077Y-48029500D01*
X129602067Y-48029500D01*
X129477933Y-48029500D01*
X129477922Y-48029500D01*
X129292186Y-48044890D01*
X129292175Y-48044892D01*
X129051118Y-48105936D01*
X128823393Y-48205826D01*
X128615217Y-48341833D01*
X128432261Y-48510257D01*
X128279524Y-48706493D01*
X128161172Y-48925188D01*
X128161169Y-48925197D01*
X128080429Y-49160383D01*
X128039500Y-49405665D01*
X128039500Y-49654334D01*
X125713870Y-49654334D01*
X125667547Y-49592455D01*
X125667544Y-49592452D01*
X125552335Y-49506206D01*
X125552328Y-49506202D01*
X125420917Y-49457189D01*
X125364983Y-49415318D01*
X125340566Y-49349853D01*
X125355418Y-49281580D01*
X125376563Y-49253332D01*
X125498495Y-49131401D01*
X125634035Y-48937830D01*
X125733903Y-48723663D01*
X125795063Y-48495408D01*
X125815659Y-48260000D01*
X125795063Y-48024592D01*
X125733903Y-47796337D01*
X125634035Y-47582171D01*
X125628731Y-47574595D01*
X125498494Y-47388597D01*
X125331402Y-47221506D01*
X125331395Y-47221501D01*
X125137834Y-47085967D01*
X125137830Y-47085965D01*
X125135810Y-47085023D01*
X124923663Y-46986097D01*
X124923659Y-46986096D01*
X124923655Y-46986094D01*
X124695413Y-46924938D01*
X124695403Y-46924936D01*
X124460001Y-46904341D01*
X124459999Y-46904341D01*
X124224596Y-46924936D01*
X124224586Y-46924938D01*
X123996344Y-46986094D01*
X123996335Y-46986098D01*
X123782171Y-47085964D01*
X123782169Y-47085965D01*
X123588597Y-47221505D01*
X123421505Y-47388597D01*
X123291575Y-47574158D01*
X123236998Y-47617783D01*
X123167500Y-47624977D01*
X123105145Y-47593454D01*
X123088425Y-47574158D01*
X122958494Y-47388597D01*
X122791402Y-47221506D01*
X122791395Y-47221501D01*
X122597834Y-47085967D01*
X122597830Y-47085965D01*
X122595810Y-47085023D01*
X122383663Y-46986097D01*
X122383659Y-46986096D01*
X122383655Y-46986094D01*
X122155413Y-46924938D01*
X122155403Y-46924936D01*
X121920001Y-46904341D01*
X121919999Y-46904341D01*
X121684596Y-46924936D01*
X121684586Y-46924938D01*
X121456344Y-46986094D01*
X121456335Y-46986098D01*
X121242171Y-47085964D01*
X121242169Y-47085965D01*
X121048597Y-47221505D01*
X120881505Y-47388597D01*
X120751575Y-47574158D01*
X120696998Y-47617783D01*
X120627500Y-47624977D01*
X120565145Y-47593454D01*
X120548425Y-47574158D01*
X120418494Y-47388597D01*
X120251402Y-47221506D01*
X120251395Y-47221501D01*
X120057834Y-47085967D01*
X120057830Y-47085965D01*
X120055810Y-47085023D01*
X119843663Y-46986097D01*
X119843659Y-46986096D01*
X119843655Y-46986094D01*
X119615413Y-46924938D01*
X119615403Y-46924936D01*
X119380001Y-46904341D01*
X119379999Y-46904341D01*
X119144596Y-46924936D01*
X119144586Y-46924938D01*
X118916344Y-46986094D01*
X118916335Y-46986098D01*
X118702171Y-47085964D01*
X118702169Y-47085965D01*
X118508597Y-47221505D01*
X118341505Y-47388597D01*
X118211575Y-47574158D01*
X118156998Y-47617783D01*
X118087500Y-47624977D01*
X118025145Y-47593454D01*
X118008425Y-47574158D01*
X117878494Y-47388597D01*
X117711402Y-47221506D01*
X117711395Y-47221501D01*
X117517834Y-47085967D01*
X117517830Y-47085965D01*
X117515810Y-47085023D01*
X117303663Y-46986097D01*
X117303659Y-46986096D01*
X117303655Y-46986094D01*
X117075413Y-46924938D01*
X117075403Y-46924936D01*
X116840001Y-46904341D01*
X116839999Y-46904341D01*
X116604596Y-46924936D01*
X116604586Y-46924938D01*
X116376344Y-46986094D01*
X116376335Y-46986098D01*
X116162171Y-47085964D01*
X116162169Y-47085965D01*
X115968597Y-47221505D01*
X115801508Y-47388594D01*
X115671269Y-47574595D01*
X115616692Y-47618219D01*
X115547193Y-47625412D01*
X115484839Y-47593890D01*
X115468119Y-47574594D01*
X115338113Y-47388926D01*
X115338108Y-47388920D01*
X115171082Y-47221894D01*
X114977578Y-47086399D01*
X114763492Y-46986570D01*
X114763486Y-46986567D01*
X114550000Y-46929364D01*
X114550000Y-47824498D01*
X114442315Y-47775320D01*
X114335763Y-47760000D01*
X114264237Y-47760000D01*
X114157685Y-47775320D01*
X114050000Y-47824498D01*
X114050000Y-46929364D01*
X114049999Y-46929364D01*
X113836513Y-46986567D01*
X113836507Y-46986570D01*
X113622422Y-47086399D01*
X113622420Y-47086400D01*
X113428926Y-47221886D01*
X113428920Y-47221891D01*
X113261891Y-47388920D01*
X113261890Y-47388922D01*
X113131880Y-47574595D01*
X113077303Y-47618219D01*
X113007804Y-47625412D01*
X112945450Y-47593890D01*
X112928730Y-47574594D01*
X112798494Y-47388597D01*
X112671819Y-47261922D01*
X112638334Y-47200599D01*
X112635500Y-47174241D01*
X112635500Y-46719500D01*
X112655185Y-46652461D01*
X112707989Y-46606706D01*
X112759500Y-46595500D01*
X133620500Y-46595500D01*
X133687539Y-46615185D01*
X133733294Y-46667989D01*
X133744500Y-46719500D01*
X133744500Y-47174241D01*
X133724815Y-47241280D01*
X133708181Y-47261922D01*
X133581505Y-47388597D01*
X133445965Y-47582169D01*
X133445964Y-47582171D01*
X133346098Y-47796335D01*
X133346094Y-47796344D01*
X133284938Y-48024586D01*
X133284936Y-48024596D01*
X133264341Y-48259999D01*
X133264341Y-48260000D01*
X133284936Y-48495403D01*
X133284938Y-48495413D01*
X133346094Y-48723655D01*
X133346096Y-48723659D01*
X133346097Y-48723663D01*
X133425801Y-48894588D01*
X133445965Y-48937830D01*
X133445967Y-48937834D01*
X133554281Y-49092521D01*
X133581504Y-49131400D01*
X133581506Y-49131402D01*
X133708181Y-49258077D01*
X133741666Y-49319400D01*
X133744500Y-49345758D01*
X133744500Y-49714241D01*
X133724815Y-49781280D01*
X133708181Y-49801922D01*
X133581505Y-49928597D01*
X133445965Y-50122169D01*
X133445964Y-50122171D01*
X133346098Y-50336335D01*
X133346094Y-50336344D01*
X133284938Y-50564586D01*
X133284936Y-50564596D01*
X133264341Y-50799999D01*
X133264341Y-50800000D01*
X133284936Y-51035403D01*
X133284938Y-51035413D01*
X133346094Y-51263655D01*
X133346096Y-51263659D01*
X133346097Y-51263663D01*
X133425801Y-51434588D01*
X133445965Y-51477830D01*
X133445967Y-51477834D01*
X133554281Y-51632521D01*
X133581504Y-51671400D01*
X133581506Y-51671402D01*
X133708181Y-51798077D01*
X133741666Y-51859400D01*
X133744500Y-51885758D01*
X133744500Y-69104583D01*
X133726039Y-69169680D01*
X133646593Y-69298481D01*
X133646591Y-69298486D01*
X133619219Y-69381088D01*
X133592326Y-69462247D01*
X133592326Y-69462248D01*
X133592325Y-69462248D01*
X133582000Y-69563315D01*
X133582000Y-70136669D01*
X133582001Y-70136687D01*
X133592325Y-70237752D01*
X133628609Y-70347249D01*
X133646592Y-70401516D01*
X133726039Y-70530320D01*
X133744500Y-70595416D01*
X133744500Y-72199235D01*
X133724815Y-72266274D01*
X133672011Y-72312029D01*
X133663834Y-72315417D01*
X133527669Y-72366203D01*
X133527664Y-72366206D01*
X133412455Y-72452452D01*
X133412452Y-72452455D01*
X133326206Y-72567664D01*
X133326202Y-72567671D01*
X133275908Y-72702517D01*
X133269501Y-72762116D01*
X133269500Y-72762135D01*
X133269500Y-74557870D01*
X133269501Y-74557876D01*
X133275908Y-74617483D01*
X133326202Y-74752328D01*
X133326206Y-74752335D01*
X133412452Y-74867544D01*
X133412455Y-74867547D01*
X133527664Y-74953793D01*
X133527671Y-74953797D01*
X133659082Y-75002810D01*
X133715016Y-75044681D01*
X133739433Y-75110145D01*
X133724582Y-75178418D01*
X133703430Y-75206673D01*
X133581505Y-75328597D01*
X133445965Y-75522169D01*
X133445964Y-75522171D01*
X133346098Y-75736335D01*
X133346094Y-75736344D01*
X133284938Y-75964586D01*
X133284936Y-75964596D01*
X133264341Y-76199999D01*
X133264341Y-76200000D01*
X133284936Y-76435403D01*
X133284938Y-76435413D01*
X133346094Y-76663655D01*
X133346096Y-76663659D01*
X133346097Y-76663663D01*
X133428024Y-76839355D01*
X133445965Y-76877830D01*
X133445967Y-76877834D01*
X133550162Y-77026638D01*
X133581505Y-77071401D01*
X133748599Y-77238495D01*
X133845384Y-77306265D01*
X133942165Y-77374032D01*
X133942167Y-77374033D01*
X133942170Y-77374035D01*
X134156337Y-77473903D01*
X134384592Y-77535063D01*
X134572918Y-77551539D01*
X134619999Y-77555659D01*
X134620000Y-77555659D01*
X134620001Y-77555659D01*
X134659234Y-77552226D01*
X134855408Y-77535063D01*
X135083663Y-77473903D01*
X135297830Y-77374035D01*
X135491401Y-77238495D01*
X135658495Y-77071401D01*
X135788730Y-76885405D01*
X135843307Y-76841781D01*
X135912805Y-76834587D01*
X135975160Y-76866110D01*
X135991879Y-76885405D01*
X136121890Y-77071078D01*
X136288917Y-77238105D01*
X136482421Y-77373600D01*
X136696507Y-77473429D01*
X136696516Y-77473433D01*
X136910000Y-77530634D01*
X136910000Y-76635501D01*
X137017685Y-76684680D01*
X137124237Y-76700000D01*
X137195763Y-76700000D01*
X137302315Y-76684680D01*
X137410000Y-76635501D01*
X137410000Y-77530634D01*
X137623483Y-77473433D01*
X137623492Y-77473429D01*
X137837578Y-77373600D01*
X138031082Y-77238105D01*
X138198105Y-77071082D01*
X138328119Y-76885405D01*
X138382696Y-76841781D01*
X138452195Y-76834588D01*
X138514549Y-76866110D01*
X138531269Y-76885405D01*
X138544180Y-76903844D01*
X138661505Y-77071401D01*
X138828599Y-77238495D01*
X138925384Y-77306265D01*
X139022165Y-77374032D01*
X139022167Y-77374033D01*
X139022170Y-77374035D01*
X139236337Y-77473903D01*
X139464592Y-77535063D01*
X139652918Y-77551539D01*
X139699999Y-77555659D01*
X139700000Y-77555659D01*
X139700001Y-77555659D01*
X139739234Y-77552226D01*
X139935408Y-77535063D01*
X140163663Y-77473903D01*
X140377830Y-77374035D01*
X140571401Y-77238495D01*
X140738495Y-77071401D01*
X140852891Y-76908026D01*
X140868425Y-76885842D01*
X140923002Y-76842217D01*
X140992500Y-76835023D01*
X141054855Y-76866546D01*
X141071575Y-76885842D01*
X141201500Y-77071395D01*
X141201505Y-77071401D01*
X141368599Y-77238495D01*
X141465384Y-77306265D01*
X141562165Y-77374032D01*
X141562167Y-77374033D01*
X141562170Y-77374035D01*
X141776337Y-77473903D01*
X142004592Y-77535063D01*
X142192918Y-77551539D01*
X142239999Y-77555659D01*
X142240000Y-77555659D01*
X142240001Y-77555659D01*
X142279234Y-77552226D01*
X142475408Y-77535063D01*
X142703663Y-77473903D01*
X142917830Y-77374035D01*
X143111401Y-77238495D01*
X143278495Y-77071401D01*
X143392891Y-76908026D01*
X143408425Y-76885842D01*
X143463002Y-76842217D01*
X143532500Y-76835023D01*
X143594855Y-76866546D01*
X143611575Y-76885842D01*
X143741500Y-77071395D01*
X143741505Y-77071401D01*
X143908599Y-77238495D01*
X144005384Y-77306265D01*
X144102165Y-77374032D01*
X144102167Y-77374033D01*
X144102170Y-77374035D01*
X144316337Y-77473903D01*
X144544592Y-77535063D01*
X144732918Y-77551539D01*
X144779999Y-77555659D01*
X144780000Y-77555659D01*
X144780001Y-77555659D01*
X144819234Y-77552226D01*
X145015408Y-77535063D01*
X145243663Y-77473903D01*
X145457830Y-77374035D01*
X145651401Y-77238495D01*
X145818495Y-77071401D01*
X145932891Y-76908026D01*
X145948425Y-76885842D01*
X146003002Y-76842217D01*
X146072500Y-76835023D01*
X146134855Y-76866546D01*
X146151575Y-76885842D01*
X146281500Y-77071395D01*
X146281505Y-77071401D01*
X146448599Y-77238495D01*
X146545384Y-77306265D01*
X146642165Y-77374032D01*
X146642167Y-77374033D01*
X146642170Y-77374035D01*
X146856337Y-77473903D01*
X147084592Y-77535063D01*
X147272918Y-77551539D01*
X147319999Y-77555659D01*
X147320000Y-77555659D01*
X147320001Y-77555659D01*
X147359234Y-77552226D01*
X147555408Y-77535063D01*
X147783663Y-77473903D01*
X147997830Y-77374035D01*
X148191401Y-77238495D01*
X148358495Y-77071401D01*
X148494035Y-76877830D01*
X148593903Y-76663663D01*
X148655063Y-76435408D01*
X148675659Y-76200000D01*
X148655063Y-75964592D01*
X148593903Y-75736337D01*
X148494035Y-75522171D01*
X148488731Y-75514595D01*
X148358494Y-75328597D01*
X148191402Y-75161506D01*
X148191396Y-75161501D01*
X148005842Y-75031575D01*
X147962217Y-74976998D01*
X147955023Y-74907500D01*
X147986546Y-74845145D01*
X148005842Y-74828425D01*
X148028026Y-74812891D01*
X148191401Y-74698495D01*
X148358495Y-74531401D01*
X148494035Y-74337830D01*
X148593903Y-74123663D01*
X148655063Y-73895408D01*
X148675659Y-73660000D01*
X148655063Y-73424592D01*
X148593903Y-73196337D01*
X148494035Y-72982171D01*
X148488731Y-72974595D01*
X148358494Y-72788597D01*
X148191402Y-72621506D01*
X148191395Y-72621501D01*
X147997834Y-72485967D01*
X147997830Y-72485965D01*
X147926727Y-72452809D01*
X147783663Y-72386097D01*
X147783659Y-72386096D01*
X147783655Y-72386094D01*
X147555413Y-72324938D01*
X147555403Y-72324936D01*
X147320001Y-72304341D01*
X147319999Y-72304341D01*
X147084596Y-72324936D01*
X147084586Y-72324938D01*
X146856344Y-72386094D01*
X146856335Y-72386098D01*
X146642171Y-72485964D01*
X146642169Y-72485965D01*
X146448597Y-72621505D01*
X146281505Y-72788597D01*
X146151575Y-72974158D01*
X146096998Y-73017783D01*
X146027500Y-73024977D01*
X145965145Y-72993454D01*
X145948425Y-72974158D01*
X145818494Y-72788597D01*
X145651402Y-72621506D01*
X145651395Y-72621501D01*
X145457834Y-72485967D01*
X145457830Y-72485965D01*
X145386727Y-72452809D01*
X145243663Y-72386097D01*
X145243659Y-72386096D01*
X145243655Y-72386094D01*
X145015413Y-72324938D01*
X145015403Y-72324936D01*
X144780001Y-72304341D01*
X144779999Y-72304341D01*
X144544596Y-72324936D01*
X144544586Y-72324938D01*
X144316344Y-72386094D01*
X144316335Y-72386098D01*
X144102171Y-72485964D01*
X144102169Y-72485965D01*
X143908597Y-72621505D01*
X143741505Y-72788597D01*
X143611575Y-72974158D01*
X143556998Y-73017783D01*
X143487500Y-73024977D01*
X143425145Y-72993454D01*
X143408425Y-72974158D01*
X143278494Y-72788597D01*
X143111402Y-72621506D01*
X143111395Y-72621501D01*
X142917834Y-72485967D01*
X142917830Y-72485965D01*
X142846727Y-72452809D01*
X142703663Y-72386097D01*
X142703659Y-72386096D01*
X142703655Y-72386094D01*
X142475413Y-72324938D01*
X142475403Y-72324936D01*
X142240001Y-72304341D01*
X142239999Y-72304341D01*
X142004596Y-72324936D01*
X142004586Y-72324938D01*
X141776344Y-72386094D01*
X141776335Y-72386098D01*
X141562171Y-72485964D01*
X141562169Y-72485965D01*
X141368597Y-72621505D01*
X141201505Y-72788597D01*
X141071575Y-72974158D01*
X141016998Y-73017783D01*
X140947500Y-73024977D01*
X140885145Y-72993454D01*
X140868425Y-72974158D01*
X140738494Y-72788597D01*
X140571402Y-72621506D01*
X140571395Y-72621501D01*
X140377834Y-72485967D01*
X140377830Y-72485965D01*
X140306727Y-72452809D01*
X140163663Y-72386097D01*
X140163659Y-72386096D01*
X140163655Y-72386094D01*
X139935413Y-72324938D01*
X139935403Y-72324936D01*
X139700001Y-72304341D01*
X139699999Y-72304341D01*
X139464596Y-72324936D01*
X139464586Y-72324938D01*
X139236344Y-72386094D01*
X139236335Y-72386098D01*
X139022171Y-72485964D01*
X139022169Y-72485965D01*
X138828597Y-72621505D01*
X138661508Y-72788594D01*
X138531269Y-72974595D01*
X138476692Y-73018219D01*
X138407193Y-73025412D01*
X138344839Y-72993890D01*
X138328119Y-72974594D01*
X138198113Y-72788926D01*
X138198108Y-72788920D01*
X138031082Y-72621894D01*
X137837578Y-72486399D01*
X137623492Y-72386570D01*
X137623486Y-72386567D01*
X137410000Y-72329364D01*
X137410000Y-73224498D01*
X137302315Y-73175320D01*
X137195763Y-73160000D01*
X137124237Y-73160000D01*
X137017685Y-73175320D01*
X136910000Y-73224498D01*
X136910000Y-72329364D01*
X136909999Y-72329364D01*
X136696513Y-72386567D01*
X136696507Y-72386570D01*
X136482422Y-72486399D01*
X136482420Y-72486400D01*
X136288926Y-72621886D01*
X136166865Y-72743947D01*
X136105542Y-72777431D01*
X136035850Y-72772447D01*
X135979917Y-72730575D01*
X135963002Y-72699598D01*
X135962954Y-72699470D01*
X135913887Y-72567913D01*
X135913797Y-72567671D01*
X135913793Y-72567664D01*
X135827547Y-72452455D01*
X135827544Y-72452452D01*
X135712335Y-72366206D01*
X135712330Y-72366203D01*
X135576166Y-72315417D01*
X135520233Y-72273545D01*
X135495816Y-72208081D01*
X135495500Y-72199235D01*
X135495500Y-70837248D01*
X135515185Y-70770209D01*
X135567989Y-70724454D01*
X135637147Y-70714510D01*
X135684597Y-70731710D01*
X135731188Y-70760448D01*
X135731199Y-70760453D01*
X135894847Y-70814680D01*
X135995851Y-70824999D01*
X136095000Y-70824998D01*
X136095000Y-70100000D01*
X136595000Y-70100000D01*
X136595000Y-70824999D01*
X136694140Y-70824999D01*
X136694154Y-70824998D01*
X136795152Y-70814680D01*
X136958800Y-70760453D01*
X136958811Y-70760448D01*
X137105534Y-70669947D01*
X137105538Y-70669944D01*
X137227444Y-70548038D01*
X137227447Y-70548034D01*
X137317948Y-70401311D01*
X137317953Y-70401300D01*
X137372180Y-70237652D01*
X137382499Y-70136654D01*
X137382500Y-70136641D01*
X137382500Y-70100000D01*
X136595000Y-70100000D01*
X136095000Y-70100000D01*
X136095000Y-68875000D01*
X136595000Y-68875000D01*
X136595000Y-69600000D01*
X137382499Y-69600000D01*
X137382499Y-69563360D01*
X137382498Y-69563345D01*
X137372180Y-69462347D01*
X137317953Y-69298699D01*
X137317948Y-69298688D01*
X137227447Y-69151965D01*
X137227444Y-69151961D01*
X137105538Y-69030055D01*
X137105534Y-69030052D01*
X136958811Y-68939551D01*
X136958800Y-68939546D01*
X136795152Y-68885319D01*
X136694154Y-68875000D01*
X136595000Y-68875000D01*
X136095000Y-68875000D01*
X136095000Y-68874999D01*
X135995860Y-68875000D01*
X135995844Y-68875001D01*
X135894847Y-68885319D01*
X135731199Y-68939546D01*
X135731190Y-68939551D01*
X135684596Y-68968290D01*
X135617203Y-68986730D01*
X135550540Y-68965807D01*
X135505771Y-68912165D01*
X135495500Y-68862751D01*
X135495500Y-51885758D01*
X135515185Y-51818719D01*
X135531819Y-51798077D01*
X135572414Y-51757482D01*
X135658495Y-51671401D01*
X135788730Y-51485405D01*
X135843307Y-51441781D01*
X135912805Y-51434587D01*
X135975160Y-51466110D01*
X135991879Y-51485405D01*
X136121890Y-51671078D01*
X136288917Y-51838105D01*
X136482421Y-51973600D01*
X136696507Y-52073429D01*
X136696516Y-52073433D01*
X136910000Y-52130634D01*
X136910000Y-51235501D01*
X137017685Y-51284680D01*
X137124237Y-51300000D01*
X137195763Y-51300000D01*
X137302315Y-51284680D01*
X137410000Y-51235501D01*
X137410000Y-52130634D01*
X137623483Y-52073433D01*
X137623492Y-52073429D01*
X137837578Y-51973600D01*
X138031082Y-51838105D01*
X138198105Y-51671082D01*
X138328119Y-51485405D01*
X138382696Y-51441781D01*
X138452195Y-51434588D01*
X138514549Y-51466110D01*
X138531269Y-51485405D01*
X138661505Y-51671401D01*
X138828599Y-51838495D01*
X138925384Y-51906265D01*
X139022165Y-51974032D01*
X139022167Y-51974033D01*
X139022170Y-51974035D01*
X139236337Y-52073903D01*
X139464592Y-52135063D01*
X139641034Y-52150500D01*
X139699999Y-52155659D01*
X139700000Y-52155659D01*
X139700001Y-52155659D01*
X139758966Y-52150500D01*
X139935408Y-52135063D01*
X140163663Y-52073903D01*
X140377830Y-51974035D01*
X140571401Y-51838495D01*
X140738495Y-51671401D01*
X140868425Y-51485842D01*
X140923002Y-51442217D01*
X140992500Y-51435023D01*
X141054855Y-51466546D01*
X141071575Y-51485842D01*
X141201500Y-51671395D01*
X141201505Y-51671401D01*
X141368599Y-51838495D01*
X141465384Y-51906265D01*
X141562165Y-51974032D01*
X141562167Y-51974033D01*
X141562170Y-51974035D01*
X141776337Y-52073903D01*
X142004592Y-52135063D01*
X142181034Y-52150500D01*
X142239999Y-52155659D01*
X142240000Y-52155659D01*
X142240001Y-52155659D01*
X142298966Y-52150500D01*
X142475408Y-52135063D01*
X142703663Y-52073903D01*
X142917830Y-51974035D01*
X143111401Y-51838495D01*
X143278495Y-51671401D01*
X143408425Y-51485842D01*
X143463002Y-51442217D01*
X143532500Y-51435023D01*
X143594855Y-51466546D01*
X143611575Y-51485842D01*
X143741500Y-51671395D01*
X143741505Y-51671401D01*
X143908599Y-51838495D01*
X144005384Y-51906265D01*
X144102165Y-51974032D01*
X144102167Y-51974033D01*
X144102170Y-51974035D01*
X144316337Y-52073903D01*
X144544592Y-52135063D01*
X144721034Y-52150500D01*
X144779999Y-52155659D01*
X144780000Y-52155659D01*
X144780001Y-52155659D01*
X144838966Y-52150500D01*
X145015408Y-52135063D01*
X145243663Y-52073903D01*
X145457830Y-51974035D01*
X145651401Y-51838495D01*
X145773329Y-51716566D01*
X145834648Y-51683084D01*
X145904340Y-51688068D01*
X145960274Y-51729939D01*
X145977189Y-51760917D01*
X146026202Y-51892328D01*
X146026206Y-51892335D01*
X146112452Y-52007544D01*
X146112455Y-52007547D01*
X146227664Y-52093793D01*
X146227671Y-52093797D01*
X146362517Y-52144091D01*
X146362516Y-52144091D01*
X146369444Y-52144835D01*
X146422127Y-52150500D01*
X148217872Y-52150499D01*
X148277483Y-52144091D01*
X148412331Y-52093796D01*
X148527546Y-52007546D01*
X148613796Y-51892331D01*
X148664091Y-51757483D01*
X148670500Y-51697873D01*
X148670499Y-49902128D01*
X148664091Y-49842517D01*
X148662810Y-49839083D01*
X148613797Y-49707671D01*
X148613793Y-49707664D01*
X148573870Y-49654334D01*
X150899500Y-49654334D01*
X150940429Y-49899616D01*
X151021169Y-50134802D01*
X151021172Y-50134811D01*
X151139524Y-50353506D01*
X151139526Y-50353509D01*
X151292262Y-50549744D01*
X151451744Y-50696557D01*
X151475217Y-50718166D01*
X151683393Y-50854173D01*
X151911118Y-50954063D01*
X152131392Y-51009844D01*
X152152179Y-51015108D01*
X152152181Y-51015108D01*
X152152186Y-51015109D01*
X152305589Y-51027819D01*
X152337933Y-51030500D01*
X152337937Y-51030500D01*
X152462063Y-51030500D01*
X152462067Y-51030500D01*
X152524677Y-51025311D01*
X152647813Y-51015109D01*
X152647816Y-51015108D01*
X152647821Y-51015108D01*
X152888881Y-50954063D01*
X153116607Y-50854173D01*
X153324785Y-50718164D01*
X153507738Y-50549744D01*
X153660474Y-50353509D01*
X153778828Y-50134810D01*
X153859571Y-49899614D01*
X153900500Y-49654335D01*
X153900500Y-49405665D01*
X153859571Y-49160386D01*
X153778828Y-48925190D01*
X153762266Y-48894587D01*
X153674296Y-48732032D01*
X153660474Y-48706491D01*
X153507738Y-48510256D01*
X153324785Y-48341836D01*
X153324782Y-48341833D01*
X153116606Y-48205826D01*
X152888881Y-48105936D01*
X152647824Y-48044892D01*
X152647813Y-48044890D01*
X152462077Y-48029500D01*
X152462067Y-48029500D01*
X152337933Y-48029500D01*
X152337922Y-48029500D01*
X152152186Y-48044890D01*
X152152175Y-48044892D01*
X151911118Y-48105936D01*
X151683393Y-48205826D01*
X151475217Y-48341833D01*
X151292261Y-48510257D01*
X151139524Y-48706493D01*
X151021172Y-48925188D01*
X151021169Y-48925197D01*
X150940429Y-49160383D01*
X150899500Y-49405665D01*
X150899500Y-49654334D01*
X148573870Y-49654334D01*
X148527547Y-49592455D01*
X148527544Y-49592452D01*
X148412335Y-49506206D01*
X148412328Y-49506202D01*
X148280917Y-49457189D01*
X148224983Y-49415318D01*
X148200566Y-49349853D01*
X148215418Y-49281580D01*
X148236563Y-49253332D01*
X148358495Y-49131401D01*
X148494035Y-48937830D01*
X148593903Y-48723663D01*
X148655063Y-48495408D01*
X148675659Y-48260000D01*
X148655063Y-48024592D01*
X148593903Y-47796337D01*
X148494035Y-47582171D01*
X148488731Y-47574595D01*
X148358494Y-47388597D01*
X148191402Y-47221506D01*
X148191395Y-47221501D01*
X147997834Y-47085967D01*
X147997830Y-47085965D01*
X147995810Y-47085023D01*
X147783663Y-46986097D01*
X147783659Y-46986096D01*
X147783655Y-46986094D01*
X147555413Y-46924938D01*
X147555403Y-46924936D01*
X147320001Y-46904341D01*
X147319999Y-46904341D01*
X147084596Y-46924936D01*
X147084586Y-46924938D01*
X146856344Y-46986094D01*
X146856335Y-46986098D01*
X146642171Y-47085964D01*
X146642169Y-47085965D01*
X146448597Y-47221505D01*
X146281505Y-47388597D01*
X146151575Y-47574158D01*
X146096998Y-47617783D01*
X146027500Y-47624977D01*
X145965145Y-47593454D01*
X145948425Y-47574158D01*
X145818494Y-47388597D01*
X145651402Y-47221506D01*
X145651395Y-47221501D01*
X145457834Y-47085967D01*
X145457830Y-47085965D01*
X145455810Y-47085023D01*
X145243663Y-46986097D01*
X145243659Y-46986096D01*
X145243655Y-46986094D01*
X145015413Y-46924938D01*
X145015403Y-46924936D01*
X144780001Y-46904341D01*
X144779999Y-46904341D01*
X144544596Y-46924936D01*
X144544586Y-46924938D01*
X144316344Y-46986094D01*
X144316335Y-46986098D01*
X144102171Y-47085964D01*
X144102169Y-47085965D01*
X143908597Y-47221505D01*
X143741505Y-47388597D01*
X143611575Y-47574158D01*
X143556998Y-47617783D01*
X143487500Y-47624977D01*
X143425145Y-47593454D01*
X143408425Y-47574158D01*
X143278494Y-47388597D01*
X143111402Y-47221506D01*
X143111395Y-47221501D01*
X142917834Y-47085967D01*
X142917830Y-47085965D01*
X142915810Y-47085023D01*
X142703663Y-46986097D01*
X142703659Y-46986096D01*
X142703655Y-46986094D01*
X142475413Y-46924938D01*
X142475403Y-46924936D01*
X142240001Y-46904341D01*
X142239999Y-46904341D01*
X142004596Y-46924936D01*
X142004586Y-46924938D01*
X141776344Y-46986094D01*
X141776335Y-46986098D01*
X141562171Y-47085964D01*
X141562169Y-47085965D01*
X141368597Y-47221505D01*
X141201505Y-47388597D01*
X141071575Y-47574158D01*
X141016998Y-47617783D01*
X140947500Y-47624977D01*
X140885145Y-47593454D01*
X140868425Y-47574158D01*
X140738494Y-47388597D01*
X140571402Y-47221506D01*
X140571395Y-47221501D01*
X140377834Y-47085967D01*
X140377830Y-47085965D01*
X140375810Y-47085023D01*
X140163663Y-46986097D01*
X140163659Y-46986096D01*
X140163655Y-46986094D01*
X139935413Y-46924938D01*
X139935403Y-46924936D01*
X139700001Y-46904341D01*
X139699999Y-46904341D01*
X139464596Y-46924936D01*
X139464586Y-46924938D01*
X139236344Y-46986094D01*
X139236335Y-46986098D01*
X139022171Y-47085964D01*
X139022169Y-47085965D01*
X138828597Y-47221505D01*
X138661508Y-47388594D01*
X138531269Y-47574595D01*
X138476692Y-47618219D01*
X138407193Y-47625412D01*
X138344839Y-47593890D01*
X138328119Y-47574594D01*
X138198113Y-47388926D01*
X138198108Y-47388920D01*
X138031082Y-47221894D01*
X137837578Y-47086399D01*
X137623492Y-46986570D01*
X137623486Y-46986567D01*
X137410000Y-46929364D01*
X137410000Y-47824498D01*
X137302315Y-47775320D01*
X137195763Y-47760000D01*
X137124237Y-47760000D01*
X137017685Y-47775320D01*
X136910000Y-47824498D01*
X136910000Y-46929364D01*
X136909999Y-46929364D01*
X136696513Y-46986567D01*
X136696507Y-46986570D01*
X136482422Y-47086399D01*
X136482420Y-47086400D01*
X136288926Y-47221886D01*
X136288920Y-47221891D01*
X136121891Y-47388920D01*
X136121890Y-47388922D01*
X135991880Y-47574595D01*
X135937303Y-47618219D01*
X135867804Y-47625412D01*
X135805450Y-47593890D01*
X135788730Y-47574594D01*
X135658494Y-47388597D01*
X135531819Y-47261922D01*
X135498334Y-47200599D01*
X135495500Y-47174241D01*
X135495500Y-46719500D01*
X135515185Y-46652461D01*
X135567989Y-46606706D01*
X135619500Y-46595500D01*
X156430994Y-46595500D01*
X156498033Y-46615185D01*
X156518675Y-46631819D01*
X156568181Y-46681325D01*
X156601666Y-46742648D01*
X156604500Y-46769006D01*
X156604500Y-47174241D01*
X156584815Y-47241280D01*
X156568181Y-47261922D01*
X156441505Y-47388597D01*
X156305965Y-47582169D01*
X156305964Y-47582171D01*
X156206098Y-47796335D01*
X156206094Y-47796344D01*
X156144938Y-48024586D01*
X156144936Y-48024596D01*
X156124341Y-48259999D01*
X156124341Y-48260000D01*
X156144936Y-48495403D01*
X156144938Y-48495413D01*
X156206094Y-48723655D01*
X156206096Y-48723659D01*
X156206097Y-48723663D01*
X156285801Y-48894588D01*
X156305965Y-48937830D01*
X156305967Y-48937834D01*
X156414281Y-49092521D01*
X156441504Y-49131400D01*
X156441506Y-49131402D01*
X156568181Y-49258077D01*
X156601666Y-49319400D01*
X156604500Y-49345758D01*
X156604500Y-49714241D01*
X156584815Y-49781280D01*
X156568181Y-49801922D01*
X156441505Y-49928597D01*
X156305965Y-50122169D01*
X156305964Y-50122171D01*
X156206098Y-50336335D01*
X156206094Y-50336344D01*
X156144938Y-50564586D01*
X156144936Y-50564596D01*
X156124341Y-50799999D01*
X156124341Y-50800000D01*
X156144936Y-51035403D01*
X156144938Y-51035413D01*
X156206094Y-51263655D01*
X156206096Y-51263659D01*
X156206097Y-51263663D01*
X156285801Y-51434588D01*
X156305965Y-51477830D01*
X156305967Y-51477834D01*
X156414281Y-51632521D01*
X156441504Y-51671400D01*
X156441506Y-51671402D01*
X156568181Y-51798077D01*
X156601666Y-51859400D01*
X156604500Y-51885758D01*
X156604500Y-53560993D01*
X156584815Y-53628032D01*
X156568181Y-53648674D01*
X154349653Y-55867201D01*
X154342250Y-55874026D01*
X154300641Y-55909370D01*
X154251203Y-55974405D01*
X154249135Y-55977050D01*
X154197970Y-56040701D01*
X154197968Y-56040704D01*
X154197879Y-56040885D01*
X154185529Y-56060796D01*
X154185400Y-56060964D01*
X154185400Y-56060965D01*
X154151093Y-56135117D01*
X154149644Y-56138141D01*
X154113358Y-56211308D01*
X154113354Y-56211319D01*
X154113309Y-56211503D01*
X154105527Y-56233609D01*
X154105441Y-56233794D01*
X154105435Y-56233810D01*
X154087872Y-56313595D01*
X154087107Y-56316860D01*
X154067399Y-56396111D01*
X154067394Y-56396310D01*
X154064545Y-56419575D01*
X154064500Y-56419778D01*
X154064500Y-56501462D01*
X154064455Y-56504820D01*
X154062243Y-56586472D01*
X154062278Y-56586655D01*
X154064500Y-56610023D01*
X154064500Y-59874241D01*
X154044815Y-59941280D01*
X154028181Y-59961922D01*
X153901505Y-60088597D01*
X153765965Y-60282169D01*
X153765964Y-60282171D01*
X153666098Y-60496335D01*
X153666094Y-60496344D01*
X153604938Y-60724586D01*
X153604936Y-60724596D01*
X153584341Y-60959999D01*
X153584341Y-60960000D01*
X153604936Y-61195403D01*
X153604938Y-61195413D01*
X153666094Y-61423655D01*
X153666096Y-61423659D01*
X153666097Y-61423663D01*
X153745800Y-61594586D01*
X153765965Y-61637830D01*
X153765967Y-61637834D01*
X153824462Y-61721373D01*
X153901504Y-61831400D01*
X153901506Y-61831402D01*
X154028181Y-61958077D01*
X154061666Y-62019400D01*
X154064500Y-62045758D01*
X154064500Y-62414241D01*
X154044815Y-62481280D01*
X154028181Y-62501922D01*
X153901505Y-62628597D01*
X153765965Y-62822169D01*
X153765964Y-62822171D01*
X153666098Y-63036335D01*
X153666094Y-63036344D01*
X153604938Y-63264586D01*
X153604936Y-63264596D01*
X153584341Y-63499999D01*
X153584341Y-63500000D01*
X153604936Y-63735403D01*
X153604938Y-63735413D01*
X153666094Y-63963655D01*
X153666096Y-63963659D01*
X153666097Y-63963663D01*
X153745800Y-64134586D01*
X153765965Y-64177830D01*
X153765967Y-64177834D01*
X153824462Y-64261373D01*
X153901504Y-64371400D01*
X153901506Y-64371402D01*
X154028181Y-64498077D01*
X154061666Y-64559400D01*
X154064500Y-64585758D01*
X154064500Y-65999378D01*
X154064091Y-66009442D01*
X154059660Y-66063845D01*
X154070688Y-66144790D01*
X154071096Y-66148120D01*
X154079927Y-66229316D01*
X154079929Y-66229327D01*
X154079990Y-66229506D01*
X154085340Y-66252331D01*
X154085366Y-66252525D01*
X154085369Y-66252537D01*
X154113540Y-66329219D01*
X154114655Y-66332385D01*
X154140731Y-66409776D01*
X154140734Y-66409782D01*
X154140832Y-66409945D01*
X154150969Y-66431099D01*
X154151036Y-66431283D01*
X154151040Y-66431290D01*
X154195046Y-66500139D01*
X154196815Y-66502990D01*
X154238912Y-66572955D01*
X154239042Y-66573092D01*
X154253492Y-66591575D01*
X154253600Y-66591744D01*
X154311395Y-66649539D01*
X154313702Y-66651910D01*
X154369866Y-66711203D01*
X154369868Y-66711204D01*
X154369871Y-66711207D01*
X154370028Y-66711314D01*
X154388121Y-66726265D01*
X156568181Y-68906324D01*
X156601666Y-68967647D01*
X156604500Y-68994005D01*
X156604500Y-69104583D01*
X156586039Y-69169680D01*
X156506593Y-69298481D01*
X156506591Y-69298486D01*
X156479219Y-69381088D01*
X156452326Y-69462247D01*
X156452326Y-69462248D01*
X156452325Y-69462248D01*
X156442000Y-69563315D01*
X156442000Y-70136669D01*
X156442001Y-70136687D01*
X156452325Y-70237752D01*
X156488609Y-70347249D01*
X156506592Y-70401516D01*
X156586039Y-70530320D01*
X156604500Y-70595416D01*
X156604500Y-72199235D01*
X156584815Y-72266274D01*
X156532011Y-72312029D01*
X156523834Y-72315417D01*
X156387669Y-72366203D01*
X156387664Y-72366206D01*
X156272455Y-72452452D01*
X156272452Y-72452455D01*
X156186206Y-72567664D01*
X156186202Y-72567671D01*
X156135908Y-72702517D01*
X156129501Y-72762116D01*
X156129500Y-72762135D01*
X156129500Y-74557870D01*
X156129501Y-74557876D01*
X156135908Y-74617483D01*
X156186202Y-74752328D01*
X156186206Y-74752335D01*
X156272452Y-74867544D01*
X156272455Y-74867547D01*
X156387664Y-74953793D01*
X156387671Y-74953797D01*
X156519082Y-75002810D01*
X156575016Y-75044681D01*
X156599433Y-75110145D01*
X156584582Y-75178418D01*
X156563430Y-75206673D01*
X156441505Y-75328597D01*
X156305965Y-75522169D01*
X156305964Y-75522171D01*
X156206098Y-75736335D01*
X156206094Y-75736344D01*
X156144938Y-75964586D01*
X156144936Y-75964596D01*
X156124341Y-76199999D01*
X156124341Y-76200000D01*
X156144936Y-76435403D01*
X156144938Y-76435413D01*
X156206094Y-76663655D01*
X156206096Y-76663659D01*
X156206097Y-76663663D01*
X156288024Y-76839355D01*
X156305965Y-76877830D01*
X156305967Y-76877834D01*
X156410162Y-77026638D01*
X156441505Y-77071401D01*
X156608599Y-77238495D01*
X156705384Y-77306265D01*
X156802165Y-77374032D01*
X156802167Y-77374033D01*
X156802170Y-77374035D01*
X157016337Y-77473903D01*
X157244592Y-77535063D01*
X157432918Y-77551539D01*
X157479999Y-77555659D01*
X157480000Y-77555659D01*
X157480001Y-77555659D01*
X157519234Y-77552226D01*
X157715408Y-77535063D01*
X157943663Y-77473903D01*
X158157830Y-77374035D01*
X158351401Y-77238495D01*
X158518495Y-77071401D01*
X158648730Y-76885405D01*
X158703307Y-76841781D01*
X158772805Y-76834587D01*
X158835160Y-76866110D01*
X158851879Y-76885405D01*
X158981890Y-77071078D01*
X159148917Y-77238105D01*
X159342421Y-77373600D01*
X159556507Y-77473429D01*
X159556516Y-77473433D01*
X159770000Y-77530634D01*
X159770000Y-76635501D01*
X159877685Y-76684680D01*
X159984237Y-76700000D01*
X160055763Y-76700000D01*
X160162315Y-76684680D01*
X160270000Y-76635501D01*
X160270000Y-77530633D01*
X160483483Y-77473433D01*
X160483492Y-77473429D01*
X160697578Y-77373600D01*
X160891082Y-77238105D01*
X161058105Y-77071082D01*
X161188119Y-76885405D01*
X161242696Y-76841781D01*
X161312195Y-76834588D01*
X161374549Y-76866110D01*
X161391269Y-76885405D01*
X161404180Y-76903844D01*
X161521505Y-77071401D01*
X161688599Y-77238495D01*
X161785384Y-77306265D01*
X161882165Y-77374032D01*
X161882167Y-77374033D01*
X161882170Y-77374035D01*
X162096337Y-77473903D01*
X162324592Y-77535063D01*
X162512918Y-77551539D01*
X162559999Y-77555659D01*
X162560000Y-77555659D01*
X162560001Y-77555659D01*
X162599234Y-77552226D01*
X162795408Y-77535063D01*
X163023663Y-77473903D01*
X163237830Y-77374035D01*
X163431401Y-77238495D01*
X163598495Y-77071401D01*
X163712891Y-76908026D01*
X163728425Y-76885842D01*
X163783002Y-76842217D01*
X163852500Y-76835023D01*
X163914855Y-76866546D01*
X163931575Y-76885842D01*
X164061500Y-77071395D01*
X164061505Y-77071401D01*
X164228599Y-77238495D01*
X164325384Y-77306265D01*
X164422165Y-77374032D01*
X164422167Y-77374033D01*
X164422170Y-77374035D01*
X164636337Y-77473903D01*
X164864592Y-77535063D01*
X165052918Y-77551539D01*
X165099999Y-77555659D01*
X165100000Y-77555659D01*
X165100001Y-77555659D01*
X165139234Y-77552226D01*
X165335408Y-77535063D01*
X165563663Y-77473903D01*
X165777830Y-77374035D01*
X165971401Y-77238495D01*
X166138495Y-77071401D01*
X166252891Y-76908026D01*
X166268425Y-76885842D01*
X166323002Y-76842217D01*
X166392500Y-76835023D01*
X166454855Y-76866546D01*
X166471575Y-76885842D01*
X166601500Y-77071395D01*
X166601505Y-77071401D01*
X166768599Y-77238495D01*
X166865384Y-77306265D01*
X166962165Y-77374032D01*
X166962167Y-77374033D01*
X166962170Y-77374035D01*
X167176337Y-77473903D01*
X167404592Y-77535063D01*
X167592918Y-77551539D01*
X167639999Y-77555659D01*
X167640000Y-77555659D01*
X167640001Y-77555659D01*
X167679234Y-77552226D01*
X167875408Y-77535063D01*
X168103663Y-77473903D01*
X168317830Y-77374035D01*
X168511401Y-77238495D01*
X168678495Y-77071401D01*
X168792891Y-76908026D01*
X168808425Y-76885842D01*
X168863002Y-76842217D01*
X168932500Y-76835023D01*
X168994855Y-76866546D01*
X169011575Y-76885842D01*
X169141500Y-77071395D01*
X169141505Y-77071401D01*
X169308599Y-77238495D01*
X169405384Y-77306265D01*
X169502165Y-77374032D01*
X169502167Y-77374033D01*
X169502170Y-77374035D01*
X169716337Y-77473903D01*
X169944592Y-77535063D01*
X170132918Y-77551539D01*
X170179999Y-77555659D01*
X170180000Y-77555659D01*
X170180001Y-77555659D01*
X170219234Y-77552226D01*
X170415408Y-77535063D01*
X170643663Y-77473903D01*
X170857830Y-77374035D01*
X171051401Y-77238495D01*
X171218495Y-77071401D01*
X171354035Y-76877830D01*
X171453903Y-76663663D01*
X171515063Y-76435408D01*
X171535659Y-76200000D01*
X171515063Y-75964592D01*
X171488143Y-75864125D01*
X171489806Y-75794276D01*
X171520235Y-75744353D01*
X171833787Y-75430802D01*
X171846042Y-75420986D01*
X171845859Y-75420764D01*
X171851868Y-75415791D01*
X171851877Y-75415786D01*
X171897949Y-75366722D01*
X171900566Y-75364023D01*
X171920120Y-75344471D01*
X171922576Y-75341303D01*
X171930156Y-75332427D01*
X171960062Y-75300582D01*
X171969713Y-75283024D01*
X171980396Y-75266761D01*
X171992673Y-75250936D01*
X172010021Y-75210844D01*
X172015151Y-75200371D01*
X172036197Y-75162092D01*
X172041180Y-75142680D01*
X172047481Y-75124280D01*
X172055437Y-75105896D01*
X172062270Y-75062748D01*
X172064633Y-75051338D01*
X172075500Y-75009019D01*
X172075500Y-74988983D01*
X172077027Y-74969582D01*
X172080160Y-74949804D01*
X172076050Y-74906324D01*
X172075500Y-74894655D01*
X172075500Y-64852742D01*
X172077224Y-64837122D01*
X172076939Y-64837095D01*
X172077673Y-64829333D01*
X172075561Y-64762112D01*
X172075500Y-64758218D01*
X172075500Y-64730656D01*
X172075500Y-64730650D01*
X172074996Y-64726668D01*
X172074081Y-64715029D01*
X172073560Y-64698436D01*
X172072710Y-64671373D01*
X172067119Y-64652130D01*
X172063173Y-64633078D01*
X172060664Y-64613208D01*
X172044579Y-64572583D01*
X172040806Y-64561562D01*
X172028618Y-64519610D01*
X172028617Y-64519609D01*
X172028617Y-64519607D01*
X172028616Y-64519606D01*
X172018423Y-64502371D01*
X172009861Y-64484894D01*
X172002487Y-64466269D01*
X171976816Y-64430937D01*
X171970405Y-64421177D01*
X171948170Y-64383580D01*
X171948168Y-64383578D01*
X171948165Y-64383574D01*
X171934006Y-64369415D01*
X171921368Y-64354619D01*
X171909594Y-64338413D01*
X171875940Y-64310572D01*
X171867299Y-64302709D01*
X169026818Y-61462228D01*
X168993333Y-61400905D01*
X168990499Y-61374547D01*
X168990499Y-60309998D01*
X168990498Y-60309981D01*
X168979999Y-60207203D01*
X168979998Y-60207200D01*
X168977157Y-60198626D01*
X168924814Y-60040666D01*
X168832712Y-59891344D01*
X168708656Y-59767288D01*
X168577784Y-59686566D01*
X168559336Y-59675187D01*
X168559331Y-59675185D01*
X168557862Y-59674698D01*
X168392797Y-59620001D01*
X168392795Y-59620000D01*
X168290010Y-59609500D01*
X166989998Y-59609500D01*
X166989981Y-59609501D01*
X166887203Y-59620000D01*
X166887200Y-59620001D01*
X166720668Y-59675185D01*
X166720663Y-59675187D01*
X166571342Y-59767289D01*
X166447289Y-59891342D01*
X166355187Y-60040663D01*
X166355183Y-60040673D01*
X166352335Y-60049268D01*
X166312560Y-60106711D01*
X166248044Y-60133531D01*
X166179268Y-60121214D01*
X166142517Y-60092233D01*
X166142324Y-60092427D01*
X166140682Y-60090785D01*
X166139642Y-60089965D01*
X166138494Y-60088597D01*
X165971402Y-59921506D01*
X165971395Y-59921501D01*
X165777834Y-59785967D01*
X165777830Y-59785965D01*
X165737777Y-59767288D01*
X165563663Y-59686097D01*
X165563659Y-59686096D01*
X165563655Y-59686094D01*
X165335413Y-59624938D01*
X165335403Y-59624936D01*
X165100001Y-59604341D01*
X165099999Y-59604341D01*
X164864596Y-59624936D01*
X164864586Y-59624938D01*
X164636344Y-59686094D01*
X164636335Y-59686098D01*
X164422171Y-59785964D01*
X164422169Y-59785965D01*
X164228597Y-59921505D01*
X164061505Y-60088597D01*
X163931575Y-60274158D01*
X163876998Y-60317783D01*
X163807500Y-60324977D01*
X163745145Y-60293454D01*
X163728425Y-60274158D01*
X163598494Y-60088597D01*
X163431402Y-59921506D01*
X163431395Y-59921501D01*
X163237834Y-59785967D01*
X163237830Y-59785965D01*
X163197777Y-59767288D01*
X163023663Y-59686097D01*
X163023659Y-59686096D01*
X163023655Y-59686094D01*
X162795413Y-59624938D01*
X162795403Y-59624936D01*
X162560001Y-59604341D01*
X162559999Y-59604341D01*
X162324596Y-59624936D01*
X162324586Y-59624938D01*
X162096344Y-59686094D01*
X162096335Y-59686098D01*
X161882171Y-59785964D01*
X161882169Y-59785965D01*
X161688597Y-59921505D01*
X161521505Y-60088597D01*
X161391575Y-60274158D01*
X161336998Y-60317783D01*
X161267500Y-60324977D01*
X161205145Y-60293454D01*
X161188425Y-60274158D01*
X161058494Y-60088597D01*
X160891402Y-59921506D01*
X160891395Y-59921501D01*
X160697834Y-59785967D01*
X160697830Y-59785965D01*
X160657777Y-59767288D01*
X160483663Y-59686097D01*
X160483659Y-59686096D01*
X160483655Y-59686094D01*
X160255413Y-59624938D01*
X160255403Y-59624936D01*
X160020001Y-59604341D01*
X160019999Y-59604341D01*
X159784596Y-59624936D01*
X159784586Y-59624938D01*
X159556344Y-59686094D01*
X159556335Y-59686098D01*
X159342171Y-59785964D01*
X159342169Y-59785965D01*
X159148597Y-59921505D01*
X158981505Y-60088597D01*
X158851269Y-60274595D01*
X158796692Y-60318220D01*
X158727194Y-60325414D01*
X158664839Y-60293891D01*
X158648119Y-60274595D01*
X158594925Y-60198626D01*
X158594925Y-60198625D01*
X157963076Y-60830475D01*
X157939493Y-60750156D01*
X157861761Y-60629202D01*
X157753100Y-60535048D01*
X157622315Y-60475320D01*
X157612533Y-60473913D01*
X158241373Y-59845073D01*
X158241373Y-59845072D01*
X158157583Y-59786402D01*
X158157579Y-59786400D01*
X157943492Y-59686570D01*
X157943483Y-59686566D01*
X157715326Y-59625432D01*
X157715315Y-59625430D01*
X157480002Y-59604843D01*
X157479998Y-59604843D01*
X157244684Y-59625430D01*
X157244673Y-59625432D01*
X157016516Y-59686566D01*
X157016507Y-59686570D01*
X156802419Y-59786401D01*
X156718625Y-59845072D01*
X157347466Y-60473913D01*
X157337685Y-60475320D01*
X157206900Y-60535048D01*
X157098239Y-60629202D01*
X157020507Y-60750156D01*
X156996923Y-60830475D01*
X156365073Y-60198626D01*
X156311881Y-60274594D01*
X156257304Y-60318219D01*
X156187806Y-60325413D01*
X156125451Y-60293891D01*
X156108730Y-60274594D01*
X155978494Y-60088597D01*
X155851819Y-59961922D01*
X155818334Y-59900599D01*
X155815500Y-59874241D01*
X155815500Y-56929004D01*
X155835185Y-56861965D01*
X155851814Y-56841328D01*
X158070353Y-54622788D01*
X158077734Y-54615984D01*
X158119357Y-54580631D01*
X158168858Y-54515512D01*
X158170815Y-54513008D01*
X158222030Y-54449297D01*
X158222109Y-54449136D01*
X158234493Y-54429171D01*
X158234602Y-54429029D01*
X158268905Y-54354883D01*
X158270331Y-54351903D01*
X158306641Y-54278693D01*
X158306685Y-54278514D01*
X158314484Y-54256363D01*
X158314562Y-54256197D01*
X158332139Y-54176340D01*
X158332865Y-54173239D01*
X158352600Y-54093890D01*
X158352604Y-54093714D01*
X158355461Y-54070391D01*
X158355500Y-54070216D01*
X158355500Y-53988536D01*
X158355545Y-53985178D01*
X158357757Y-53903527D01*
X158357720Y-53903334D01*
X158355500Y-53879975D01*
X158355500Y-51885758D01*
X158375185Y-51818719D01*
X158391819Y-51798077D01*
X158432414Y-51757482D01*
X158518495Y-51671401D01*
X158648730Y-51485405D01*
X158703307Y-51441781D01*
X158772805Y-51434587D01*
X158835160Y-51466110D01*
X158851879Y-51485405D01*
X158981890Y-51671078D01*
X159148917Y-51838105D01*
X159342421Y-51973600D01*
X159556507Y-52073429D01*
X159556516Y-52073433D01*
X159770000Y-52130634D01*
X159770000Y-51235501D01*
X159877685Y-51284680D01*
X159984237Y-51300000D01*
X160055763Y-51300000D01*
X160162315Y-51284680D01*
X160270000Y-51235501D01*
X160270000Y-52130634D01*
X160483483Y-52073433D01*
X160483492Y-52073429D01*
X160697578Y-51973600D01*
X160891082Y-51838105D01*
X161058105Y-51671082D01*
X161188119Y-51485405D01*
X161242696Y-51441781D01*
X161312195Y-51434588D01*
X161374549Y-51466110D01*
X161391269Y-51485405D01*
X161521505Y-51671401D01*
X161688599Y-51838495D01*
X161785384Y-51906265D01*
X161882165Y-51974032D01*
X161882167Y-51974033D01*
X161882170Y-51974035D01*
X162096337Y-52073903D01*
X162324592Y-52135063D01*
X162501034Y-52150500D01*
X162559999Y-52155659D01*
X162560000Y-52155659D01*
X162560001Y-52155659D01*
X162618966Y-52150500D01*
X162795408Y-52135063D01*
X163023663Y-52073903D01*
X163237830Y-51974035D01*
X163431401Y-51838495D01*
X163598495Y-51671401D01*
X163728425Y-51485842D01*
X163783002Y-51442217D01*
X163852500Y-51435023D01*
X163914855Y-51466546D01*
X163931575Y-51485842D01*
X164061500Y-51671395D01*
X164061505Y-51671401D01*
X164228599Y-51838495D01*
X164325384Y-51906265D01*
X164422165Y-51974032D01*
X164422167Y-51974033D01*
X164422170Y-51974035D01*
X164636337Y-52073903D01*
X164864592Y-52135063D01*
X165041034Y-52150500D01*
X165099999Y-52155659D01*
X165100000Y-52155659D01*
X165100001Y-52155659D01*
X165158966Y-52150500D01*
X165335408Y-52135063D01*
X165563663Y-52073903D01*
X165777830Y-51974035D01*
X165971401Y-51838495D01*
X166138495Y-51671401D01*
X166268425Y-51485842D01*
X166323002Y-51442217D01*
X166392500Y-51435023D01*
X166454855Y-51466546D01*
X166471575Y-51485842D01*
X166601500Y-51671395D01*
X166601505Y-51671401D01*
X166768599Y-51838495D01*
X166865384Y-51906265D01*
X166962165Y-51974032D01*
X166962167Y-51974033D01*
X166962170Y-51974035D01*
X167176337Y-52073903D01*
X167404592Y-52135063D01*
X167581034Y-52150500D01*
X167639999Y-52155659D01*
X167640000Y-52155659D01*
X167640001Y-52155659D01*
X167698966Y-52150500D01*
X167875408Y-52135063D01*
X168103663Y-52073903D01*
X168317830Y-51974035D01*
X168511401Y-51838495D01*
X168633329Y-51716566D01*
X168694648Y-51683084D01*
X168764340Y-51688068D01*
X168820274Y-51729939D01*
X168837189Y-51760917D01*
X168886202Y-51892328D01*
X168886206Y-51892335D01*
X168972452Y-52007544D01*
X168972455Y-52007547D01*
X169087664Y-52093793D01*
X169087671Y-52093797D01*
X169222517Y-52144091D01*
X169222516Y-52144091D01*
X169229444Y-52144835D01*
X169282127Y-52150500D01*
X171077872Y-52150499D01*
X171137483Y-52144091D01*
X171272331Y-52093796D01*
X171387546Y-52007546D01*
X171473796Y-51892331D01*
X171524091Y-51757483D01*
X171530500Y-51697873D01*
X171530499Y-49902128D01*
X171524091Y-49842517D01*
X171522810Y-49839083D01*
X171473797Y-49707671D01*
X171473793Y-49707664D01*
X171387547Y-49592455D01*
X171387544Y-49592452D01*
X171272335Y-49506206D01*
X171272328Y-49506202D01*
X171140917Y-49457189D01*
X171084983Y-49415318D01*
X171060566Y-49349853D01*
X171075418Y-49281580D01*
X171096563Y-49253332D01*
X171218495Y-49131401D01*
X171354035Y-48937830D01*
X171453903Y-48723663D01*
X171515063Y-48495408D01*
X171535659Y-48260000D01*
X171515063Y-48024592D01*
X171453903Y-47796337D01*
X171354035Y-47582171D01*
X171348731Y-47574595D01*
X171218494Y-47388597D01*
X171051402Y-47221506D01*
X171051395Y-47221501D01*
X170857834Y-47085967D01*
X170857830Y-47085965D01*
X170855810Y-47085023D01*
X170643663Y-46986097D01*
X170643659Y-46986096D01*
X170643655Y-46986094D01*
X170415413Y-46924938D01*
X170415403Y-46924936D01*
X170180001Y-46904341D01*
X170179999Y-46904341D01*
X169944596Y-46924936D01*
X169944586Y-46924938D01*
X169716344Y-46986094D01*
X169716335Y-46986098D01*
X169502171Y-47085964D01*
X169502169Y-47085965D01*
X169308597Y-47221505D01*
X169141505Y-47388597D01*
X169011575Y-47574158D01*
X168956998Y-47617783D01*
X168887500Y-47624977D01*
X168825145Y-47593454D01*
X168808425Y-47574158D01*
X168678494Y-47388597D01*
X168511402Y-47221506D01*
X168511395Y-47221501D01*
X168317834Y-47085967D01*
X168317830Y-47085965D01*
X168315810Y-47085023D01*
X168103663Y-46986097D01*
X168103659Y-46986096D01*
X168103655Y-46986094D01*
X167875413Y-46924938D01*
X167875403Y-46924936D01*
X167640001Y-46904341D01*
X167639999Y-46904341D01*
X167404596Y-46924936D01*
X167404586Y-46924938D01*
X167176344Y-46986094D01*
X167176335Y-46986098D01*
X166962171Y-47085964D01*
X166962169Y-47085965D01*
X166768597Y-47221505D01*
X166601505Y-47388597D01*
X166471575Y-47574158D01*
X166416998Y-47617783D01*
X166347500Y-47624977D01*
X166285145Y-47593454D01*
X166268425Y-47574158D01*
X166138494Y-47388597D01*
X165971402Y-47221506D01*
X165971395Y-47221501D01*
X165777834Y-47085967D01*
X165777830Y-47085965D01*
X165775810Y-47085023D01*
X165563663Y-46986097D01*
X165563659Y-46986096D01*
X165563655Y-46986094D01*
X165335413Y-46924938D01*
X165335403Y-46924936D01*
X165100001Y-46904341D01*
X165099999Y-46904341D01*
X164864596Y-46924936D01*
X164864586Y-46924938D01*
X164636344Y-46986094D01*
X164636335Y-46986098D01*
X164422171Y-47085964D01*
X164422169Y-47085965D01*
X164228597Y-47221505D01*
X164061505Y-47388597D01*
X163931575Y-47574158D01*
X163876998Y-47617783D01*
X163807500Y-47624977D01*
X163745145Y-47593454D01*
X163728425Y-47574158D01*
X163598494Y-47388597D01*
X163431402Y-47221506D01*
X163431395Y-47221501D01*
X163237834Y-47085967D01*
X163237830Y-47085965D01*
X163235810Y-47085023D01*
X163023663Y-46986097D01*
X163023659Y-46986096D01*
X163023655Y-46986094D01*
X162795413Y-46924938D01*
X162795403Y-46924936D01*
X162560001Y-46904341D01*
X162559999Y-46904341D01*
X162324596Y-46924936D01*
X162324586Y-46924938D01*
X162096344Y-46986094D01*
X162096335Y-46986098D01*
X161882171Y-47085964D01*
X161882169Y-47085965D01*
X161688597Y-47221505D01*
X161521508Y-47388594D01*
X161391269Y-47574595D01*
X161336692Y-47618219D01*
X161267193Y-47625412D01*
X161204839Y-47593890D01*
X161188119Y-47574594D01*
X161058113Y-47388926D01*
X161058108Y-47388920D01*
X160891082Y-47221894D01*
X160697578Y-47086399D01*
X160483492Y-46986570D01*
X160483486Y-46986567D01*
X160270000Y-46929364D01*
X160270000Y-47824498D01*
X160162315Y-47775320D01*
X160055763Y-47760000D01*
X159984237Y-47760000D01*
X159877685Y-47775320D01*
X159770000Y-47824498D01*
X159770000Y-46929364D01*
X159769999Y-46929364D01*
X159556513Y-46986567D01*
X159556507Y-46986570D01*
X159342422Y-47086399D01*
X159342420Y-47086400D01*
X159148926Y-47221886D01*
X159148920Y-47221891D01*
X158981891Y-47388920D01*
X158981890Y-47388922D01*
X158851880Y-47574595D01*
X158797303Y-47618219D01*
X158727804Y-47625412D01*
X158665450Y-47593890D01*
X158648730Y-47574594D01*
X158518494Y-47388597D01*
X158391819Y-47261922D01*
X158358334Y-47200599D01*
X158355500Y-47174241D01*
X158355500Y-46395629D01*
X158355909Y-46385564D01*
X158358884Y-46349026D01*
X158360340Y-46331152D01*
X158349302Y-46250145D01*
X158348899Y-46246849D01*
X158340073Y-46165685D01*
X158340015Y-46165513D01*
X158334656Y-46142649D01*
X158334631Y-46142463D01*
X158306462Y-46065790D01*
X158305346Y-46062620D01*
X158279269Y-45985223D01*
X158279266Y-45985218D01*
X158279172Y-45985061D01*
X158269025Y-45963887D01*
X158268960Y-45963710D01*
X158224959Y-45894871D01*
X158223188Y-45892016D01*
X158181091Y-45822049D01*
X158181090Y-45822048D01*
X158181089Y-45822046D01*
X158180955Y-45821904D01*
X158166504Y-45803419D01*
X158166400Y-45803256D01*
X158108658Y-45745514D01*
X158106316Y-45743109D01*
X158105939Y-45742711D01*
X158050129Y-45683793D01*
X158049970Y-45683685D01*
X158031877Y-45668733D01*
X157492793Y-45129649D01*
X157485979Y-45122258D01*
X157450631Y-45080643D01*
X157450630Y-45080642D01*
X157385607Y-45031213D01*
X157382961Y-45029144D01*
X157319302Y-44977973D01*
X157319294Y-44977968D01*
X157319120Y-44977882D01*
X157299182Y-44965514D01*
X157299029Y-44965398D01*
X157224897Y-44931100D01*
X157221872Y-44929650D01*
X157148700Y-44893362D01*
X157148696Y-44893360D01*
X157148693Y-44893359D01*
X157148687Y-44893357D01*
X157148680Y-44893355D01*
X157148488Y-44893307D01*
X157126385Y-44885525D01*
X157126198Y-44885438D01*
X157126195Y-44885437D01*
X157046412Y-44867875D01*
X157043145Y-44867109D01*
X156963887Y-44847399D01*
X156963689Y-44847394D01*
X156940413Y-44844543D01*
X156940222Y-44844501D01*
X156940219Y-44844500D01*
X156940216Y-44844500D01*
X156940212Y-44844500D01*
X156858537Y-44844500D01*
X156855179Y-44844455D01*
X156773527Y-44842243D01*
X156773345Y-44842278D01*
X156749977Y-44844500D01*
X134701379Y-44844500D01*
X134681317Y-44842866D01*
X134667679Y-44840630D01*
X134667677Y-44840629D01*
X134599652Y-44844318D01*
X134592939Y-44844500D01*
X111841379Y-44844500D01*
X111821317Y-44842866D01*
X111807679Y-44840630D01*
X111807677Y-44840629D01*
X111739652Y-44844318D01*
X111732939Y-44844500D01*
X90210618Y-44844500D01*
X90200553Y-44844091D01*
X90146153Y-44839660D01*
X90146147Y-44839661D01*
X90065212Y-44850688D01*
X90061881Y-44851096D01*
X89980680Y-44859927D01*
X89980490Y-44859992D01*
X89957665Y-44865341D01*
X89957469Y-44865367D01*
X89957463Y-44865368D01*
X89957463Y-44865369D01*
X89950642Y-44867875D01*
X89880778Y-44893541D01*
X89877614Y-44894654D01*
X89800226Y-44920730D01*
X89800217Y-44920734D01*
X89800040Y-44920841D01*
X89778911Y-44930965D01*
X89778713Y-44931037D01*
X89709892Y-44975026D01*
X89707042Y-44976794D01*
X89637046Y-45018910D01*
X89637041Y-45018914D01*
X89636890Y-45019058D01*
X89618436Y-45033485D01*
X89618260Y-45033597D01*
X89618255Y-45033601D01*
X89560494Y-45091361D01*
X89558090Y-45093701D01*
X89498792Y-45149872D01*
X89498681Y-45150036D01*
X89483737Y-45168117D01*
X88309653Y-46342201D01*
X88302250Y-46349026D01*
X88260641Y-46384370D01*
X88211203Y-46449405D01*
X88209135Y-46452050D01*
X88157970Y-46515701D01*
X88157968Y-46515704D01*
X88157879Y-46515885D01*
X88145529Y-46535796D01*
X88145400Y-46535964D01*
X88145400Y-46535965D01*
X88111093Y-46610117D01*
X88109644Y-46613141D01*
X88073358Y-46686308D01*
X88073354Y-46686319D01*
X88073309Y-46686503D01*
X88065527Y-46708609D01*
X88065441Y-46708794D01*
X88065435Y-46708810D01*
X88047872Y-46788595D01*
X88047107Y-46791860D01*
X88027399Y-46871111D01*
X88027394Y-46871310D01*
X88024545Y-46894575D01*
X88024500Y-46894778D01*
X88024500Y-46976462D01*
X88024455Y-46979820D01*
X88022243Y-47061472D01*
X88022278Y-47061655D01*
X88024500Y-47085023D01*
X88024500Y-47174241D01*
X88004815Y-47241280D01*
X87988181Y-47261922D01*
X87861505Y-47388597D01*
X87725965Y-47582169D01*
X87725964Y-47582171D01*
X87626098Y-47796335D01*
X87626094Y-47796344D01*
X87564938Y-48024586D01*
X87564936Y-48024596D01*
X87544341Y-48259999D01*
X87544341Y-48260000D01*
X87564936Y-48495403D01*
X87564938Y-48495413D01*
X87626094Y-48723655D01*
X87626096Y-48723659D01*
X87626097Y-48723663D01*
X87705801Y-48894588D01*
X87725965Y-48937830D01*
X87725967Y-48937834D01*
X87834281Y-49092521D01*
X87861504Y-49131400D01*
X87861506Y-49131402D01*
X87988181Y-49258077D01*
X88021666Y-49319400D01*
X88024500Y-49345758D01*
X88024500Y-49714241D01*
X88004815Y-49781280D01*
X87988181Y-49801922D01*
X87861505Y-49928597D01*
X87725965Y-50122169D01*
X87725964Y-50122171D01*
X87626098Y-50336335D01*
X87626094Y-50336344D01*
X87564938Y-50564586D01*
X87564936Y-50564596D01*
X87544341Y-50799999D01*
X87544341Y-50800000D01*
X83820500Y-50800000D01*
X83820500Y-45091961D01*
X83821279Y-45078086D01*
X83821281Y-45078069D01*
X83823353Y-45059670D01*
X83823599Y-45057659D01*
X83838234Y-44946496D01*
X83844125Y-44921754D01*
X83859025Y-44879172D01*
X83861470Y-44872767D01*
X83891837Y-44799456D01*
X83901381Y-44780980D01*
X83928385Y-44738003D01*
X83934969Y-44728538D01*
X83980112Y-44669707D01*
X83990778Y-44657545D01*
X84027545Y-44620778D01*
X84039707Y-44610112D01*
X84098538Y-44564969D01*
X84108003Y-44558385D01*
X84150980Y-44531381D01*
X84169456Y-44521837D01*
X84242767Y-44491470D01*
X84249172Y-44489025D01*
X84291754Y-44474125D01*
X84316496Y-44468234D01*
X84427659Y-44453599D01*
X84429670Y-44453353D01*
X84446591Y-44451447D01*
X84448087Y-44451279D01*
X84461962Y-44450500D01*
X174618037Y-44450500D01*
X174631912Y-44451278D01*
G37*
G04 #@! TD.AperFunction*
M02*
